<?xml version="1.0" standalone="no"?>
<!DOCTYPE svg PUBLIC "-//W3C//DTD SVG 1.1//EN" "http://www.w3.org/Graphics/SVG/1.1/DTD/svg11.dtd" >
<svg>
<metadata>
Created by FontForge 20090622 at Mon Jun 20 12:35:07 2016
 By deploy user
&#194;&#169; 2006 The Monotype Corporation. All Rights Reserved.
</metadata>
<defs>
<font id="ArialNarrow-Italic" horiz-adv-x="934" >
  <font-face 
    font-family="Arial Narrow"
    font-weight="400"
    font-style="italic"
    font-stretch="condensed"
    units-per-em="2048"
    panose-1="2 11 6 6 2 2 2 10 2 4"
    ascent="1638"
    descent="-410"
    x-height="1062"
    cap-height="1466"
    bbox="-439 -628 2047 2146"
    underline-thickness="150"
    underline-position="-142"
    slope="-9.7"
    unicode-range="U+0020-U+FB02"
  />
<missing-glyph horiz-adv-x="467" 
d="M44 0v1280h390v-1280h-390zM91 53h296v1184h-296v-1184z" />
    <glyph glyph-name=".notdef" horiz-adv-x="467" 
d="M44 0v1280h390v-1280h-390zM91 53h296v1184h-296v-1184z" />
    <glyph glyph-name=".null" horiz-adv-x="0" 
 />
    <glyph glyph-name="nonmarkingreturn" horiz-adv-x="467" 
 />
    <glyph glyph-name="space" unicode=" " horiz-adv-x="467" 
 />
    <glyph glyph-name="space" unicode="&#xa0;" horiz-adv-x="467" 
 />
    <glyph glyph-name="exclam" unicode="!" horiz-adv-x="467" 
d="M188 370l91 796l52 300h180l-56 -325l-174 -771h-93zM95 0l35 205h168l-36 -205h-167z" />
    <glyph glyph-name="quotedbl" unicode="&#x22;" horiz-adv-x="596" 
d="M219 947l8 279l41 240h169l-42 -240l-86 -279h-90zM490 947l9 279l42 240h168l-42 -240l-88 -279h-89z" />
    <glyph glyph-name="numbersign" unicode="#" 
d="M82 -25l71 426h-138v149h163l61 363h-224v149h248l72 429h123l-72 -429h259l71 429h124l-72 -429h143v-149h-167l-61 -363h228v-149h-253l-71 -426h-124l71 426h-258l-71 -426h-123zM301 550h258l61 363h-258z" />
    <glyph glyph-name="dollar" unicode="$" 
d="M372 -13q-116 29 -197 145.5t-89 291.5l149 11q7 -120 52 -195.5t111 -103.5l94 553q-103 55 -153.5 108.5t-80.5 130t-30 159.5q0 166 110 283t259 117l32 -1l13 78h82l-16 -91q226 -67 253 -361l-141 -9q-12 95 -45.5 145.5t-91.5 75.5l-86 -503q158 -79 223.5 -175.5
t65.5 -223.5q0 -175 -107.5 -311.5t-303.5 -136.5l-23 1l-29 -171h-82zM522 861l82 480q-99 4 -164.5 -63.5t-65.5 -178.5q0 -80 32 -134t116 -104zM568 650l-91 -531l13 -1q98 0 173 83t75 201q0 82 -36 139t-134 109z" />
    <glyph glyph-name="percent" unicode="%" horiz-adv-x="1493" 
d="M235 -54l993 1545h134l-989 -1545h-138zM163 1015q0 86 36 211.5t104 188.5t161 63q112 0 173 -69t61 -212t-47.5 -267t-114 -173.5t-150.5 -49.5q-107 0 -165 72.5t-58 235.5zM289 982q0 -85 26.5 -119.5t70.5 -34.5q43 0 74 29q44 40 76.5 144.5t32.5 217.5
q0 68 -28.5 103t-72.5 35q-39 0 -71 -29q-44 -40 -76 -141t-32 -205zM896 254q0 85 36 210.5t104 189t161 63.5q112 0 173 -69t61 -212t-47.5 -267t-114 -173.5t-150.5 -49.5q-107 0 -165 72t-58 236zM1022 220q0 -84 26.5 -119t69.5 -35t75 29q43 40 76 144t33 214
q0 73 -28.5 108t-71.5 35q-40 0 -72 -29q-44 -41 -76 -141.5t-32 -205.5z" />
    <glyph glyph-name="ampersand" unicode="&#x26;" horiz-adv-x="1120" 
d="M833 143q-106 -105 -179 -140t-158 -35q-157 0 -260.5 113.5t-103.5 298.5q0 170 79 283t237 199q-43 115 -52 156q-12 57 -12 118q0 136 84 245.5t218 109.5q110 0 183.5 -79t73.5 -203q0 -106 -65 -202t-234 -200q106 -236 206 -389q61 90 115 209l129 -81
q-55 -139 -150 -272q57 -88 139 -200l-112 -109q-84 88 -138 178zM589 942q209 129 209 264q0 61 -34 100.5t-80 39.5q-56 0 -100.5 -55t-44.5 -136q0 -95 50 -213zM747 282q-152 241 -238 439q-115 -65 -162 -126q-64 -85 -64 -193q0 -119 65.5 -195t153.5 -76
q123 0 245 151z" />
    <glyph glyph-name="quotesingle" unicode="'" horiz-adv-x="322" 
d="M214 947l10 274l43 245h168l-43 -245l-86 -274h-92z" />
    <glyph glyph-name="parenleft" unicode="(" horiz-adv-x="559" 
d="M271 -431q-129 346 -129 704q0 251 54 462t163 416q67 126 219 340h116q-104 -136 -209 -365t-151.5 -442t-46.5 -433q0 -328 95 -682h-111z" />
    <glyph glyph-name="parenright" unicode=")" horiz-adv-x="559" 
d="M332 1491q130 -342 130 -704q0 -249 -54 -460t-164 -418q-70 -132 -219 -340h-115q103 135 208.5 364.5t151.5 442.5t46 430q0 332 -94 685h110z" />
    <glyph glyph-name="asterisk" unicode="*" horiz-adv-x="653" 
d="M190 1195l37 142q130 -55 190 -96q-17 175 -17 249h119q-2 -103 -19 -248q82 51 194 97l38 -142q-104 -42 -204 -56q51 -55 142 -189l-98 -85q-48 77 -114 214q-62 -145 -106 -215l-96 84q90 139 135 190q-110 25 -201 55z" />
    <glyph glyph-name="plus" unicode="+" horiz-adv-x="981" 
d="M420 237v402h-327v168h327v399h140v-399h327v-168h-327v-402h-140z" />
    <glyph glyph-name="comma" unicode="," horiz-adv-x="467" 
d="M92 0l35 205h169l-30 -179q-51 -297 -225 -322l14 79q97 33 129 217h-92z" />
    <glyph glyph-name="hyphen" unicode="-" horiz-adv-x="559" 
d="M77 440l31 181h453l-31 -181h-453z" />
    <glyph glyph-name="hyphen" unicode="&#xad;" horiz-adv-x="559" 
d="M77 440l31 181h453l-31 -181h-453z" />
    <glyph glyph-name="period" unicode="." horiz-adv-x="467" 
d="M97 0l35 205h168l-35 -205h-168z" />
    <glyph glyph-name="slash" unicode="/" horiz-adv-x="467" 
d="M-86 -24l646 1515h129l-646 -1515h-129z" />
    <glyph glyph-name="zero" unicode="0" 
d="M119 481q0 277 89 535.5t215 370.5q95 85 204 85q135 0 229 -122.5t94 -361.5q0 -236 -60 -467q-76 -293 -214 -438q-103 -108 -236 -108q-132 0 -226.5 127.5t-94.5 378.5zM263 435q0 -164 52.5 -240t132.5 -76q83 0 149 85q110 140 161 404t51 422q0 159 -50.5 228
t-131.5 69q-88 0 -156 -84q-96 -120 -152 -390.5t-56 -417.5z" />
    <glyph glyph-name="one" unicode="1" 
d="M405 0l190 1107q-122 -118 -346 -189l28 164q143 70 286 199q109 97 156 191h87l-252 -1472h-149z" />
    <glyph glyph-name="two" unicode="2" 
d="M99 0q32 188 116 314q63 95 314 340q153 148 210.5 240.5t57.5 190.5q0 105 -60.5 173.5t-142.5 68.5q-84 0 -147 -71t-90 -230l-145 26q22 202 126.5 311t252.5 109q163 0 258 -113t95 -280q0 -149 -87 -283q-54 -84 -306 -328q-189 -182 -245 -302h538l-29 -166h-716z
" />
    <glyph glyph-name="three" unicode="3" 
d="M92 384l145 22q16 -157 73 -222t146 -65q105 0 187.5 93t82.5 221q0 115 -62 183t-159 68q-12 0 -47 -4l25 151q21 -4 41 -4q120 0 192 72.5t72 189.5q0 104 -58 171t-133 67q-80 0 -144.5 -69.5t-82.5 -200.5l-146 36q37 186 141.5 282.5t239.5 96.5q141 0 236 -105
t95 -273q0 -115 -49.5 -201.5t-149.5 -143.5q70 -51 105 -124.5t35 -168.5q0 -201 -124 -341t-286 -140q-155 0 -259 107t-116 302z" />
    <glyph glyph-name="four" unicode="4" 
d="M503 0l64 374h-490l31 179l673 913h122l-160 -932h169l-27 -160h-170l-64 -374h-148zM595 534l104 612l-447 -612h343z" />
    <glyph glyph-name="five" unicode="5" 
d="M118 419l151 18l-2 -47q0 -73 30.5 -140t76 -99t96.5 -32q63 0 132 53t118 164t49 230q0 127 -61 199t-154 72q-130 0 -231 -152l-129 11l180 750h587l-28 -166h-457l-90 -373q101 90 215 90q133 0 224 -108.5t91 -306.5q0 -273 -146 -453q-125 -154 -311 -154
q-95 0 -170.5 48.5t-123.5 148t-48 216.5z" />
    <glyph glyph-name="six" unicode="6" 
d="M338 850q63 63 124.5 94.5t121.5 31.5q134 0 225 -111.5t91 -309.5q0 -256 -138 -433q-115 -147 -273 -147q-145 0 -247 130.5t-102 383.5q0 226 70.5 480.5t201.5 390.5q109 112 252 112q120 0 199 -91t91 -270l-138 -16q-23 225 -163 225q-61 0 -114 -46
q-80 -68 -131 -194t-70 -230zM286 412q0 -127 64 -210t142 -83q90 0 169 110q98 134 98 309q0 134 -61 213.5t-144 79.5q-98 0 -183 -115.5t-85 -303.5z" />
    <glyph glyph-name="seven" unicode="7" 
d="M244 0q26 191 112 445t203.5 470t244.5 365h-600l29 166h768l-29 -166q-189 -203 -329 -511q-178 -394 -244 -769h-155z" />
    <glyph glyph-name="eight" unicode="8" 
d="M378 806q-67 45 -100.5 111.5t-33.5 155.5q0 141 95.5 270t268.5 129q150 0 244.5 -99t94.5 -258q0 -111 -50.5 -195.5t-152.5 -134.5q76 -58 110 -130.5t34 -169.5q0 -226 -123 -368.5t-296 -142.5q-146 0 -245 110.5t-99 287.5q0 107 34.5 202t86.5 149.5t132 82.5z
M390 1065q0 -98 51 -153.5t135 -55.5q97 0 163 73t66 188q0 97 -52 153.5t-134 56.5q-62 0 -114 -32.5t-83.5 -95.5t-31.5 -134zM274 358q0 -108 59.5 -173.5t150.5 -65.5q114 0 184 118.5t70 250.5q0 108 -56 171t-141 63q-109 0 -188 -99.5t-79 -264.5z" />
    <glyph glyph-name="nine" unicode="9" 
d="M113 336l139 17q27 -227 161 -227q88 0 161 93q106 134 155 376q-79 -72 -137 -99t-113 -27q-125 0 -218 113.5t-93 313.5q0 221 114 398.5t298 177.5q146 0 246 -132t100 -382q0 -293 -87.5 -542.5t-199.5 -345t-234 -95.5q-120 0 -201 92t-91 269zM311 916
q0 -141 61 -221.5t142 -80.5q112 0 195 140q75 127 75 274q0 88 -31 159t-79 105.5t-98 34.5q-57 0 -117.5 -48t-104 -151.5t-43.5 -211.5z" />
    <glyph glyph-name="colon" unicode=":" horiz-adv-x="467" 
d="M243 857l35 205h168l-35 -205h-168zM96 0l35 205h168l-35 -205h-168z" />
    <glyph glyph-name="semicolon" unicode=";" horiz-adv-x="467" 
d="M239 857l35 205h167l-35 -205h-167zM92 0l35 205h169l-30 -179q-51 -297 -225 -322l14 79q97 33 129 217h-92z" />
    <glyph glyph-name="semicolon" unicode="&#x37e;" horiz-adv-x="467" 
d="M239 857l35 205h167l-35 -205h-167zM92 0l35 205h169l-30 -179q-51 -297 -225 -322l14 79q97 33 129 217h-92z" />
    <glyph glyph-name="less" unicode="&#x3c;" horiz-adv-x="981" 
d="M91 641v168l796 410v-179l-631 -316l631 -319v-179z" />
    <glyph glyph-name="equal" unicode="=" horiz-adv-x="981" 
d="M887 862h-794v168h794v-168zM887 417h-794v168h794v-168z" />
    <glyph glyph-name="greater" unicode="&#x3e;" horiz-adv-x="981" 
d="M887 641l-796 -415v179l631 319l-631 316v179l796 -410v-168z" />
    <glyph glyph-name="question" unicode="?" 
d="M352 367q9 90 33 157.5t65 127t153 169.5q118 118 155 188.5t37 134.5q0 85 -57 143.5t-137 58.5q-93 0 -155 -70.5t-84 -240.5l-148 30q35 217 138 321.5t244 104.5q148 0 247 -101.5t99 -258.5q0 -115 -65 -218q-46 -74 -198 -222q-105 -104 -138.5 -164t-47.5 -160
h-141zM280 0l35 205h168l-36 -205h-167z" />
    <glyph glyph-name="at" unicode="@" horiz-adv-x="1704" 
d="M953 163q-59 -83 -134 -130q-57 -36 -118 -36q-71 0 -139 50.5t-113 157t-45 237.5q0 170 70.5 329.5t167.5 236t188 76.5q78 0 140 -46t108 -138l27 155h148l-119 -671q-24 -140 -24 -155q0 -29 17.5 -47.5t40.5 -18.5q43 0 124 70t136 203.5t55 282.5q0 178 -77 322.5
t-212.5 225t-297.5 80.5q-186 0 -338.5 -101.5t-248.5 -303t-96 -456.5q0 -248 85.5 -419.5t245.5 -260.5t380 -89q197 0 346 82.5t227 219.5h148q-49 -121 -161.5 -231.5t-248.5 -164.5t-314 -54q-258 0 -439.5 104.5t-285.5 307t-104 491.5q0 299 115.5 545t290.5 361
t406 115q199 0 356 -96t251 -280t94 -409q0 -293 -175 -521q-147 -191 -317 -191q-84 0 -118.5 40.5t-41.5 126.5zM556 434q0 -139 54.5 -214t124.5 -75q56 0 126 58.5t120 182t50 259.5q0 143 -56 216.5t-136 73.5q-60 0 -121.5 -52t-111.5 -186t-50 -263z" />
    <glyph glyph-name="A" unicode="A" horiz-adv-x="1120" 
d="M-33 0l681 1466h190l198 -1466h-156l-58 422h-486l-193 -422h-176zM405 573h397l-46 368q-27 218 -34 365q-40 -126 -119 -299z" />
    <glyph glyph-name="B" unicode="B" horiz-adv-x="1120" 
d="M73 0l251 1466h373q136 0 202 -24q96 -34 148.5 -117.5t52.5 -208.5q0 -123 -56 -213.5t-166 -137.5q95 -38 145 -115t50 -186q0 -126 -60.5 -238t-153.5 -169t-204 -57h-582zM378 840h244q176 0 244 61q83 78 83 206q0 65 -26 110.5t-66 63.5t-145 18h-256zM262 166h274
q108 0 144 8q65 14 114.5 47t81.5 98.5t32 142.5q0 110 -56 160.5t-197 50.5h-306z" />
    <glyph glyph-name="C" unicode="C" horiz-adv-x="1212" 
d="M1012 516l159 -27q-76 -258 -222.5 -386t-320.5 -128q-213 0 -344.5 159t-131.5 470q0 363 165 614q179 273 463 273q182 0 304.5 -121t141.5 -340l-150 -17q-47 316 -290 316q-212 0 -343 -216.5t-131 -512.5q0 -230 93 -346.5t235 -116.5q122 0 214 88q113 108 158 291
z" />
    <glyph glyph-name="D" unicode="D" horiz-adv-x="1212" 
d="M74 0l251 1466h363q122 0 186 -19q94 -27 167.5 -101t113.5 -197t40 -283q0 -213 -65.5 -386.5t-162 -286.5t-225.5 -158q-98 -35 -235 -35h-433zM263 166h191q134 0 227.5 28.5t167.5 111t128.5 231.5t54.5 339q0 167 -47.5 265.5t-129.5 132.5q-59 25 -185 25h-213z
" />
    <glyph glyph-name="E" unicode="E" horiz-adv-x="1120" 
d="M76 0l251 1466h868l-28 -167h-708l-78 -456h688l-28 -167h-688l-88 -510h757l-29 -166h-917z" />
    <glyph glyph-name="F" unicode="F" horiz-adv-x="1026" 
d="M76 0l251 1466h781l-28 -167h-621l-80 -467h632l-28 -167h-632l-114 -665h-161z" />
    <glyph glyph-name="G" unicode="G" horiz-adv-x="1307" 
d="M688 578l28 166h527l-102 -597q-104 -80 -231.5 -126t-245.5 -46q-255 0 -378 173.5t-123 438.5q0 267 97 483.5t242 318.5t321 102q209 0 339 -145q92 -103 125 -309l-158 -21q-26 156 -107.5 234t-204.5 78q-126 0 -237.5 -83t-182.5 -256t-71 -405q0 -228 92 -337.5
t245 -109.5q156 0 337 126l54 315h-366z" />
    <glyph glyph-name="H" unicode="H" horiz-adv-x="1212" 
d="M70 0l251 1466h161l-104 -609h623l104 609h161l-251 -1466h-161l118 691h-623l-118 -691h-161z" />
    <glyph glyph-name="I" unicode="I" horiz-adv-x="467" 
d="M96 0l251 1466h161l-251 -1466h-161z" />
    <glyph glyph-name="J" unicode="J" horiz-adv-x="840" 
d="M68 427l149 13q-14 -85 -14 -127q0 -83 43.5 -129.5t113.5 -46.5q49 0 88.5 26t64.5 79.5t47 184.5l178 1039h161l-183 -1071q-39 -229 -130 -324.5t-230 -95.5q-141 0 -221 80.5t-80 239.5q0 67 13 132z" />
    <glyph glyph-name="K" unicode="K" horiz-adv-x="1120" 
d="M75 0l251 1466h161l-121 -706l653 706h226l-558 -597l409 -869h-179l-348 743l-252 -267l-81 -476h-161z" />
    <glyph glyph-name="L" unicode="L" 
d="M67 0l251 1466h161l-223 -1300h624l-28 -166h-785z" />
    <glyph glyph-name="M" unicode="M" horiz-adv-x="1399" 
d="M74 0l251 1466h197l122 -950q24 -189 31 -359q51 149 167 401l422 908h201l-251 -1466h-158l125 713q44 248 125 554q-52 -143 -129 -308l-447 -959h-155l-121 940q-16 124 -24 301q-19 -187 -39 -306l-161 -935h-156z" />
    <glyph glyph-name="N" unicode="N" horiz-adv-x="1212" 
d="M81 0l251 1466h157l202 -550q90 -243 141 -407q36 -113 78 -287q23 189 56 382l148 862h156l-251 -1466h-159l-299 847q-79 226 -124 395q-11 -143 -47 -351l-153 -891h-156z" />
    <glyph glyph-name="O" unicode="O" horiz-adv-x="1307" 
d="M154 614q0 403 201 654q179 223 436 223q216 0 361.5 -174t145.5 -484q0 -249 -95 -451.5t-240 -304.5t-305 -102q-139 0 -250.5 74t-182.5 224t-71 341zM312 604q0 -213 106 -340t251 -127q110 0 216.5 81t179.5 254.5t73 378.5q0 222 -103.5 349.5t-250.5 127.5
q-170 0 -306 -167q-166 -205 -166 -557z" />
    <glyph glyph-name="P" unicode="P" horiz-adv-x="1120" 
d="M73 0l251 1466h503q130 0 193.5 -35.5t108 -122.5t44.5 -202q0 -149 -71.5 -281.5t-187 -181t-278.5 -48.5h-300l-102 -595h-161zM364 761h265q144 0 216 35.5t120.5 119.5t48.5 184q0 77 -25 123t-68 65t-155 19h-308z" />
    <glyph glyph-name="Q" unicode="Q" horiz-adv-x="1307" 
d="M1016 118q58 -86 164 -170l-71 -116q-112 89 -196 211q-112 -69 -251 -69q-215 0 -360.5 175.5t-145.5 488.5q0 248 93.5 451.5t235.5 302.5t308 99q217 0 362 -174t145 -484q0 -225 -78 -413t-206 -302zM917 244q95 88 159 252.5t64 345.5q0 230 -103 358t-250 128
q-111 0 -221.5 -83t-181 -249t-70.5 -376q0 -228 106 -355t258 -127q67 0 134 33q-76 84 -153 133l58 122q101 -52 200 -182z" />
    <glyph glyph-name="R" unicode="R" horiz-adv-x="1212" 
d="M79 0l251 1466h505q164 0 236.5 -35t107.5 -103q48 -92 48 -219q0 -191 -101.5 -303.5t-304.5 -146.5q67 -60 104 -125q72 -127 116 -258l92 -276h-180l-86 273q-49 157 -110 263q-39 69 -81.5 92t-137.5 23h-186l-112 -651h-161zM379 810h221q184 0 250 13.5t115.5 53
t78.5 100.5t29 135q0 67 -24.5 112.5t-61.5 63t-131 17.5h-393z" />
    <glyph glyph-name="S" unicode="S" horiz-adv-x="1120" 
d="M119 474l157 18l-1 -49q0 -98 40 -174q30 -58 101.5 -94.5t170.5 -36.5q137 0 217 72.5t80 180.5q0 76 -45 132q-46 55 -219 146q-134 71 -182 107q-87 65 -128.5 143.5t-41.5 179.5q0 176 112.5 284t308.5 108q135 0 231 -51t152.5 -149t56.5 -210l-1 -31l-156 -15l1 33
q0 71 -35.5 132t-101.5 94.5t-152 33.5q-123 0 -191.5 -60t-68.5 -158q0 -89 52 -137t256 -158q149 -81 202.5 -131.5t83 -121t29.5 -158.5q0 -184 -129 -306.5t-338 -122.5q-226 0 -343 120.5t-118 378.5z" />
    <glyph glyph-name="T" unicode="T" horiz-adv-x="1026" 
d="M381 0l223 1299h-395l29 167h946l-28 -167h-392l-222 -1299h-161z" />
    <glyph glyph-name="U" unicode="U" horiz-adv-x="1212" 
d="M333 1466h161l-155 -901q-19 -112 -19 -167q0 -113 75 -187t193 -74q156 0 254 128q75 98 126 394l138 807h160l-147 -860q-42 -249 -114 -377t-176.5 -191.5t-234.5 -63.5q-200 0 -316 115.5t-116 310.5q0 78 34 266z" />
    <glyph glyph-name="V" unicode="V" horiz-adv-x="1120" 
d="M439 0l-231 1466h155l139 -874q39 -238 50 -384q77 191 125 298l428 960h166l-660 -1466h-172z" />
    <glyph glyph-name="W" unicode="W" horiz-adv-x="1585" 
d="M284 0l-74 1466h163l28 -725q10 -238 10 -375l-1 -96l144 352l366 844h166l40 -857q7 -157 9 -354q15 50 50 147q61 166 91 238l343 826h163l-611 -1466h-172l-41 888q-5 116 -9 280q-52 -144 -83 -216l-416 -952h-166z" />
    <glyph glyph-name="X" unicode="X" horiz-adv-x="1120" 
d="M-53 0l574 741l-340 725h177l155 -332q80 -171 117 -270q62 101 188 263l264 339h209l-580 -757l329 -709h-175l-195 429q-27 59 -66 162q-44 -72 -108 -155l-336 -436h-213z" />
    <glyph glyph-name="Y" unicode="Y" horiz-adv-x="1120" 
d="M470 0l97 567l-370 899h172l178 -428q56 -136 113 -300q60 136 165 297l282 431h192l-574 -914l-94 -552h-161z" />
    <glyph glyph-name="Z" unicode="Z" horiz-adv-x="1026" 
d="M41 0l15 147l728 1063q38 56 72 101q-76 -12 -120 -12h-525l29 167h829l-14 -153l-645 -935l-151 -217q39 6 81 6h621l-29 -167h-891z" />
    <glyph glyph-name="bracketleft" unicode="[" horiz-adv-x="467" 
d="M11 -401l316 1867h330l-23 -139h-181l-272 -1589h181l-23 -139h-328z" />
    <glyph glyph-name="backslash" unicode="\" horiz-adv-x="467" 
d="M344 -24l-201 1515h115l201 -1515h-115z" />
    <glyph glyph-name="bracketright" unicode="]" horiz-adv-x="467" 
d="M230 -401h-328l24 139h181l272 1589h-180l24 139h330z" />
    <glyph glyph-name="asciicircum" unicode="^" horiz-adv-x="788" 
d="M196 690h-151l290 801h119l290 -801h-148l-203 597z" />
    <glyph glyph-name="underscore" unicode="_" 
d="M-12 -154h955v-102h-955v102z" />
    <glyph glyph-name="grave" unicode="`" horiz-adv-x="559" 
d="M405 1191l-160 275h180l96 -275h-116z" />
    <glyph glyph-name="a" unicode="a" 
d="M643 132q-82 -86 -154 -121t-146 -35q-116 0 -192.5 83t-76.5 226q0 102 44 178t123.5 116.5t227.5 47.5q125 7 171.5 15t79.5 24q18 76 18 124q0 67 -48.5 107.5t-140.5 40.5q-185 0 -240 -194l-150 16q95 326 399 326q150 0 238 -78.5t88 -197.5q0 -84 -20 -197
l-48 -264q-23 -126 -23 -204q0 -55 17 -145h-149q-13 50 -18 132zM698 538q-55 -26 -186 -40q-134 -14 -184 -36t-78 -67t-28 -104q0 -81 45 -128t120 -47q71 0 137 44t107.5 127t66.5 251z" />
    <glyph glyph-name="b" unicode="b" 
d="M56 0l251 1466h149l-90 -524q72 81 129.5 112.5t116.5 31.5q121 0 204 -108.5t83 -324.5q0 -199 -67 -360.5t-165 -239t-193 -77.5q-179 0 -253 225l-35 -201h-130zM276 436l-1 -38q0 -135 54.5 -204.5t134.5 -69.5q64 0 126 52.5t112.5 194t50.5 277.5
q0 145 -53.5 218.5t-134.5 73.5q-72 0 -140 -71t-115 -234q-34 -120 -34 -199z" />
    <glyph glyph-name="c" unicode="c" horiz-adv-x="840" 
d="M656 387l149 -19q-56 -199 -160 -295.5t-232 -96.5q-138 0 -228.5 109t-90.5 316q0 203 66.5 369t168 241t225.5 75q134 0 219 -94t84 -258l-146 -12q0 104 -48.5 159.5t-119.5 55.5q-79 0 -142.5 -52.5t-110 -194t-46.5 -313.5q0 -128 50.5 -194.5t120.5 -66.5
q72 0 138 67t103 204z" />
    <glyph glyph-name="d" unicode="d" 
d="M642 154q-126 -178 -266 -178q-120 0 -204 109t-84 327q0 195 67 357.5t165 239.5t195 77q161 0 243 -191l98 571h148l-251 -1466h-137zM236 445l-1 -43q0 -132 61 -216q47 -65 124 -65q100 0 183 128q109 171 109 420q0 128 -56 198t-133 70q-75 0 -141 -67t-106 -201
t-40 -224z" />
    <glyph glyph-name="e" unicode="e" 
d="M695 361l145 -18q-36 -155 -167 -270q-109 -97 -243 -97q-95 0 -173 51.5t-124 154t-46 244.5q0 187 70.5 349t172.5 236.5t221 74.5q151 0 246.5 -115t95.5 -325q0 -78 -11 -160h-642q-3 -32 -3 -57q0 -150 57 -227.5t137 -77.5q76 0 149.5 61t114.5 176zM264 624h489
v37q0 142 -56 213t-143 71q-94 0 -172.5 -80t-117.5 -241z" />
    <glyph glyph-name="f" unicode="f" horiz-adv-x="467" 
d="M77 0l158 922h-133l24 140h133l26 151q27 157 66 207q56 71 172 71q55 0 163 -29l-27 -158q-76 24 -126 24q-44 0 -66.5 -27t-39.5 -125l-20 -114h166l-24 -140h-166l-157 -922h-149z" />
    <glyph glyph-name="g" unicode="g" 
d="M48 -96l150 -17v-24q0 -69 39 -104t122 -35q129 0 189 79q42 58 76 254l15 86q-116 -143 -246 -143q-129 0 -219.5 116.5t-90.5 337.5q0 174 69.5 327.5t168 229t198.5 75.5q171 0 264 -198l30 174h135l-175 -1025q-40 -232 -121 -334q-102 -128 -277 -128
q-166 0 -248.5 73.5t-82.5 201.5q0 24 4 54zM233 470q0 -119 25.5 -186t70 -101.5t94.5 -34.5q67 0 136 55.5t119 185t50 265.5q0 134 -60.5 210t-145.5 76q-69 0 -136.5 -61.5t-110 -188t-42.5 -220.5z" />
    <glyph glyph-name="h" unicode="h" 
d="M56 0l251 1466h149l-97 -563q87 103 158.5 143t143.5 40q103 0 165 -67t62 -184q0 -58 -26 -208l-107 -627h-149l111 643q24 139 24 176q0 54 -31.5 86t-83.5 32q-77 0 -148 -47t-115 -136.5t-80 -297.5l-79 -456h-148z" />
    <glyph glyph-name="i" unicode="i" horiz-adv-x="373" 
d="M266 1261l35 205h148l-35 -205h-148zM50 0l182 1062h148l-182 -1062h-148z" />
    <glyph glyph-name="j" unicode="j" horiz-adv-x="373" 
d="M266 1261l35 205h147l-36 -205h-146zM-204 -399l26 154q51 -17 91 -17q48 0 76 40t58 212l183 1072h149l-190 -1105q-36 -210 -83 -285q-61 -97 -169 -97q-58 0 -141 26z" />
    <glyph glyph-name="k" unicode="k" horiz-adv-x="840" 
d="M57 0l251 1466h149l-156 -909l432 505h197l-372 -396l224 -666h-162l-173 545l-181 -190l-61 -355h-148z" />
    <glyph glyph-name="l" unicode="l" horiz-adv-x="373" 
d="M44 0l251 1466h149l-251 -1466h-149z" />
    <glyph glyph-name="m" unicode="m" horiz-adv-x="1399" 
d="M54 0l182 1062h148l-30 -175q86 118 151 158.5t138 40.5q80 0 135 -51t73 -148q66 100 140 149.5t155 49.5q103 0 160.5 -61t57.5 -177q0 -51 -20 -164l-117 -684h-148l120 702q15 86 15 124q0 54 -28 82.5t-75 28.5q-62 0 -130 -45.5t-108.5 -125t-70.5 -251.5l-88 -515
h-149l123 717q13 73 13 105q0 53 -27.5 84t-68.5 31q-99 0 -187.5 -100.5t-128.5 -334.5l-87 -502h-148z" />
    <glyph glyph-name="n" unicode="n" 
d="M56 0l182 1062h134l-31 -185q94 118 171 163.5t149 45.5q101 0 163.5 -68t62.5 -193q0 -56 -22 -182l-110 -643h-149l116 673q17 99 17 146q0 55 -31.5 86.5t-85.5 31.5q-112 0 -201.5 -99t-131.5 -344l-85 -494h-148z" />
    <glyph glyph-name="o" unicode="o" 
d="M82 403q0 287 129 485t346 198q152 0 251 -116.5t99 -331.5q0 -197 -67.5 -352t-175 -232.5t-225.5 -77.5q-155 0 -256 114.5t-101 312.5zM231 421q0 -151 60 -228t150 -77q71 0 142 57.5t124 190.5t53 273q0 152 -60 230.5t-148 78.5q-77 0 -149.5 -57t-122 -188.5
t-49.5 -279.5z" />
    <glyph glyph-name="p" unicode="p" 
d="M-17 -407l252 1469h137l-26 -148q79 100 139 136t126 36q121 0 204.5 -109t83.5 -319q0 -198 -67.5 -361t-178.5 -252q-86 -69 -180 -69q-157 0 -243 194l-99 -577h-148zM275 399q0 -134 54.5 -204.5t136.5 -70.5q65 0 114 43q70 62 121 204.5t51 287.5
q0 136 -54.5 208.5t-132.5 72.5q-62 0 -126 -55.5t-114 -195.5t-50 -290z" />
    <glyph glyph-name="q" unicode="q" 
d="M619 120q-127 -144 -239 -144q-122 0 -207.5 110t-85.5 324q0 200 66 361t164 238t200 77q78 0 144 -54t106 -165l33 195h129l-252 -1469h-148zM234 432q0 -159 54 -233.5t132 -74.5q60 0 115 49q77 67 127 204.5t50 282.5q0 131 -56 204t-132 73q-68 0 -119 -43
q-68 -58 -119.5 -195t-51.5 -267z" />
    <glyph glyph-name="r" unicode="r" horiz-adv-x="559" 
d="M56 0l182 1062h131l-37 -217q131 241 263 241q45 0 110 -39l-61 -168q-39 34 -82 34q-82 0 -163.5 -107.5t-127.5 -379.5l-74 -426h-141z" />
    <glyph glyph-name="s" unicode="s" horiz-adv-x="840" 
d="M64 363l149 11q-1 -130 57 -194t158 -64q91 0 144 45.5t53 116.5q0 51 -33 92q-34 41 -147 100q-130 68 -171.5 104.5t-64.5 89t-23 117.5q0 133 86 219t226 86q155 0 245 -88.5t94 -247.5l-146 -12q-3 100 -57.5 154t-146.5 54q-72 0 -117 -40.5t-45 -93.5q0 -46 27 -79
q27 -34 137 -91q169 -89 215 -142q70 -83 70 -202q0 -132 -93.5 -227t-259.5 -95q-167 0 -262 96t-95 271v20z" />
    <glyph glyph-name="t" unicode="t" horiz-adv-x="467" 
d="M403 147l-26 -148q-53 -17 -103 -17q-83 0 -131.5 44t-48.5 118q0 35 22 161l105 617h-117l24 140h117l45 261l170 125l-66 -386h145l-24 -140h-145l-101 -587q-19 -113 -19 -133q0 -35 16 -51t49 -16q49 0 88 12z" />
    <glyph glyph-name="u" unicode="u" 
d="M650 192q-157 -216 -321 -216q-95 0 -159.5 68t-64.5 175q0 68 28 230l105 613h148l-116 -679q-15 -85 -15 -131q0 -63 31 -95.5t87 -32.5q79 0 157.5 63.5t115 159t63.5 256.5l79 459h148l-182 -1062h-137z" />
    <glyph glyph-name="v" unicode="v" horiz-adv-x="840" 
d="M275 0l-143 1062h144l75 -585q12 -100 30 -313q43 114 110 259l290 639h157l-498 -1062h-165z" />
    <glyph glyph-name="w" unicode="w" horiz-adv-x="1212" 
d="M221 0l-91 1062h142l40 -477q14 -173 20 -389q40 159 97 312l207 554h162l29 -531q6 -113 8 -323q41 135 133 372l187 482h149l-426 -1062h-154l-32 623q-4 65 -5 226q-34 -108 -80 -231l-230 -618h-156z" />
    <glyph glyph-name="x" unicode="x" horiz-adv-x="840" 
d="M-3 0l379 539l-217 523h164l73 -189q42 -107 74 -203l251 392h182l-366 -537l219 -525h-164l-86 216q-29 73 -64 171l-259 -387h-186z" />
    <glyph glyph-name="y" unicode="y" horiz-adv-x="840" 
d="M0 -410l9 170q46 -16 89 -16q45 0 72 24q38 34 80 125l47 104l-145 1065h146l66 -537q20 -161 34 -318l389 855h155l-555 -1203q-83 -182 -146.5 -236t-139.5 -54q-52 0 -101 21z" />
    <glyph glyph-name="z" unicode="z" horiz-adv-x="840" 
d="M33 0l24 140l468 643q50 68 112 141q-106 -13 -153 -13h-323l26 151h673l-19 -114l-473 -647q-40 -55 -119 -151q123 9 169 9h343l-27 -159h-701z" />
    <glyph glyph-name="braceleft" unicode="{" horiz-adv-x="561" 
d="M142 612q56 1 101.5 35t74.5 100.5t62 251.5q33 182 50 242q28 97 78 161q37 48 88.5 68.5t129.5 20.5h46l-28 -157h-26q-67 0 -96.5 -18.5t-47.5 -60.5t-46 -200q-37 -213 -68 -298t-75 -135.5t-121 -91.5q116 -65 116 -228q0 -91 -50 -369q-13 -73 -13 -117
q0 -49 24.5 -69.5t93.5 -20.5h25l-27 -157h-46q-84 0 -123 20.5t-63 66.5t-24 113q0 75 37 292q29 164 29 222q0 78 -39 127q-30 37 -91 39z" />
    <glyph glyph-name="bar" unicode="|" horiz-adv-x="436" 
d="M155 -431v1922h129v-1922h-129z" />
    <glyph glyph-name="braceright" unicode="}" horiz-adv-x="561" 
d="M519 612l-29 -163q-56 -2 -102 -36t-74.5 -100.5t-61.5 -251.5q-33 -180 -51 -243q-28 -97 -78 -161q-37 -47 -88 -67.5t-129 -20.5h-46l28 157h25q67 0 97 18.5t48 60.5t45 201q38 213 69.5 299t79.5 139.5t116 85.5q-63 41 -89.5 93t-26.5 136q0 89 36 296
q26 146 26 189q0 49 -24.5 69.5t-92.5 20.5h-26l28 157h46q84 0 123 -20t62.5 -66t23.5 -114q0 -77 -37 -292q-28 -162 -28 -221q0 -79 39 -128q29 -36 91 -38z" />
    <glyph glyph-name="asciitilde" unicode="~" horiz-adv-x="981" 
d="M72 557v205q87 120 228 120q46 0 100.5 -17t156.5 -70q91 -47 142 -47q49 0 95 28q65 41 117 109v-212q-102 -114 -227 -114q-48 0 -92 13t-133 62q-108 59 -173 59q-50 0 -97 -27t-117 -109z" />
    <glyph glyph-name="Adieresis" unicode="&#xc4;" horiz-adv-x="1120" 
d="M-33 0l681 1466h190l198 -1466h-156l-58 422h-486l-193 -422h-176zM405 573h397l-46 368q-27 218 -34 365q-40 -126 -119 -299zM536 1598l35 205h155l-35 -205h-155zM838 1598l36 205h154l-35 -205h-155z" />
    <glyph glyph-name="Aring" unicode="&#xc5;" horiz-adv-x="1120" 
d="M-33 0l681 1466h190l198 -1466h-156l-58 422h-486l-193 -422h-176zM405 573h397l-46 368q-27 218 -34 365q-40 -126 -119 -299zM610 1691q0 78 45 130t104 52q60 0 105 -52t45 -130q0 -79 -45.5 -130.5t-104.5 -51.5t-104 51.5t-45 130.5zM671 1691q0 -46 26.5 -77
t61.5 -31t61.5 30.5t26.5 77.5q0 46 -26 76.5t-62 30.5q-35 0 -61.5 -30.5t-26.5 -76.5z" />
    <glyph glyph-name="Ccedilla" unicode="&#xc7;" horiz-adv-x="1212" 
d="M1012 516l159 -27q-76 -258 -222.5 -386t-320.5 -128q-213 0 -344.5 159t-131.5 470q0 363 165 614q179 273 463 273q182 0 304.5 -121t141.5 -340l-150 -17q-47 316 -290 316q-212 0 -343 -216.5t-131 -512.5q0 -230 93 -346.5t235 -116.5q122 0 214 88q113 108 158 291
zM513 -155l33 161h115l-20 -90q69 -12 108.5 -58.5t39.5 -111.5q0 -79 -67 -128t-213 -49q-80 0 -140 12l18 112q50 -3 119 -3q78 0 109 20t31 52q0 35 -32.5 58.5t-100.5 24.5z" />
    <glyph glyph-name="Eacute" unicode="&#xc9;" horiz-adv-x="1120" 
d="M76 0l251 1466h868l-28 -167h-708l-78 -456h688l-28 -167h-688l-88 -510h757l-29 -166h-917zM625 1562l154 275h187l-218 -275h-123z" />
    <glyph glyph-name="Ntilde" unicode="&#xd1;" horiz-adv-x="1212" 
d="M81 0l251 1466h157l202 -550q90 -243 141 -407q36 -113 78 -287q23 189 56 382l148 862h156l-251 -1466h-159l-299 847q-79 226 -124 395q-11 -143 -47 -351l-153 -891h-156zM541 1594q27 132 66.5 178t99.5 46q27 0 52.5 -8t86.5 -40q68 -37 91 -37q43 0 59 79h99
q-9 -105 -55.5 -162t-105.5 -57q-33 0 -83 26q-113 60 -140 60q-54 0 -67 -85h-103z" />
    <glyph glyph-name="Odieresis" unicode="&#xd6;" horiz-adv-x="1307" 
d="M154 614q0 403 201 654q179 223 436 223q216 0 361.5 -174t145.5 -484q0 -249 -95 -451.5t-240 -304.5t-305 -102q-139 0 -250.5 74t-182.5 224t-71 341zM312 604q0 -213 106 -340t251 -127q110 0 216.5 81t179.5 254.5t73 378.5q0 222 -103.5 349.5t-250.5 127.5
q-170 0 -306 -167q-166 -205 -166 -557zM632 1598l35 205h155l-35 -205h-155zM934 1598l36 205h154l-35 -205h-155z" />
    <glyph glyph-name="Udieresis" unicode="&#xdc;" horiz-adv-x="1212" 
d="M333 1466h161l-155 -901q-19 -112 -19 -167q0 -113 75 -187t193 -74q156 0 254 128q75 98 126 394l138 807h160l-147 -860q-42 -249 -114 -377t-176.5 -191.5t-234.5 -63.5q-200 0 -316 115.5t-116 310.5q0 78 34 266zM578 1598l35 205h155l-35 -205h-155zM880 1598
l36 205h154l-35 -205h-155z" />
    <glyph glyph-name="aacute" unicode="&#xe1;" 
d="M643 132q-82 -86 -154 -121t-146 -35q-116 0 -192.5 83t-76.5 226q0 102 44 178t123.5 116.5t227.5 47.5q125 7 171.5 15t79.5 24q18 76 18 124q0 67 -48.5 107.5t-140.5 40.5q-185 0 -240 -194l-150 16q95 326 399 326q150 0 238 -78.5t88 -197.5q0 -84 -20 -197
l-48 -264q-23 -126 -23 -204q0 -55 17 -145h-149q-13 50 -18 132zM698 538q-55 -26 -186 -40q-134 -14 -184 -36t-78 -67t-28 -104q0 -81 45 -128t120 -47q71 0 137 44t107.5 127t66.5 251zM455 1191l154 275h187l-218 -275h-123z" />
    <glyph glyph-name="agrave" unicode="&#xe0;" 
d="M643 132q-82 -86 -154 -121t-146 -35q-116 0 -192.5 83t-76.5 226q0 102 44 178t123.5 116.5t227.5 47.5q125 7 171.5 15t79.5 24q18 76 18 124q0 67 -48.5 107.5t-140.5 40.5q-185 0 -240 -194l-150 16q95 326 399 326q150 0 238 -78.5t88 -197.5q0 -84 -20 -197
l-48 -264q-23 -126 -23 -204q0 -55 17 -145h-149q-13 50 -18 132zM698 538q-55 -26 -186 -40q-134 -14 -184 -36t-78 -67t-28 -104q0 -81 45 -128t120 -47q71 0 137 44t107.5 127t66.5 251zM628 1191l-160 275h180l96 -275h-116z" />
    <glyph glyph-name="acircumflex" unicode="&#xe2;" 
d="M643 132q-82 -86 -154 -121t-146 -35q-116 0 -192.5 83t-76.5 226q0 102 44 178t123.5 116.5t227.5 47.5q125 7 171.5 15t79.5 24q18 76 18 124q0 67 -48.5 107.5t-140.5 40.5q-185 0 -240 -194l-150 16q95 326 399 326q150 0 238 -78.5t88 -197.5q0 -84 -20 -197
l-48 -264q-23 -126 -23 -204q0 -55 17 -145h-149q-13 50 -18 132zM698 538q-55 -26 -186 -40q-134 -14 -184 -36t-78 -67t-28 -104q0 -81 45 -128t120 -47q71 0 137 44t107.5 127t66.5 251zM355 1191l217 275h164l102 -275h-130l-65 178l-136 -178h-152z" />
    <glyph glyph-name="adieresis" unicode="&#xe4;" 
d="M643 132q-82 -86 -154 -121t-146 -35q-116 0 -192.5 83t-76.5 226q0 102 44 178t123.5 116.5t227.5 47.5q125 7 171.5 15t79.5 24q18 76 18 124q0 67 -48.5 107.5t-140.5 40.5q-185 0 -240 -194l-150 16q95 326 399 326q150 0 238 -78.5t88 -197.5q0 -84 -20 -197
l-48 -264q-23 -126 -23 -204q0 -55 17 -145h-149q-13 50 -18 132zM698 538q-55 -26 -186 -40q-134 -14 -184 -36t-78 -67t-28 -104q0 -81 45 -128t120 -47q71 0 137 44t107.5 127t66.5 251zM366 1227l35 205h155l-35 -205h-155zM668 1227l36 205h154l-35 -205h-155z" />
    <glyph glyph-name="atilde" unicode="&#xe3;" 
d="M643 132q-82 -86 -154 -121t-146 -35q-116 0 -192.5 83t-76.5 226q0 102 44 178t123.5 116.5t227.5 47.5q125 7 171.5 15t79.5 24q18 76 18 124q0 67 -48.5 107.5t-140.5 40.5q-185 0 -240 -194l-150 16q95 326 399 326q150 0 238 -78.5t88 -197.5q0 -84 -20 -197
l-48 -264q-23 -126 -23 -204q0 -55 17 -145h-149q-13 50 -18 132zM698 538q-55 -26 -186 -40q-134 -14 -184 -36t-78 -67t-28 -104q0 -81 45 -128t120 -47q71 0 137 44t107.5 127t66.5 251zM354 1222q27 132 66.5 178t99.5 46q27 0 52.5 -8t86.5 -40q68 -37 91 -37
q43 0 59 79h99q-9 -105 -55.5 -162t-105.5 -57q-33 0 -83 26q-113 60 -140 60q-54 0 -67 -85h-103z" />
    <glyph glyph-name="aring" unicode="&#xe5;" 
d="M643 132q-82 -86 -154 -121t-146 -35q-116 0 -192.5 83t-76.5 226q0 102 44 178t123.5 116.5t227.5 47.5q125 7 171.5 15t79.5 24q18 76 18 124q0 67 -48.5 107.5t-140.5 40.5q-185 0 -240 -194l-150 16q95 326 399 326q150 0 238 -78.5t88 -197.5q0 -84 -20 -197
l-48 -264q-23 -126 -23 -204q0 -55 17 -145h-149q-13 50 -18 132zM698 538q-55 -26 -186 -40q-134 -14 -184 -36t-78 -67t-28 -104q0 -81 45 -128t120 -47q71 0 137 44t107.5 127t66.5 251zM468 1320q0 78 45 130t104 52q60 0 105 -52t45 -130q0 -79 -45.5 -130.5
t-104.5 -51.5t-104 51.5t-45 130.5zM529 1320q0 -46 26.5 -77t61.5 -31t61.5 30.5t26.5 77.5q0 46 -26 76.5t-62 30.5q-35 0 -61.5 -30.5t-26.5 -76.5z" />
    <glyph glyph-name="ccedilla" unicode="&#xe7;" horiz-adv-x="840" 
d="M656 387l149 -19q-56 -199 -160 -295.5t-232 -96.5q-138 0 -228.5 109t-90.5 316q0 203 66.5 369t168 241t225.5 75q134 0 219 -94t84 -258l-146 -12q0 104 -48.5 159.5t-119.5 55.5q-79 0 -142.5 -52.5t-110 -194t-46.5 -313.5q0 -128 50.5 -194.5t120.5 -66.5
q72 0 138 67t103 204zM313 -149l33 161h115l-20 -90q69 -12 108.5 -58.5t39.5 -111.5q0 -79 -67 -128t-213 -49q-80 0 -140 12l18 112q50 -3 119 -3q78 0 109 20t31 52q0 35 -32.5 58.5t-100.5 24.5z" />
    <glyph glyph-name="eacute" unicode="&#xe9;" 
d="M695 361l145 -18q-36 -155 -167 -270q-109 -97 -243 -97q-95 0 -173 51.5t-124 154t-46 244.5q0 187 70.5 349t172.5 236.5t221 74.5q151 0 246.5 -115t95.5 -325q0 -78 -11 -160h-642q-3 -32 -3 -57q0 -150 57 -227.5t137 -77.5q76 0 149.5 61t114.5 176zM264 624h489
v37q0 142 -56 213t-143 71q-94 0 -172.5 -80t-117.5 -241zM436 1191l154 275h187l-218 -275h-123z" />
    <glyph glyph-name="egrave" unicode="&#xe8;" 
d="M695 361l145 -18q-36 -155 -167 -270q-109 -97 -243 -97q-95 0 -173 51.5t-124 154t-46 244.5q0 187 70.5 349t172.5 236.5t221 74.5q151 0 246.5 -115t95.5 -325q0 -78 -11 -160h-642q-3 -32 -3 -57q0 -150 57 -227.5t137 -77.5q76 0 149.5 61t114.5 176zM264 624h489
v37q0 142 -56 213t-143 71q-94 0 -172.5 -80t-117.5 -241zM628 1191l-160 275h180l96 -275h-116z" />
    <glyph glyph-name="ecircumflex" unicode="&#xea;" 
d="M695 361l145 -18q-36 -155 -167 -270q-109 -97 -243 -97q-95 0 -173 51.5t-124 154t-46 244.5q0 187 70.5 349t172.5 236.5t221 74.5q151 0 246.5 -115t95.5 -325q0 -78 -11 -160h-642q-3 -32 -3 -57q0 -150 57 -227.5t137 -77.5q76 0 149.5 61t114.5 176zM264 624h489
v37q0 142 -56 213t-143 71q-94 0 -172.5 -80t-117.5 -241zM365 1191l217 275h164l102 -275h-130l-65 178l-136 -178h-152z" />
    <glyph glyph-name="edieresis" unicode="&#xeb;" 
d="M695 361l145 -18q-36 -155 -167 -270q-109 -97 -243 -97q-95 0 -173 51.5t-124 154t-46 244.5q0 187 70.5 349t172.5 236.5t221 74.5q151 0 246.5 -115t95.5 -325q0 -78 -11 -160h-642q-3 -32 -3 -57q0 -150 57 -227.5t137 -77.5q76 0 149.5 61t114.5 176zM264 624h489
v37q0 142 -56 213t-143 71q-94 0 -172.5 -80t-117.5 -241zM367 1227l35 205h155l-35 -205h-155zM669 1227l36 205h154l-35 -205h-155z" />
    <glyph glyph-name="iacute" unicode="&#xed;" horiz-adv-x="467" 
d="M103 0l182 1062h148l-182 -1062h-148zM213 1191l154 275h187l-218 -275h-123z" />
    <glyph glyph-name="igrave" unicode="&#xec;" horiz-adv-x="467" 
d="M103 0l182 1062h148l-182 -1062h-148zM405 1191l-160 275h180l96 -275h-116z" />
    <glyph glyph-name="icircumflex" unicode="&#xee;" horiz-adv-x="467" 
d="M103 0l182 1062h148l-182 -1062h-148zM142 1191l217 275h164l102 -275h-130l-65 178l-136 -178h-152z" />
    <glyph glyph-name="idieresis" unicode="&#xef;" horiz-adv-x="467" 
d="M103 0l182 1062h148l-182 -1062h-148zM143 1227l35 205h155l-35 -205h-155zM445 1227l36 205h154l-35 -205h-155z" />
    <glyph glyph-name="ntilde" unicode="&#xf1;" 
d="M56 0l182 1062h134l-31 -185q94 118 171 163.5t149 45.5q101 0 163.5 -68t62.5 -193q0 -56 -22 -182l-110 -643h-149l116 673q17 99 17 146q0 55 -31.5 86.5t-85.5 31.5q-112 0 -201.5 -99t-131.5 -344l-85 -494h-148zM340 1222q27 132 66.5 178t99.5 46q27 0 52.5 -8
t86.5 -40q68 -37 91 -37q43 0 59 79h99q-9 -105 -55.5 -162t-105.5 -57q-33 0 -83 26q-113 60 -140 60q-54 0 -67 -85h-103z" />
    <glyph glyph-name="oacute" unicode="&#xf3;" 
d="M82 403q0 287 129 485t346 198q152 0 251 -116.5t99 -331.5q0 -197 -67.5 -352t-175 -232.5t-225.5 -77.5q-155 0 -256 114.5t-101 312.5zM231 421q0 -151 60 -228t150 -77q71 0 142 57.5t124 190.5t53 273q0 152 -60 230.5t-148 78.5q-77 0 -149.5 -57t-122 -188.5
t-49.5 -279.5zM439 1191l154 275h187l-218 -275h-123z" />
    <glyph glyph-name="ograve" unicode="&#xf2;" 
d="M82 403q0 287 129 485t346 198q152 0 251 -116.5t99 -331.5q0 -197 -67.5 -352t-175 -232.5t-225.5 -77.5q-155 0 -256 114.5t-101 312.5zM231 421q0 -151 60 -228t150 -77q71 0 142 57.5t124 190.5t53 273q0 152 -60 230.5t-148 78.5q-77 0 -149.5 -57t-122 -188.5
t-49.5 -279.5zM622 1191l-160 275h180l96 -275h-116z" />
    <glyph glyph-name="ocircumflex" unicode="&#xf4;" 
d="M82 403q0 287 129 485t346 198q152 0 251 -116.5t99 -331.5q0 -197 -67.5 -352t-175 -232.5t-225.5 -77.5q-155 0 -256 114.5t-101 312.5zM231 421q0 -151 60 -228t150 -77q71 0 142 57.5t124 190.5t53 273q0 152 -60 230.5t-148 78.5q-77 0 -149.5 -57t-122 -188.5
t-49.5 -279.5zM338 1191l217 275h164l102 -275h-130l-65 178l-136 -178h-152z" />
    <glyph glyph-name="odieresis" unicode="&#xf6;" 
d="M82 403q0 287 129 485t346 198q152 0 251 -116.5t99 -331.5q0 -197 -67.5 -352t-175 -232.5t-225.5 -77.5q-155 0 -256 114.5t-101 312.5zM231 421q0 -151 60 -228t150 -77q71 0 142 57.5t124 190.5t53 273q0 152 -60 230.5t-148 78.5q-77 0 -149.5 -57t-122 -188.5
t-49.5 -279.5zM350 1227l35 205h155l-35 -205h-155zM652 1227l36 205h154l-35 -205h-155z" />
    <glyph glyph-name="otilde" unicode="&#xf5;" 
d="M82 403q0 287 129 485t346 198q152 0 251 -116.5t99 -331.5q0 -197 -67.5 -352t-175 -232.5t-225.5 -77.5q-155 0 -256 114.5t-101 312.5zM231 421q0 -151 60 -228t150 -77q71 0 142 57.5t124 190.5t53 273q0 152 -60 230.5t-148 78.5q-77 0 -149.5 -57t-122 -188.5
t-49.5 -279.5zM318 1222q27 132 66.5 178t99.5 46q27 0 52.5 -8t86.5 -40q68 -37 91 -37q43 0 59 79h99q-9 -105 -55.5 -162t-105.5 -57q-33 0 -83 26q-113 60 -140 60q-54 0 -67 -85h-103z" />
    <glyph glyph-name="uacute" unicode="&#xfa;" 
d="M650 192q-157 -216 -321 -216q-95 0 -159.5 68t-64.5 175q0 68 28 230l105 613h148l-116 -679q-15 -85 -15 -131q0 -63 31 -95.5t87 -32.5q79 0 157.5 63.5t115 159t63.5 256.5l79 459h148l-182 -1062h-137zM480 1191l154 275h187l-218 -275h-123z" />
    <glyph glyph-name="ugrave" unicode="&#xf9;" 
d="M650 192q-157 -216 -321 -216q-95 0 -159.5 68t-64.5 175q0 68 28 230l105 613h148l-116 -679q-15 -85 -15 -131q0 -63 31 -95.5t87 -32.5q79 0 157.5 63.5t115 159t63.5 256.5l79 459h148l-182 -1062h-137zM605 1191l-160 275h180l96 -275h-116z" />
    <glyph glyph-name="ucircumflex" unicode="&#xfb;" 
d="M650 192q-157 -216 -321 -216q-95 0 -159.5 68t-64.5 175q0 68 28 230l105 613h148l-116 -679q-15 -85 -15 -131q0 -63 31 -95.5t87 -32.5q79 0 157.5 63.5t115 159t63.5 256.5l79 459h148l-182 -1062h-137zM350 1191l217 275h164l102 -275h-130l-65 178l-136 -178h-152z
" />
    <glyph glyph-name="udieresis" unicode="&#xfc;" 
d="M650 192q-157 -216 -321 -216q-95 0 -159.5 68t-64.5 175q0 68 28 230l105 613h148l-116 -679q-15 -85 -15 -131q0 -63 31 -95.5t87 -32.5q79 0 157.5 63.5t115 159t63.5 256.5l79 459h148l-182 -1062h-137zM371 1227l35 205h155l-35 -205h-155zM673 1227l36 205h154
l-35 -205h-155z" />
    <glyph glyph-name="dagger" unicode="&#x2020;" 
d="M271 -349l209 1218h-328l26 150h328l73 427h148l-73 -427h325l-25 -150h-326l-208 -1218h-149z" />
    <glyph glyph-name="degree" unicode="&#xb0;" horiz-adv-x="819" 
d="M273 1214q0 115 81.5 196t195.5 81q116 0 197 -81t81 -196t-81.5 -196.5t-196.5 -81.5q-114 0 -195.5 81t-81.5 197zM382 1214q0 -70 49.5 -119.5t119.5 -49.5q69 0 118.5 49.5t49.5 119.5t-49.5 119.5t-118.5 49.5q-70 0 -119.5 -49.5t-49.5 -119.5z" />
    <glyph glyph-name="cent" unicode="&#xa2;" 
d="M278 27q-151 107 -151 374q0 203 66.5 369t168 241t225.5 75q24 0 49 -4l138 404l87 -45l-132 -389q163 -87 161 -318l-146 -12q0 67 -16.5 107t-50.5 71l-264 -780q19 -4 35 -4q72 0 138 67t103 204l149 -19q-56 -199 -160 -295.5t-233 -96.5q-39 0 -77 10l-133 -393
l-89 47zM330 180l257 757h-13q-78 0 -140.5 -52.5t-102.5 -173.5q-54 -162 -54 -324q0 -139 53 -207z" />
    <glyph glyph-name="sterling" unicode="&#xa3;" 
d="M70 -25l-17 177q84 66 142 142.5t85 157.5t27 152q0 16 -3 47h-182l26 151h142q-15 136 -15 227q0 203 117.5 332.5t280.5 129.5q134 0 232 -96t116 -293l-136 -17q-13 131 -71.5 196t-143.5 65q-97 0 -170 -91.5t-73 -258.5q0 -69 16 -194h238l-26 -151h-206l1 -44
q0 -115 -43 -214.5t-131 -180.5q44 7 64 7q66 0 103.5 -7.5t100.5 -33.5q72 -29 118 -29q92 0 180 63l45 -163q-125 -74 -219 -74q-62 0 -152 45q-107 54 -190 54q-68 0 -124 -20.5t-132 -78.5z" />
    <glyph glyph-name="section" unicode="&#xa7;" 
d="M51 -90l136 42q21 -123 84 -185.5t143 -62.5q77 0 131 55.5t54 134.5q0 57 -33.5 110t-248.5 262q-107 105 -149 177t-42 166q0 106 51.5 188.5t181.5 162.5q-64 96 -64 201q0 149 88 239.5t233 90.5q137 0 215 -77.5t101 -261.5l-148 -21q-1 106 -50.5 160.5
t-128.5 54.5q-72 0 -121 -51t-49 -129q0 -55 34.5 -117.5t148.5 -175.5q189 -186 229.5 -256t40.5 -153q0 -97 -57.5 -186.5t-170.5 -155.5q82 -111 82 -228q0 -138 -93 -231.5t-235 -93.5q-138 0 -236 89t-127 252zM586 217q83 47 123.5 107t40.5 117q0 48 -20 83t-117 133
q-138 140 -194 216q-159 -110 -159 -245q0 -46 24.5 -92.5t123.5 -142.5z" />
    <glyph glyph-name="bullet" unicode="&#x2022;" horiz-adv-x="588" 
d="M89 718q0 109 62.5 181t145.5 72t145 -72t62 -181q0 -110 -62.5 -182t-144.5 -72q-83 0 -145.5 72.5t-62.5 181.5z" />
    <glyph glyph-name="paragraph" unicode="&#xb6;" horiz-adv-x="901" 
d="M337 -407v1045q-148 9 -240 117t-92 289q0 133 48 230t132.5 144.5t207.5 47.5h518v-173h-117v-1700h-140v1700h-182v-1700h-135z" />
    <glyph glyph-name="germandbls" unicode="&#xdf;" horiz-adv-x="1026" 
d="M61 0l177 1033q31 181 82.5 267.5t143 138.5t192.5 52q113 0 190 -71.5t77 -163.5q0 -50 -22 -110t-88 -164q-62 -97 -77.5 -135t-15.5 -70q0 -31 12.5 -57t78.5 -108q95 -118 118.5 -171t23.5 -118q0 -141 -98.5 -244.5t-226.5 -103.5q-174 0 -290 235l124 82
q43 -98 82.5 -133.5t81.5 -35.5q64 0 120.5 63t56.5 142q0 36 -15.5 66.5t-90.5 119.5q-89 107 -110 151.5t-21 91.5q0 46 25.5 109.5t107.5 188.5q76 116 76 181q0 49 -35.5 82.5t-91.5 33.5q-64 0 -128 -45.5t-96 -121.5q-19 -46 -41 -173l-174 -1012h-148z" />
    <glyph glyph-name="registered" unicode="&#xae;" horiz-adv-x="1237" 
d="M2 736q0 208 92.5 392.5t228 273.5t298.5 89q162 0 298 -89t228.5 -273.5t92.5 -392.5q0 -207 -92.5 -391.5t-228.5 -273.5t-298 -89q-163 0 -298.5 89t-228 273.5t-92.5 391.5zM106 736q0 -173 77 -327t190 -228.5t248 -74.5t248 74.5t190 228.5t77 327q0 174 -77 328
t-190 228.5t-248 74.5t-248 -74.5t-190 -228.5t-77 -328zM349 319v812h230q118 0 168 -22t83 -76.5t33 -123.5q0 -92 -54 -156t-136 -71q37 -19 59 -46q41 -52 96 -158l80 -159h-130l-60 128q-68 147 -110 187q-30 30 -87 30h-64v-345h-108zM457 776h131q88 0 124.5 31.5
t36.5 91.5q0 40 -18 69t-47.5 41t-104.5 12h-122v-245z" />
    <glyph glyph-name="copyright" unicode="&#xa9;" horiz-adv-x="1237" 
d="M2 736q0 208 92.5 392.5t228 273.5t298.5 89q162 0 298 -89t228.5 -273.5t92.5 -392.5q0 -207 -92.5 -391.5t-228.5 -273.5t-298 -89q-163 0 -298.5 89t-228 273.5t-92.5 391.5zM106 736q0 -173 77 -327t190 -228.5t248 -74.5t248 74.5t190 228.5t77 327q0 174 -77 328
t-190 228.5t-248 74.5t-248 -74.5t-190 -228.5t-77 -328zM819 614l101 -36q-25 -130 -106.5 -202t-191.5 -72q-140 0 -232.5 111.5t-92.5 317.5q0 208 91.5 317.5t237.5 109.5q106 0 180 -61.5t102 -174.5l-98 -29q-25 76 -73.5 114.5t-111.5 38.5q-92 0 -154 -81t-62 -238
q0 -153 59 -230.5t146 -77.5q74 0 130.5 50.5t74.5 142.5z" />
    <glyph glyph-name="trademark" unicode="&#x2122;" horiz-adv-x="1679" 
d="M402 651v694h-217v121h546v-121h-218v-694h-111zM806 651v815h164l169 -651l163 651h160v-815h-101v684l-173 -684h-100l-180 694v-694h-102z" />
    <glyph glyph-name="acute" unicode="&#xb4;" horiz-adv-x="559" 
d="M283 1191l154 275h187l-218 -275h-123z" />
    <glyph glyph-name="dieresis" unicode="&#xa8;" horiz-adv-x="559" 
d="M195 1227l35 205h155l-35 -205h-155zM497 1227l36 205h154l-35 -205h-155z" />
    <glyph glyph-name="notequal" unicode="&#x2260;" horiz-adv-x="1124" 
d="M495 417l-194 -445h-136l195 445h-282v168h356l122 277h-478v168h551l196 444h134l-195 -444h282v-168h-356l-121 -277h477v-168h-551z" />
    <glyph glyph-name="AE" unicode="&#xc6;" horiz-adv-x="1679" 
d="M-68 0l740 1466h1080l-28 -167h-620l-78 -456h627l-28 -166h-628l-87 -511h692l-29 -166h-861l72 418h-464l-205 -418h-183zM403 584h409l123 715h-173z" />
    <glyph glyph-name="Oslash" unicode="&#xd8;" horiz-adv-x="1307" 
d="M280 175q-127 184 -127 463q0 247 93.5 450t235.5 303t305 100q184 0 313 -117l131 192l73 -79l-133 -195q127 -177 127 -465q0 -243 -95.5 -446t-240 -304.5t-305.5 -101.5q-174 0 -304 117l-132 -195l-78 79zM379 320l625 914q-94 94 -215 94q-115 0 -225 -82
t-181.5 -248.5t-71.5 -372.5q0 -182 68 -305zM1071 1145l-623 -914q100 -94 221 -94q110 0 216 81t179.5 254.5t73.5 378.5q0 167 -67 294z" />
    <glyph glyph-name="infinity" unicode="&#x221e;" horiz-adv-x="1460" 
d="M689 812q105 132 164 174q80 58 169 58q105 0 196.5 -76t91.5 -245q0 -118 -34 -185.5t-106 -108.5t-148 -41q-89 0 -169 57q-59 43 -164 175q-136 -171 -289 -171q-101 0 -173.5 76.5t-72.5 190.5q0 113 72.5 190t173.5 77q153 0 289 -171zM758 717q87 -135 159 -185
q46 -33 103 -33q76 0 127.5 56t51.5 158q0 106 -52.5 162t-130.5 56q-49 0 -92 -28q-58 -39 -166 -186zM620 716q-80 100 -128 128.5t-92 28.5q-58 0 -96.5 -41t-38.5 -113q0 -71 40 -113.5t97 -42.5q101 0 218 153z" />
    <glyph glyph-name="plusminus" unicode="&#xb1;" horiz-adv-x="1124" 
d="M477 260v403h-399v167h399v399h170v-399h399v-167h-399v-403h-170zM1046 0h-968v168h968v-168z" />
    <glyph glyph-name="lessequal" unicode="&#x2264;" horiz-adv-x="1124" 
d="M77 762v168l971 410v-180l-770 -315l770 -319v-179zM1046 106h-968v167h968v-167z" />
    <glyph glyph-name="greaterequal" unicode="&#x2265;" horiz-adv-x="1124" 
d="M1048 762l-971 -415v179l769 319l-769 315v180l971 -410v-168zM1046 106h-968v167h968v-167z" />
    <glyph glyph-name="yen" unicode="&#xa5;" 
d="M341 0l56 327h-336l24 138h335l26 147h-336l23 138h282l-224 716h149l96 -315q91 -304 108 -379q33 93 106 214l286 480h184l-444 -716h274l-23 -138h-333l-25 -147h333l-24 -138h-333l-56 -327h-148z" />
    <glyph glyph-name="mu1" unicode="&#xb5;" horiz-adv-x="1180" 
d="M323 1062h179l-106 -499q-39 -182 -39 -255q0 -80 53 -130.5t145 -50.5q123 0 209 89q64 68 108 274l120 572h179l-226 -1062h-161l18 84q-136 -109 -266 -109q-74 0 -129.5 30t-108.5 95l-108 -510h-178z" />
    <glyph glyph-name="partialdiff" unicode="&#x2202;" horiz-adv-x="1012" 
d="M426 1138l-135 60q70 157 168 225t192 68q76 0 137.5 -39.5t92.5 -90.5q47 -79 69.5 -187t22.5 -248q0 -288 -86.5 -512.5t-233.5 -331.5t-289 -107q-137 0 -222.5 91t-85.5 256q0 226 153 387q197 207 649 215q-4 168 -24 256t-68 135.5t-113 47.5q-62 0 -121 -49.5
t-106 -175.5zM854 796q-244 -14 -357.5 -68t-187 -176.5t-73.5 -248.5q0 -83 51 -137t119 -54q75 0 160 55q117 76 190.5 234.5t97.5 394.5z" />
    <glyph glyph-name="summation" unicode="&#x2211;" horiz-adv-x="1460" 
d="M139 1491h1237v-164h-988l607 -775l-649 -822h1040v-161h-1264v187l620 788l-603 772v175z" />
    <glyph glyph-name="product" unicode="&#x220f;" horiz-adv-x="1686" 
d="M161 1491h1362v-1922h-191v1748h-978v-1748h-193v1922z" />
    <glyph glyph-name="pi1" horiz-adv-x="1124" 
d="M766 744h-248l-151 -517q-47 -159 -99 -215q-35 -36 -82 -36q-37 0 -58.5 20.5t-21.5 47.5q0 29 18 65q11 24 69 92q58 69 91 135q24 48 53 144l80 264h-50q-119 0 -172.5 -27.5t-86.5 -86.5h-36q36 119 125 185t230 66h638l-41 -137h-156l-131 -435q-17 -55 -17 -84
q0 -55 31 -88t75 -33q37 0 72 26t65 97h36q-31 -126 -71 -177q-60 -74 -142 -74q-71 0 -121 55.5t-50 152.5q0 58 29 153z" />
    <glyph glyph-name="integral" unicode="&#x222b;" horiz-adv-x="561" 
d="M201 948l17 531q9 153 50 254q27 65 74.5 97.5t92.5 32.5q50 0 87.5 -33.5t37.5 -73.5q0 -47 -26.5 -75.5t-65.5 -28.5q-35 0 -76 36q-23 20 -40 20t-28.5 -14.5t-11.5 -49.5q0 -42 9 -145q37 -410 37 -665q0 -67 -16 -588q-8 -295 -90 -399q-54 -67 -134 -67
q-52 0 -85 34t-33 87q0 45 25.5 72t64.5 27q40 0 69 -32t49 -32q17 0 28 14t11 47q0 42 -9 120q-37 315 -37 831z" />
    <glyph glyph-name="ordfeminine" unicode="&#xaa;" horiz-adv-x="621" 
d="M512 823q-33 -36 -87 -61.5t-103 -25.5q-82 0 -133.5 56.5t-51.5 147.5q0 110 63 169t217 70q86 6 143 22q11 45 11 66q0 45 -31 74t-81 29q-107 0 -151 -120l-115 23q80 218 268 218q106 0 166.5 -55.5t60.5 -143.5q0 -78 -45 -276q-24 -106 -24 -162q0 -58 16 -97h-113
q-5 22 -10 66zM537 1087q-46 -16 -111 -24q-105 -11 -138 -37q-34 -27 -34 -76q0 -41 26.5 -67.5t62.5 -26.5q66 0 119 55t75 176z" />
    <glyph glyph-name="ordmasculine" unicode="&#xba;" horiz-adv-x="612" 
d="M117 1068q0 148 85.5 285.5t230.5 137.5q111 0 184.5 -85t73.5 -228q0 -156 -83 -298t-226 -142q-128 0 -196.5 85t-68.5 245zM238 1073q0 -97 30 -143q39 -61 102 -61q44 0 89.5 35t78 113t32.5 163q0 82 -40 131t-97 49q-43 0 -86 -34t-76 -109t-33 -144z" />
    <glyph glyph-name="Ohm" unicode="&#x2126;" horiz-adv-x="1573" 
d="M496 160q-108 67 -165 130q-87 96 -134 225.5t-47 286.5q0 196 79.5 360.5t231 252.5t347.5 88q336 0 516 -254q131 -186 131 -448q0 -168 -54 -297.5t-141 -222.5q-53 -58 -149 -121l364 6v-166h-575v177q80 40 124 78q72 61 122 145t75.5 179t25.5 198
q0 138 -49.5 277.5t-150 212.5t-243.5 73q-191 0 -296 -120q-146 -169 -146 -440q0 -217 91 -372.5t251 -227.5v-180h-577v168z" />
    <glyph glyph-name="ae" unicode="&#xe6;" horiz-adv-x="1493" 
d="M1254 359l150 -17q-76 -195 -181.5 -280.5t-229.5 -85.5q-98 0 -180 58.5t-134 177.5q-63 -120 -150.5 -178.5t-181.5 -58.5q-126 0 -201 82t-75 228q0 118 58 205q44 65 120.5 92t239.5 43q138 14 197 36q19 71 19 123q0 78 -41 120t-116 42q-181 0 -245 -200l-147 15
q44 160 146.5 243t249.5 83q89 0 157 -36.5t115 -109.5q114 145 286 145q157 0 249.5 -124t92.5 -318q0 -58 -12 -159h-633q-3 -31 -3 -60q0 -152 54.5 -226.5t136.5 -74.5q73 0 141.5 57.5t117.5 177.5zM835 624h478l1 44q0 87 -26.5 151t-72.5 95.5t-99 31.5
q-82 0 -164 -85t-117 -237zM663 525q-88 -25 -212 -39q-102 -11 -143 -32t-63.5 -60.5t-22.5 -101.5q0 -80 44 -127.5t116 -47.5q98 0 166 85q87 109 115 323z" />
    <glyph glyph-name="oslash" unicode="&#xf8;" horiz-adv-x="1026" 
d="M808 1018l93 141l74 -72l-96 -147q77 -119 77 -302q0 -198 -67.5 -353t-175 -232t-226.5 -77q-109 0 -200 63l-93 -141l-74 69l95 144q-84 117 -84 299q0 275 127.5 475.5t347.5 200.5q116 0 202 -68zM727 894q-53 52 -126 52q-77 0 -149.5 -57t-122 -189t-49.5 -282
q0 -100 27 -166zM368 162q54 -46 121 -46q73 0 144 57.5t123.5 191t52.5 280.5q0 83 -24 152z" />
    <glyph glyph-name="questiondown" unicode="&#xbf;" horiz-adv-x="1026" 
d="M757 1062l-35 -205h-168l36 205h167zM684 695q-8 -94 -35.5 -167.5t-84.5 -148.5q-27 -37 -130 -139q-119 -117 -155.5 -187.5t-36.5 -135.5q0 -85 57 -143.5t137 -58.5q93 0 155.5 71.5t83.5 240.5l148 -30q-35 -217 -138 -321.5t-244 -104.5q-148 0 -247 101.5
t-99 257.5q0 115 64 218q47 74 199 223q105 103 138.5 163.5t47.5 160.5h140z" />
    <glyph glyph-name="exclamdown" unicode="&#xa1;" horiz-adv-x="559" 
d="M467 1062l-35 -205h-168l35 205h168zM373 692l-91 -796l-51 -300h-180l56 325l173 771h93z" />
    <glyph glyph-name="logicalnot" unicode="&#xac;" horiz-adv-x="981" 
d="M887 424h-140v438h-654v168h794v-606z" />
    <glyph glyph-name="radical" unicode="&#x221a;" horiz-adv-x="1124" 
d="M1050 1869h74l-312 -1947l-496 1021l-198 -91l-34 64l301 151l405 -823z" />
    <glyph glyph-name="florin" unicode="&#x192;" 
d="M38 -405l28 155q83 -22 125 -22q44 0 68 28t37 124l145 1042h-164l19 140h165l20 133q20 135 47.5 188.5t74 81t116.5 27.5q61 0 171 -38l-29 -153q-84 24 -125 24q-47 0 -70 -28t-38 -132l-16 -103h167l-20 -140h-168l-156 -1092q-22 -150 -72.5 -205.5t-141.5 -55.5
q-77 0 -183 26z" />
    <glyph glyph-name="approxequal" unicode="&#x2248;" horiz-adv-x="1124" 
d="M51 738v205q106 120 278 120q60 0 125.5 -17t188.5 -70q69 -30 103.5 -38.5t69.5 -8.5q65 0 134.5 39t123.5 98v-212q-64 -60 -129.5 -87t-147.5 -27q-60 0 -114 13.5t-173 66.5q-119 54 -198 54q-64 0 -120.5 -27.5t-140.5 -108.5zM51 376v205q106 120 278 120
q60 0 125.5 -17t188.5 -70q69 -29 103.5 -38t69.5 -9q65 0 134.5 39t123.5 98v-212q-64 -60 -129.5 -87t-147.5 -27q-60 0 -114 14t-173 67t-198 53q-64 0 -120.5 -27.5t-140.5 -108.5z" />
    <glyph glyph-name="Delta" unicode="&#x2206;" horiz-adv-x="1253" 
d="M1226 0h-1200l628 1387zM990 82l-399 967l-440 -967h839z" />
    <glyph glyph-name="guillemotleft" unicode="&#xab;" 
d="M287 527l130 -455h-112l-173 477l329 431h117zM611 527l128 -455h-120l-162 479l318 429h127z" />
    <glyph glyph-name="guillemotright" unicode="&#xbb;" 
d="M370 521l-121 459h118l157 -483l-321 -425h-134zM690 513l-122 467h112l169 -485l-334 -423h-118z" />
    <glyph glyph-name="ellipsis" unicode="&#x2026;" horiz-adv-x="1679" 
d="M241 0l35 205h168l-35 -205h-168zM802 0l36 205h167l-35 -205h-168zM1363 0l36 205h167l-35 -205h-168z" />
    <glyph glyph-name="Agrave" unicode="&#xc0;" horiz-adv-x="1120" 
d="M-33 0l681 1466h190l198 -1466h-156l-58 422h-486l-193 -422h-176zM405 573h397l-46 368q-27 218 -34 365q-40 -126 -119 -299zM746 1562l-160 275h180l96 -275h-116z" />
    <glyph glyph-name="Atilde" unicode="&#xc3;" horiz-adv-x="1120" 
d="M-33 0l681 1466h190l198 -1466h-156l-58 422h-486l-193 -422h-176zM405 573h397l-46 368q-27 218 -34 365q-40 -126 -119 -299zM499 1594q27 132 66.5 178t99.5 46q27 0 52.5 -8t86.5 -40q68 -37 91 -37q43 0 59 79h99q-9 -105 -55.5 -162t-105.5 -57q-33 0 -83 26
q-113 60 -140 60q-54 0 -67 -85h-103z" />
    <glyph glyph-name="Otilde" unicode="&#xd5;" horiz-adv-x="1307" 
d="M154 614q0 403 201 654q179 223 436 223q216 0 361.5 -174t145.5 -484q0 -249 -95 -451.5t-240 -304.5t-305 -102q-139 0 -250.5 74t-182.5 224t-71 341zM312 604q0 -213 106 -340t251 -127q110 0 216.5 81t179.5 254.5t73 378.5q0 222 -103.5 349.5t-250.5 127.5
q-170 0 -306 -167q-166 -205 -166 -557zM595 1594q27 132 66.5 178t99.5 46q27 0 52.5 -8t86.5 -40q68 -37 91 -37q43 0 59 79h99q-9 -105 -55.5 -162t-105.5 -57q-33 0 -83 26q-113 60 -140 60q-54 0 -67 -85h-103z" />
    <glyph glyph-name="OE" unicode="&#x152;" horiz-adv-x="1679" 
d="M840 108q-63 -72 -129 -103t-149 -31q-186 0 -300 147q-127 163 -127 470q0 268 89 481t226 316t283 103q193 0 309 -199l30 174h682l-29 -167h-521l-79 -463h526l-28 -167h-526l-87 -503h582l-29 -166h-742zM293 615q0 -192 33.5 -285.5t101.5 -143t148 -49.5
q114 0 208.5 104.5t146 378t51.5 384.5q0 144 -77.5 234t-180.5 90q-109 0 -214 -100t-161 -283.5t-56 -329.5z" />
    <glyph glyph-name="oe" unicode="&#x153;" horiz-adv-x="1585" 
d="M790 183q-79 -112 -162.5 -159.5t-179.5 -47.5q-152 0 -247.5 113t-95.5 330q0 197 65.5 355.5t170 235t225.5 76.5q100 0 179.5 -52t124.5 -148q82 105 139 142q89 58 193 58q156 0 248 -122t92 -315q0 -85 -14 -165h-631q-3 -36 -3 -68q0 -139 63 -224q51 -68 132 -68
q68 0 129 54q79 70 120 182l153 -17q-63 -176 -175 -271.5t-231 -95.5q-102 0 -176 52t-119 155zM250 428q0 -162 56.5 -237t144.5 -75q69 0 141.5 59t123.5 196t51 292q0 114 -51.5 199t-150.5 85q-86 0 -163.5 -74.5t-114.5 -211t-37 -233.5zM921 623h477l2 49
q0 136 -55.5 205.5t-140.5 69.5q-81 0 -158.5 -78.5t-124.5 -245.5z" />
    <glyph glyph-name="endash" unicode="&#x2013;" 
d="M-3 458v145h934v-145h-934z" />
    <glyph glyph-name="emdash" unicode="&#x2014;" horiz-adv-x="1679" 
d="M0 458v145h1679v-145h-1679z" />
    <glyph glyph-name="quotedblleft" unicode="&#x201c;" horiz-adv-x="559" 
d="M376 1169l-35 -205h-169l31 180q51 297 224 322l-13 -79q-97 -32 -130 -218h92zM638 1169l-35 -205h-169l30 180q51 297 225 322l-14 -79q-95 -32 -129 -218h92z" />
    <glyph glyph-name="quotedblright" unicode="&#x201d;" horiz-adv-x="559" 
d="M227 1261l35 205h169l-30 -180q-51 -296 -225 -322l14 79q96 33 129 218h-92zM497 1261l35 205h170l-31 -180q-51 -296 -225 -322l14 79q96 33 129 218h-92z" />
    <glyph glyph-name="quoteleft" unicode="&#x2018;" horiz-adv-x="373" 
d="M416 1169l-35 -205h-169l31 180q50 296 224 322l-13 -79q-97 -33 -130 -218h92z" />
    <glyph glyph-name="quoteright" unicode="&#x2019;" horiz-adv-x="373" 
d="M262 1261l35 205h169l-31 -180q-50 -296 -224 -322l14 79q96 33 129 218h-92z" />
    <glyph glyph-name="divide" unicode="&#xf7;" horiz-adv-x="1124" 
d="M459 922v205h205v-205h-205zM1046 639h-968v168h968v-168zM459 319v205h205v-205h-205z" />
    <glyph glyph-name="lozenge" unicode="&#x25ca;" horiz-adv-x="1012" 
d="M549 1422l418 -713l-418 -709h-111l-391 709l391 713h111zM495 1325l-340 -616l340 -615l359 615z" />
    <glyph glyph-name="ydieresis" unicode="&#xff;" horiz-adv-x="840" 
d="M0 -410l9 170q46 -16 89 -16q45 0 72 24q38 34 80 125l47 104l-145 1065h146l66 -537q20 -161 34 -318l389 855h155l-555 -1203q-83 -182 -146.5 -236t-139.5 -54q-52 0 -101 21zM335 1227l35 205h155l-35 -205h-155zM637 1227l36 205h154l-35 -205h-155z" />
    <glyph glyph-name="Ydieresis" unicode="&#x178;" horiz-adv-x="1120" 
d="M470 0l97 567l-370 899h172l178 -428q56 -136 113 -300q60 136 165 297l282 431h192l-574 -914l-94 -552h-161zM536 1598l35 205h155l-35 -205h-155zM838 1598l36 205h154l-35 -205h-155z" />
    <glyph glyph-name="fraction" unicode="&#x2044;" horiz-adv-x="281" 
d="M-439 -61l1145 1552h143l-1155 -1552h-133z" />
    <glyph glyph-name="fraction" unicode="&#x2215;" horiz-adv-x="281" 
d="M-439 -61l1145 1552h143l-1155 -1552h-133z" />
    <glyph glyph-name="Euro" unicode="&#x20ac;" 
d="M829 23q-92 -48 -204 -48q-210 0 -329.5 141.5t-139.5 418.5h-88l22 135h66q0 59 10 131h-98l22 135h103q78 268 232.5 411.5t354.5 143.5q189 0 303 -119l-69 -170q-81 127 -228 127q-140 0 -249.5 -100.5t-174.5 -292.5h517l-25 -135h-524q-11 -66 -17 -131h521
l-27 -135h-494q19 -196 103 -297t221 -101q125 0 229 99z" />
    <glyph glyph-name="guilsinglleft" unicode="&#x2039;" horiz-adv-x="559" 
d="M230 526l131 -454h-111l-170 477l325 431h123z" />
    <glyph glyph-name="guilsinglright" unicode="&#x203a;" horiz-adv-x="559" 
d="M324 523l-123 457h119l163 -479l-328 -429h-128z" />
    <glyph glyph-name="fi" unicode="&#xfb01;" horiz-adv-x="840" 
d="M91 0l158 922h-134l24 140h134l26 150q19 114 34 151q27 65 76 96.5t129 31.5q77 0 161 -29l-27 -158q-80 31 -130 31q-26 0 -46 -14t-32 -42q-9 -21 -24 -111l-19 -106h168l-24 -140h-167l-158 -922h-149zM731 1254l36 212h148l-36 -212h-148zM516 0l182 1062h148
l-182 -1062h-148z" />
    <glyph glyph-name="fl" unicode="&#xfb02;" horiz-adv-x="840" 
d="M91 0l158 922h-134l24 140h134l26 150q19 114 34 151q27 65 76 96.5t129 31.5q77 0 161 -29l-27 -158q-80 31 -130 31q-26 0 -46 -14t-32 -42q-9 -21 -24 -111l-19 -106h165l-24 -140h-164l-158 -922h-149zM516 0l251 1466h148l-251 -1466h-148z" />
    <glyph glyph-name="daggerdbl" unicode="&#x2021;" 
d="M274 -349l64 373h-328l27 157h328l125 732h-328l27 157h328l64 376h149l-65 -376h324l-27 -157h-324l-125 -732h324l-27 -157h-324l-64 -373h-148z" />
    <glyph glyph-name="periodcentered" unicode="&#x2219;" horiz-adv-x="467" 
d="M194 619l35 205h168l-35 -205h-168z" />
    <glyph glyph-name="quotesinglbase" unicode="&#x201a;" horiz-adv-x="373" 
d="M39 0l35 205h169l-30 -179q-51 -297 -225 -322l14 79q97 33 129 217h-92z" />
    <glyph glyph-name="quotedblbase" unicode="&#x201e;" horiz-adv-x="559" 
d="M18 0l35 205h169l-30 -179q-51 -297 -225 -322l14 79q97 33 129 217h-92zM285 0l35 205h169l-30 -179q-51 -297 -225 -322l14 79q97 33 129 217h-92z" />
    <glyph glyph-name="perthousand" unicode="&#x2030;" horiz-adv-x="1679" 
d="M111 997q0 142 47 269.5t109 176t140 48.5q95 0 151 -68.5t56 -201.5q0 -141 -47.5 -271.5t-110.5 -181t-137 -50.5q-95 0 -151.5 69t-56.5 210zM230 994q0 -87 24 -121t66 -34q73 0 115 110q56 147 56 286q0 70 -24.5 103t-62.5 33q-37 0 -67 -29q-42 -39 -70 -131
q-37 -122 -37 -217zM165 -54l779 1545h124l-781 -1545h-122zM1182 225q0 142 47.5 269.5t109 176t140.5 48.5q94 0 150 -68.5t56 -201.5q0 -141 -47.5 -272t-110.5 -181.5t-137 -50.5q-94 0 -151 69.5t-57 210.5zM1301 222q0 -87 24 -121.5t66 -34.5q73 0 115 110
q56 148 56 287q0 69 -24.5 102t-62.5 33q-37 0 -67 -28q-41 -39 -69 -131q-38 -123 -38 -217zM619 225q0 141 47 269t109 176.5t140 48.5q94 0 150 -68.5t56 -201.5q0 -141 -47 -272t-110.5 -181.5t-137.5 -50.5q-94 0 -150.5 69.5t-56.5 210.5zM737 222q0 -87 24.5 -121.5
t65.5 -34.5q74 0 116 111q56 147 56 286q0 69 -25 102t-62 33t-67 -28q-42 -39 -70 -131q-38 -123 -38 -217z" />
    <glyph glyph-name="Acircumflex" unicode="&#xc2;" horiz-adv-x="1120" 
d="M-33 0l681 1466h190l198 -1466h-156l-58 422h-486l-193 -422h-176zM405 573h397l-46 368q-27 218 -34 365q-40 -126 -119 -299zM509 1562l217 275h164l102 -275h-130l-65 178l-136 -178h-152z" />
    <glyph glyph-name="Ecircumflex" unicode="&#xca;" horiz-adv-x="1120" 
d="M76 0l251 1466h868l-28 -167h-708l-78 -456h688l-28 -167h-688l-88 -510h757l-29 -166h-917zM509 1562l217 275h164l102 -275h-130l-65 178l-136 -178h-152z" />
    <glyph glyph-name="Aacute" unicode="&#xc1;" horiz-adv-x="1120" 
d="M-33 0l681 1466h190l198 -1466h-156l-58 422h-486l-193 -422h-176zM405 573h397l-46 368q-27 218 -34 365q-40 -126 -119 -299zM625 1562l154 275h187l-218 -275h-123z" />
    <glyph glyph-name="Edieresis" unicode="&#xcb;" horiz-adv-x="1120" 
d="M76 0l251 1466h868l-28 -167h-708l-78 -456h688l-28 -167h-688l-88 -510h757l-29 -166h-917zM536 1598l35 205h155l-35 -205h-155zM838 1598l36 205h154l-35 -205h-155z" />
    <glyph glyph-name="Egrave" unicode="&#xc8;" horiz-adv-x="1120" 
d="M76 0l251 1466h868l-28 -167h-708l-78 -456h688l-28 -167h-688l-88 -510h757l-29 -166h-917zM746 1562l-160 275h180l96 -275h-116z" />
    <glyph glyph-name="Iacute" unicode="&#xcd;" horiz-adv-x="467" 
d="M96 0l251 1466h161l-251 -1466h-161zM300 1562l154 275h187l-218 -275h-123z" />
    <glyph glyph-name="Icircumflex" unicode="&#xce;" horiz-adv-x="467" 
d="M96 0l251 1466h161l-251 -1466h-161zM185 1562l217 275h164l102 -275h-130l-65 178l-136 -178h-152z" />
    <glyph glyph-name="Idieresis" unicode="&#xcf;" horiz-adv-x="467" 
d="M96 0l251 1466h161l-251 -1466h-161zM212 1598l35 205h155l-35 -205h-155zM514 1598l36 205h154l-35 -205h-155z" />
    <glyph glyph-name="Igrave" unicode="&#xcc;" horiz-adv-x="467" 
d="M96 0l251 1466h161l-251 -1466h-161zM422 1562l-160 275h180l96 -275h-116z" />
    <glyph glyph-name="Oacute" unicode="&#xd3;" horiz-adv-x="1307" 
d="M154 614q0 403 201 654q179 223 436 223q216 0 361.5 -174t145.5 -484q0 -249 -95 -451.5t-240 -304.5t-305 -102q-139 0 -250.5 74t-182.5 224t-71 341zM312 604q0 -213 106 -340t251 -127q110 0 216.5 81t179.5 254.5t73 378.5q0 222 -103.5 349.5t-250.5 127.5
q-170 0 -306 -167q-166 -205 -166 -557zM721 1562l154 275h187l-218 -275h-123z" />
    <glyph glyph-name="Ocircumflex" unicode="&#xd4;" horiz-adv-x="1307" 
d="M154 614q0 403 201 654q179 223 436 223q216 0 361.5 -174t145.5 -484q0 -249 -95 -451.5t-240 -304.5t-305 -102q-139 0 -250.5 74t-182.5 224t-71 341zM312 604q0 -213 106 -340t251 -127q110 0 216.5 81t179.5 254.5t73 378.5q0 222 -103.5 349.5t-250.5 127.5
q-170 0 -306 -167q-166 -205 -166 -557zM605 1562l217 275h164l102 -275h-130l-65 178l-136 -178h-152z" />
    <glyph glyph-name="Ograve" unicode="&#xd2;" horiz-adv-x="1307" 
d="M154 614q0 403 201 654q179 223 436 223q216 0 361.5 -174t145.5 -484q0 -249 -95 -451.5t-240 -304.5t-305 -102q-139 0 -250.5 74t-182.5 224t-71 341zM312 604q0 -213 106 -340t251 -127q110 0 216.5 81t179.5 254.5t73 378.5q0 222 -103.5 349.5t-250.5 127.5
q-170 0 -306 -167q-166 -205 -166 -557zM842 1562l-160 275h180l96 -275h-116z" />
    <glyph glyph-name="Uacute" unicode="&#xda;" horiz-adv-x="1212" 
d="M333 1466h161l-155 -901q-19 -112 -19 -167q0 -113 75 -187t193 -74q156 0 254 128q75 98 126 394l138 807h160l-147 -860q-42 -249 -114 -377t-176.5 -191.5t-234.5 -63.5q-200 0 -316 115.5t-116 310.5q0 78 34 266zM667 1562l154 275h187l-218 -275h-123z" />
    <glyph glyph-name="Ucircumflex" unicode="&#xdb;" horiz-adv-x="1212" 
d="M333 1466h161l-155 -901q-19 -112 -19 -167q0 -113 75 -187t193 -74q156 0 254 128q75 98 126 394l138 807h160l-147 -860q-42 -249 -114 -377t-176.5 -191.5t-234.5 -63.5q-200 0 -316 115.5t-116 310.5q0 78 34 266zM551 1562l217 275h164l102 -275h-130l-65 178
l-136 -178h-152z" />
    <glyph glyph-name="Ugrave" unicode="&#xd9;" horiz-adv-x="1212" 
d="M333 1466h161l-155 -901q-19 -112 -19 -167q0 -113 75 -187t193 -74q156 0 254 128q75 98 126 394l138 807h160l-147 -860q-42 -249 -114 -377t-176.5 -191.5t-234.5 -63.5q-200 0 -316 115.5t-116 310.5q0 78 34 266zM788 1562l-160 275h180l96 -275h-116z" />
    <glyph glyph-name="dotlessi" unicode="&#x131;" horiz-adv-x="467" 
d="M103 0l182 1062h148l-182 -1062h-148z" />
    <glyph glyph-name="circumflex" unicode="&#x2c6;" horiz-adv-x="559" 
d="M168 1191l217 275h164l102 -275h-130l-65 178l-136 -178h-152z" />
    <glyph glyph-name="tilde" unicode="&#x2dc;" horiz-adv-x="559" 
d="M157 1222q27 132 66.5 178t99.5 46q27 0 52.5 -8t86.5 -40q68 -37 91 -37q43 0 59 79h99q-9 -105 -55.5 -162t-105.5 -57q-33 0 -83 26q-113 60 -140 60q-54 0 -67 -85h-103z" />
    <glyph glyph-name="macron" unicode="&#x2c9;" horiz-adv-x="559" 
d="M165 1229l24 139h509l-24 -139h-509z" />
    <glyph glyph-name="breve" unicode="&#x2d8;" horiz-adv-x="559" 
d="M180 1422h97q16 -140 128 -140q57 0 101 36.5t67 103.5h98q-29 -122 -103 -191t-168 -69q-93 0 -154 68.5t-66 191.5z" />
    <glyph glyph-name="dotaccent" unicode="&#x2d9;" horiz-adv-x="559" 
d="M326 1209l38 223h183l-39 -223h-182z" />
    <glyph glyph-name="ring" unicode="&#x2da;" horiz-adv-x="559" 
d="M269 1320q0 78 45 130t104 52q60 0 105 -52t45 -130q0 -79 -45.5 -130.5t-104.5 -51.5t-104 51.5t-45 130.5zM330 1320q0 -46 26.5 -77t61.5 -31t61.5 30.5t26.5 77.5q0 46 -26 76.5t-62 30.5q-35 0 -61.5 -30.5t-26.5 -76.5z" />
    <glyph glyph-name="cedilla" unicode="&#xb8;" horiz-adv-x="559" 
d="M207 -149l33 161h115l-20 -90q69 -12 108.5 -58.5t39.5 -111.5q0 -79 -67 -128t-213 -49q-80 0 -140 12l18 112q50 -3 119 -3q78 0 109 20t31 52q0 35 -32.5 58.5t-100.5 24.5z" />
    <glyph glyph-name="hungarumlaut" unicode="&#x2dd;" horiz-adv-x="559" 
d="M144 1191l153 275h189l-220 -275h-122zM421 1191l150 275h190l-223 -275h-117z" />
    <glyph glyph-name="ogonek" unicode="&#x2db;" horiz-adv-x="559" 
d="M162 27h92q-48 -130 -48 -202q0 -57 27 -87t68 -30q55 0 143 43l-20 -120q-93 -56 -175 -56q-68 0 -107.5 46t-39.5 137q0 116 60 269z" />
    <glyph glyph-name="caron" unicode="&#x2c7;" horiz-adv-x="559" 
d="M698 1466l-217 -275h-164l-101 275h129l63 -178l136 178h154z" />
    <glyph glyph-name="Lslash" unicode="&#x141;" 
d="M173 602l-153 -104l29 169l153 104l119 695h161l-98 -572l206 143l-29 -167l-206 -144l-96 -560h621l-28 -166h-782z" />
    <glyph glyph-name="lslash" unicode="&#x142;" horiz-adv-x="373" 
d="M156 623l-125 -81l27 156l124 80l118 688h149l-100 -580l130 84l-27 -155l-129 -84l-126 -731h-148z" />
    <glyph glyph-name="Scaron" unicode="&#x160;" horiz-adv-x="1120" 
d="M119 474l157 18l-1 -49q0 -98 40 -174q30 -58 101.5 -94.5t170.5 -36.5q137 0 217 72.5t80 180.5q0 76 -45 132q-46 55 -219 146q-134 71 -182 107q-87 65 -128.5 143.5t-41.5 179.5q0 176 112.5 284t308.5 108q135 0 231 -51t152.5 -149t56.5 -210l-1 -31l-156 -15l1 33
q0 71 -35.5 132t-101.5 94.5t-152 33.5q-123 0 -191.5 -60t-68.5 -158q0 -89 52 -137t256 -158q149 -81 202.5 -131.5t83 -121t29.5 -158.5q0 -184 -129 -306.5t-338 -122.5q-226 0 -343 120.5t-118 378.5zM1039 1837l-217 -275h-164l-101 275h129l63 -178l136 178h154z" />
    <glyph glyph-name="scaron" unicode="&#x161;" horiz-adv-x="840" 
d="M64 363l149 11q-1 -130 57 -194t158 -64q91 0 144 45.5t53 116.5q0 51 -33 92q-34 41 -147 100q-130 68 -171.5 104.5t-64.5 89t-23 117.5q0 133 86 219t226 86q155 0 245 -88.5t94 -247.5l-146 -12q-3 100 -57.5 154t-146.5 54q-72 0 -117 -40.5t-45 -93.5q0 -46 27 -79
q27 -34 137 -91q169 -89 215 -142q70 -83 70 -202q0 -132 -93.5 -227t-259.5 -95q-167 0 -262 96t-95 271v20zM840 1466l-217 -275h-164l-101 275h129l63 -178l136 178h154z" />
    <glyph glyph-name="Zcaron" unicode="&#x17d;" horiz-adv-x="1026" 
d="M41 0l15 147l728 1063q38 56 72 101q-76 -12 -120 -12h-525l29 167h829l-14 -153l-645 -935l-151 -217q39 6 81 6h621l-29 -167h-891zM995 1837l-217 -275h-164l-101 275h129l63 -178l136 178h154z" />
    <glyph glyph-name="zcaron" unicode="&#x17e;" horiz-adv-x="840" 
d="M33 0l24 140l468 643q50 68 112 141q-106 -13 -153 -13h-323l26 151h673l-19 -114l-473 -647q-40 -55 -119 -151q123 9 169 9h343l-27 -159h-701zM816 1466l-217 -275h-164l-101 275h129l63 -178l136 178h154z" />
    <glyph glyph-name="brokenbar" unicode="&#xa6;" horiz-adv-x="436" 
d="M284 1491v-790h-129v790h129zM284 360v-791h-129v791h129z" />
    <glyph glyph-name="Eth" unicode="&#xd0;" horiz-adv-x="1212" 
d="M75 0l116 666h-130l23 134h130l116 666h358q128 0 186 -17q90 -25 165 -99.5t116 -197.5t41 -286q0 -213 -65.5 -386.5t-162 -286.5t-226.5 -158q-97 -35 -235 -35h-432zM264 166h190q135 0 229 28.5t167.5 111.5t127.5 232t54 338q0 167 -47.5 265.5t-128.5 132.5
q-59 25 -185 25h-210l-86 -499h331l-23 -134h-332z" />
    <glyph glyph-name="eth" unicode="&#xf0;" 
d="M514 1466h154q30 -35 60 -75l145 75l38 -98l-128 -70q71 -142 102.5 -280.5t31.5 -314.5q0 -289 -127 -508t-348 -219q-161 0 -260.5 115t-99.5 322q0 183 67.5 341t168.5 233t203 75q62 0 118 -26t115 -91q-22 143 -86 286l-188 -100l-39 100l173 95q-58 91 -100 140z
M758 639q0 133 -59.5 206t-152.5 73q-75 0 -144.5 -54.5t-119 -179t-49.5 -270.5q0 -148 58 -220.5t151 -72.5q87 0 163 73.5t119 220.5q34 119 34 224z" />
    <glyph glyph-name="Yacute" unicode="&#xdd;" horiz-adv-x="1120" 
d="M470 0l97 567l-370 899h172l178 -428q56 -136 113 -300q60 136 165 297l282 431h192l-574 -914l-94 -552h-161zM625 1562l154 275h187l-218 -275h-123z" />
    <glyph glyph-name="yacute" unicode="&#xfd;" horiz-adv-x="840" 
d="M0 -410l9 170q46 -16 89 -16q45 0 72 24q38 34 80 125l47 104l-145 1065h146l66 -537q20 -161 34 -318l389 855h155l-555 -1203q-83 -182 -146.5 -236t-139.5 -54q-52 0 -101 21zM429 1191l154 275h187l-218 -275h-123z" />
    <glyph glyph-name="Thorn" unicode="&#xde;" horiz-adv-x="1120" 
d="M73 0l256 1466l160 -1l-51 -296h337q130 0 193.5 -35.5t108 -122.5t44.5 -202q0 -149 -71 -281.5t-187 -181t-278 -48.5h-299l-52 -298h-161zM315 464h262q145 0 217 35.5t120 119.5t48 187q0 75 -25 120.5t-68 64.5t-155 19h-304z" />
    <glyph glyph-name="thorn" unicode="&#xfe;" 
d="M-17 -407l322 1873h148l-91 -531q68 83 127.5 117t121.5 34q121 0 204.5 -109t83.5 -319q0 -198 -67.5 -361t-178.5 -252q-86 -69 -180 -69q-157 0 -243 194l-99 -577h-148zM275 399q0 -134 54.5 -204.5t136.5 -70.5q65 0 114 43q70 62 120.5 204t50.5 288
q0 136 -54 208.5t-132 72.5q-62 0 -126 -55.5t-114 -195.5t-50 -290z" />
    <glyph glyph-name="minus" unicode="&#x2212;" horiz-adv-x="981" 
d="M887 639h-794v168h794v-168z" />
    <glyph glyph-name="multiply" unicode="&#xd7;" horiz-adv-x="981" 
d="M130 409l259 315l-258 314l100 122l258 -314l256 313l99 -121l-257 -313l258 -314l-100 -122l-258 314l-258 -315z" />
    <glyph glyph-name="onesuperior" unicode="&#xb9;" horiz-adv-x="559" 
d="M343 733l91 532q-84 -72 -206 -102l22 127q66 24 150 86q62 46 103 108h91l-128 -751h-123z" />
    <glyph glyph-name="twosuperior" unicode="&#xb2;" horiz-adv-x="559" 
d="M125 733q27 109 91.5 195t202.5 181q81 56 99 79q32 39 32 83q0 40 -27.5 66t-74.5 26q-57 0 -89.5 -26.5t-49.5 -87.5l-125 15q50 220 263 220q107 0 167 -57.5t60 -153.5q0 -81 -50 -148q-36 -49 -159 -139q-113 -82 -145 -132h311l-21 -121h-485z" />
    <glyph glyph-name="threesuperior" unicode="&#xb3;" horiz-adv-x="559" 
d="M138 930l117 16q37 -111 134 -111q57 0 90.5 34.5t33.5 89.5q0 50 -28 76.5t-86 26.5h-34l19 107l27 -1q54 0 94.5 29t40.5 84q0 42 -27.5 68.5t-73.5 26.5q-90 0 -123 -102l-121 19q22 89 85.5 140t157.5 51q107 0 167 -54.5t60 -142.5q0 -136 -138 -176
q60 -29 84.5 -69.5t24.5 -99.5q0 -94 -70 -160.5t-179 -66.5q-96 0 -165 58.5t-90 156.5z" />
    <glyph glyph-name="onehalf" unicode="&#xbd;" horiz-adv-x="1401" 
d="M343 733l91 532q-84 -72 -206 -102l22 127q66 24 150 86q62 46 103 108h91l-128 -751h-123zM100 -61l1145 1552h143l-1155 -1552h-133zM835 -35q27 109 91.5 195t202.5 181q81 56 99 79q32 39 32 83q0 40 -27.5 66t-74.5 26q-57 0 -89.5 -26.5t-49.5 -87.5l-125 15
q50 220 263 220q107 0 167 -57.5t60 -153.5q0 -81 -50 -148q-36 -49 -159 -139q-113 -82 -145 -132h311l-21 -121h-485z" />
    <glyph glyph-name="onequarter" unicode="&#xbc;" horiz-adv-x="1401" 
d="M344 733l91 532q-84 -72 -206 -102l22 127q66 24 150 86q62 46 103 108h91l-128 -751h-123zM140 -61l1145 1552h143l-1155 -1552h-133zM1116 -35l26 153h-317l21 120l419 478h96l-81 -484h82l-21 -114h-82l-26 -153h-117zM1163 232l52 265l-234 -265h182z" />
    <glyph glyph-name="threequarters" unicode="&#xbe;" horiz-adv-x="1401" 
d="M138 930l117 16q37 -111 134 -111q57 0 90.5 34.5t33.5 89.5q0 50 -28 76.5t-86 26.5h-34l19 107l27 -1q54 0 94.5 29t40.5 84q0 42 -27.5 68.5t-73.5 26.5q-90 0 -123 -102l-121 19q22 89 85.5 140t157.5 51q107 0 167 -54.5t60 -142.5q0 -136 -138 -176
q60 -29 84.5 -69.5t24.5 -99.5q0 -94 -70 -160.5t-179 -66.5q-96 0 -165 58.5t-90 156.5zM164 -61l1145 1552h143l-1155 -1552h-133zM1115 -35l26 153h-317l21 120l419 478h96l-81 -484h82l-21 -114h-82l-26 -153h-117zM1162 232l52 265l-234 -265h182z" />
    <glyph glyph-name="franc" unicode="&#x20a3;" horiz-adv-x="1032" 
d="M124 278h-135l23 134h135l181 1054h781l-29 -167h-621l-79 -467h632l-29 -167h-632l-43 -253h336l-23 -134h-336l-48 -278h-161z" />
    <glyph glyph-name="Gbreve" unicode="&#x11e;" horiz-adv-x="1307" 
d="M688 578l28 166h527l-102 -597q-104 -80 -231.5 -126t-245.5 -46q-255 0 -378 173.5t-123 438.5q0 267 97 483.5t242 318.5t321 102q209 0 339 -145q92 -103 125 -309l-158 -21q-26 156 -107.5 234t-204.5 78q-126 0 -237.5 -83t-182.5 -256t-71 -405q0 -228 92 -337.5
t245 -109.5q156 0 337 126l54 315h-366zM652 1793h97q16 -140 128 -140q57 0 101 36.5t67 103.5h98q-29 -122 -103 -191t-168 -69q-93 0 -154 68.5t-66 191.5z" />
    <glyph glyph-name="gbreve" unicode="&#x11f;" 
d="M48 -96l150 -17v-24q0 -69 39 -104t122 -35q129 0 189 79q42 58 76 254l15 86q-116 -143 -246 -143q-129 0 -219.5 116.5t-90.5 337.5q0 174 69.5 327.5t168 229t198.5 75.5q171 0 264 -198l30 174h135l-175 -1025q-40 -232 -121 -334q-102 -128 -277 -128
q-166 0 -248.5 73.5t-82.5 201.5q0 24 4 54zM233 470q0 -119 25.5 -186t70 -101.5t94.5 -34.5q67 0 136 55.5t119 185t50 265.5q0 134 -60.5 210t-145.5 76q-69 0 -136.5 -61.5t-110 -188t-42.5 -220.5zM388 1422h97q16 -140 128 -140q57 0 101 36.5t67 103.5h98
q-29 -122 -103 -191t-168 -69q-93 0 -154 68.5t-66 191.5z" />
    <glyph glyph-name="Idotaccent" unicode="&#x130;" horiz-adv-x="467" 
d="M96 0l251 1466h161l-251 -1466h-161zM355 1580l38 223h183l-39 -223h-182z" />
    <glyph glyph-name="Scedilla" unicode="&#x15e;" horiz-adv-x="1120" 
d="M119 474l157 18l-1 -49q0 -98 40 -174q30 -58 101.5 -94.5t170.5 -36.5q137 0 217 72.5t80 180.5q0 76 -45 132q-46 55 -219 146q-134 71 -182 107q-87 65 -128.5 143.5t-41.5 179.5q0 176 112.5 284t308.5 108q135 0 231 -51t152.5 -149t56.5 -210l-1 -31l-156 -15l1 33
q0 71 -35.5 132t-101.5 94.5t-152 33.5q-123 0 -191.5 -60t-68.5 -158q0 -89 52 -137t256 -158q149 -81 202.5 -131.5t83 -121t29.5 -158.5q0 -184 -129 -306.5t-338 -122.5q-226 0 -343 120.5t-118 378.5zM488 -149l33 161h115l-20 -90q69 -12 108.5 -58.5t39.5 -111.5
q0 -79 -67 -128t-213 -49q-80 0 -140 12l18 112q50 -3 119 -3q78 0 109 20t31 52q0 35 -32.5 58.5t-100.5 24.5z" />
    <glyph glyph-name="scedilla" unicode="&#x15f;" horiz-adv-x="840" 
d="M64 363l149 11q-1 -130 57 -194t158 -64q91 0 144 45.5t53 116.5q0 51 -33 92q-34 41 -147 100q-130 68 -171.5 104.5t-64.5 89t-23 117.5q0 133 86 219t226 86q155 0 245 -88.5t94 -247.5l-146 -12q-3 100 -57.5 154t-146.5 54q-72 0 -117 -40.5t-45 -93.5q0 -46 27 -79
q27 -34 137 -91q169 -89 215 -142q70 -83 70 -202q0 -132 -93.5 -227t-259.5 -95q-167 0 -262 96t-95 271v20zM311 -149l33 161h115l-20 -90q69 -12 108.5 -58.5t39.5 -111.5q0 -79 -67 -128t-213 -49q-80 0 -140 12l18 112q50 -3 119 -3q78 0 109 20t31 52q0 35 -32.5 58.5
t-100.5 24.5z" />
    <glyph glyph-name="Cacute" unicode="&#x106;" horiz-adv-x="1212" 
d="M1012 516l159 -27q-76 -258 -222.5 -386t-320.5 -128q-213 0 -344.5 159t-131.5 470q0 363 165 614q179 273 463 273q182 0 304.5 -121t141.5 -340l-150 -17q-47 316 -290 316q-212 0 -343 -216.5t-131 -512.5q0 -230 93 -346.5t235 -116.5q122 0 214 88q113 108 158 291
zM703 1562l154 275h187l-218 -275h-123z" />
    <glyph glyph-name="cacute" unicode="&#x107;" horiz-adv-x="840" 
d="M656 387l149 -19q-56 -199 -160 -295.5t-232 -96.5q-138 0 -228.5 109t-90.5 316q0 203 66.5 369t168 241t225.5 75q134 0 219 -94t84 -258l-146 -12q0 104 -48.5 159.5t-119.5 55.5q-79 0 -142.5 -52.5t-110 -194t-46.5 -313.5q0 -128 50.5 -194.5t120.5 -66.5
q72 0 138 67t103 204zM496 1191l154 275h187l-218 -275h-123z" />
    <glyph glyph-name="Ccaron" unicode="&#x10c;" horiz-adv-x="1212" 
d="M1012 516l159 -27q-76 -258 -222.5 -386t-320.5 -128q-213 0 -344.5 159t-131.5 470q0 363 165 614q179 273 463 273q182 0 304.5 -121t141.5 -340l-150 -17q-47 316 -290 316q-212 0 -343 -216.5t-131 -512.5q0 -230 93 -346.5t235 -116.5q122 0 214 88q113 108 158 291
zM1118 1837l-217 -275h-164l-101 275h129l63 -178l136 178h154z" />
    <glyph glyph-name="ccaron" unicode="&#x10d;" horiz-adv-x="840" 
d="M656 387l149 -19q-56 -199 -160 -295.5t-232 -96.5q-138 0 -228.5 109t-90.5 316q0 203 66.5 369t168 241t225.5 75q134 0 219 -94t84 -258l-146 -12q0 104 -48.5 159.5t-119.5 55.5q-79 0 -142.5 -52.5t-110 -194t-46.5 -313.5q0 -128 50.5 -194.5t120.5 -66.5
q72 0 138 67t103 204zM886 1466l-217 -275h-164l-101 275h129l63 -178l136 178h154z" />
    <glyph glyph-name="dmacron" unicode="&#x111;" horiz-adv-x="928" 
d="M816 1234h-267l19 104h266l22 128h148l-21 -128h110l-18 -104h-110l-212 -1234h-137l26 154q-126 -178 -266 -178q-120 0 -204 109t-84 327q0 195 67 357.5t165 239.5t195 77q161 0 243 -191zM236 445l-1 -43q0 -132 61 -216q47 -65 124 -65q100 0 183 128
q109 171 109 420q0 128 -56 198t-133 70q-75 0 -141 -67t-106 -201t-40 -224z" />
    <glyph glyph-name="overscore" unicode="&#xaf;" horiz-adv-x="1024" 
d="M181 1722h1048v-103h-1048v103z" />
    <glyph glyph-name="middot" unicode="&#xb7;" horiz-adv-x="559" 
d="M255 630l35 205h168l-35 -205h-168z" />
    <glyph glyph-name="Abreve" unicode="&#x102;" horiz-adv-x="1120" 
d="M-33 0l681 1466h190l198 -1466h-156l-58 422h-486l-193 -422h-176zM405 573h397l-46 368q-27 218 -34 365q-40 -126 -119 -299zM540 1794h97q16 -140 128 -140q57 0 101 36.5t67 103.5h98q-29 -122 -103 -191t-168 -69q-93 0 -154 68.5t-66 191.5z" />
    <glyph glyph-name="abreve" unicode="&#x103;" 
d="M643 132q-82 -86 -154 -121t-146 -35q-116 0 -192.5 83t-76.5 226q0 102 44 178t123.5 116.5t227.5 47.5q125 7 171.5 15t79.5 24q18 76 18 124q0 67 -48.5 107.5t-140.5 40.5q-185 0 -240 -194l-150 16q95 326 399 326q150 0 238 -78.5t88 -197.5q0 -84 -20 -197
l-48 -264q-23 -126 -23 -204q0 -55 17 -145h-149q-13 50 -18 132zM698 538q-55 -26 -186 -40q-134 -14 -184 -36t-78 -67t-28 -104q0 -81 45 -128t120 -47q71 0 137 44t107.5 127t66.5 251zM379 1422h97q16 -140 128 -140q57 0 101 36.5t67 103.5h98q-29 -122 -103 -191
t-168 -69q-93 0 -154 68.5t-66 191.5z" />
    <glyph glyph-name="Aogonek" unicode="&#x104;" horiz-adv-x="1120" 
d="M-33 0l681 1466h190l198 -1466h-156l-58 422h-486l-193 -422h-176zM405 573h397l-46 368q-27 218 -34 365q-40 -126 -119 -299zM932 27h92q-48 -130 -48 -202q0 -57 27 -87t68 -30q55 0 143 43l-20 -120q-93 -56 -175 -56q-68 0 -107.5 46t-39.5 137q0 116 60 269z" />
    <glyph glyph-name="aogonek" unicode="&#x105;" 
d="M643 132q-82 -86 -154 -121t-146 -35q-116 0 -192.5 83t-76.5 226q0 102 44 178t123.5 116.5t227.5 47.5q125 7 171.5 15t79.5 24q18 76 18 124q0 67 -48.5 107.5t-140.5 40.5q-185 0 -240 -194l-150 16q95 326 399 326q150 0 238 -78.5t88 -197.5q0 -84 -20 -197
l-48 -264q-23 -126 -23 -204q0 -55 17 -145h-149q-13 50 -18 132zM698 538q-55 -26 -186 -40q-134 -14 -184 -36t-78 -67t-28 -104q0 -81 45 -128t120 -47q71 0 137 44t107.5 127t66.5 251zM682 27h92q-48 -130 -48 -202q0 -57 27 -87t68 -30q55 0 143 43l-20 -120
q-93 -56 -175 -56q-68 0 -107.5 46t-39.5 137q0 116 60 269z" />
    <glyph glyph-name="Dcaron" unicode="&#x10e;" horiz-adv-x="1212" 
d="M74 0l251 1466h363q122 0 186 -19q94 -27 167.5 -101t113.5 -197t40 -283q0 -213 -65.5 -386.5t-162 -286.5t-225.5 -158q-98 -35 -235 -35h-433zM263 166h191q134 0 227.5 28.5t167.5 111t128.5 231.5t54.5 339q0 167 -47.5 265.5t-129.5 132.5q-59 25 -185 25h-213z
M998 1837l-217 -275h-164l-101 275h129l63 -178l136 178h154z" />
    <glyph glyph-name="dcaron" unicode="&#x10f;" horiz-adv-x="1049" 
d="M642 154q-126 -178 -266 -178q-120 0 -204 109t-84 327q0 195 67 357.5t165 239.5t195 77q161 0 243 -191l98 571h148l-251 -1466h-137zM236 445l-1 -43q0 -132 61 -216q47 -65 124 -65q100 0 183 128q109 171 109 420q0 128 -56 198t-133 70q-75 0 -141 -67t-106 -201
t-40 -224zM1063 1282l32 184h152l-27 -161q-18 -105 -72 -167t-119 -69l12 71q82 27 105 142h-83z" />
    <glyph glyph-name="Dslash" unicode="&#x110;" horiz-adv-x="1212" 
d="M75 0l116 666h-130l23 134h130l116 666h358q128 0 186 -17q90 -25 165 -99.5t116 -197.5t41 -286q0 -213 -65.5 -386.5t-162 -286.5t-226.5 -158q-97 -35 -235 -35h-432zM264 166h190q135 0 229 28.5t167.5 111.5t127.5 232t54 338q0 167 -47.5 265.5t-128.5 132.5
q-59 25 -185 25h-210l-86 -499h331l-23 -134h-332z" />
    <glyph glyph-name="Eogonek" unicode="&#x118;" horiz-adv-x="1120" 
d="M76 0l251 1466h868l-28 -167h-708l-78 -456h688l-28 -167h-688l-88 -510h757l-29 -166h-917zM715 27h92q-48 -130 -48 -202q0 -57 27 -87t68 -30q55 0 143 43l-20 -120q-93 -56 -175 -56q-68 0 -107.5 46t-39.5 137q0 116 60 269z" />
    <glyph glyph-name="eogonek" unicode="&#x119;" 
d="M695 361l145 -18q-36 -155 -167 -270q-109 -97 -243 -97q-95 0 -173 51.5t-124 154t-46 244.5q0 187 70.5 349t172.5 236.5t221 74.5q151 0 246.5 -115t95.5 -325q0 -78 -11 -160h-642q-3 -32 -3 -57q0 -150 57 -227.5t137 -77.5q76 0 149.5 61t114.5 176zM264 624h489
v37q0 142 -56 213t-143 71q-94 0 -172.5 -80t-117.5 -241zM379 27h92q-48 -130 -48 -202q0 -57 27 -87t68 -30q55 0 143 43l-20 -120q-93 -56 -175 -56q-68 0 -107.5 46t-39.5 137q0 116 60 269z" />
    <glyph glyph-name="Ecaron" unicode="&#x11a;" horiz-adv-x="1120" 
d="M76 0l251 1466h868l-28 -167h-708l-78 -456h688l-28 -167h-688l-88 -510h757l-29 -166h-917zM1048 1837l-217 -275h-164l-101 275h129l63 -178l136 178h154z" />
    <glyph glyph-name="ecaron" unicode="&#x11b;" 
d="M695 361l145 -18q-36 -155 -167 -270q-109 -97 -243 -97q-95 0 -173 51.5t-124 154t-46 244.5q0 187 70.5 349t172.5 236.5t221 74.5q151 0 246.5 -115t95.5 -325q0 -78 -11 -160h-642q-3 -32 -3 -57q0 -150 57 -227.5t137 -77.5q76 0 149.5 61t114.5 176zM264 624h489
v37q0 142 -56 213t-143 71q-94 0 -172.5 -80t-117.5 -241zM869 1466l-217 -275h-164l-101 275h129l63 -178l136 178h154z" />
    <glyph glyph-name="Lacute" unicode="&#x139;" 
d="M67 0l251 1466h161l-223 -1300h624l-28 -166h-785zM431 1562l154 275h187l-218 -275h-123z" />
    <glyph glyph-name="lacute" unicode="&#x13a;" horiz-adv-x="373" 
d="M44 0l251 1466h149l-251 -1466h-149zM247 1541l154 275h187l-218 -275h-123z" />
    <glyph glyph-name="Lcaron" unicode="&#x13d;" 
d="M67 0l251 1466h161l-223 -1300h624l-28 -166h-785zM794 1280l32 184h152l-27 -161q-18 -105 -72 -167t-119 -69l12 71q82 27 105 142h-83z" />
    <glyph glyph-name="lcaron" unicode="&#x13e;" horiz-adv-x="473" 
d="M44 0l251 1466h149l-251 -1466h-149zM486 1282l32 184h152l-27 -161q-18 -105 -72 -167t-119 -69l12 71q82 27 105 142h-83z" />
    <glyph glyph-name="Ldot" unicode="&#x13f;" 
d="M67 0l251 1466h161l-223 -1300h624l-28 -166h-785zM610 621l38 223h183l-39 -223h-182z" />
    <glyph glyph-name="ldot" unicode="&#x140;" horiz-adv-x="551" 
d="M44 0l251 1466h149l-251 -1466h-149zM413 719l38 223h183l-39 -223h-182z" />
    <glyph glyph-name="Nacute" unicode="&#x143;" horiz-adv-x="1212" 
d="M81 0l251 1466h157l202 -550q90 -243 141 -407q36 -113 78 -287q23 189 56 382l148 862h156l-251 -1466h-159l-299 847q-79 226 -124 395q-11 -143 -47 -351l-153 -891h-156zM741 1562l154 275h187l-218 -275h-123z" />
    <glyph glyph-name="nacute" unicode="&#x144;" 
d="M56 0l182 1062h134l-31 -185q94 118 171 163.5t149 45.5q101 0 163.5 -68t62.5 -193q0 -56 -22 -182l-110 -643h-149l116 673q17 99 17 146q0 55 -31.5 86.5t-85.5 31.5q-112 0 -201.5 -99t-131.5 -344l-85 -494h-148zM475 1191l154 275h187l-218 -275h-123z" />
    <glyph glyph-name="Ncaron" unicode="&#x147;" horiz-adv-x="1212" 
d="M81 0l251 1466h157l202 -550q90 -243 141 -407q36 -113 78 -287q23 189 56 382l148 862h156l-251 -1466h-159l-299 847q-79 226 -124 395q-11 -143 -47 -351l-153 -891h-156zM1095 1837l-217 -275h-164l-101 275h129l63 -178l136 178h154z" />
    <glyph glyph-name="ncaron" unicode="&#x148;" 
d="M56 0l182 1062h134l-31 -185q94 118 171 163.5t149 45.5q101 0 163.5 -68t62.5 -193q0 -56 -22 -182l-110 -643h-149l116 673q17 99 17 146q0 55 -31.5 86.5t-85.5 31.5q-112 0 -201.5 -99t-131.5 -344l-85 -494h-148zM890 1466l-217 -275h-164l-101 275h129l63 -178
l136 178h154z" />
    <glyph glyph-name="Odblacute" unicode="&#x150;" horiz-adv-x="1307" 
d="M154 614q0 403 201 654q179 223 436 223q216 0 361.5 -174t145.5 -484q0 -249 -95 -451.5t-240 -304.5t-305 -102q-139 0 -250.5 74t-182.5 224t-71 341zM312 604q0 -213 106 -340t251 -127q110 0 216.5 81t179.5 254.5t73 378.5q0 222 -103.5 349.5t-250.5 127.5
q-170 0 -306 -167q-166 -205 -166 -557zM582 1562l153 275h189l-220 -275h-122zM859 1562l150 275h190l-223 -275h-117z" />
    <glyph glyph-name="odblacute" unicode="&#x151;" 
d="M82 403q0 287 129 485t346 198q152 0 251 -116.5t99 -331.5q0 -197 -67.5 -352t-175 -232.5t-225.5 -77.5q-155 0 -256 114.5t-101 312.5zM231 421q0 -151 60 -228t150 -77q71 0 142 57.5t124 190.5t53 273q0 152 -60 230.5t-148 78.5q-77 0 -149.5 -57t-122 -188.5
t-49.5 -279.5zM300 1191l153 275h189l-220 -275h-122zM577 1191l150 275h190l-223 -275h-117z" />
    <glyph glyph-name="Racute" unicode="&#x154;" horiz-adv-x="1212" 
d="M79 0l251 1466h505q164 0 236.5 -35t107.5 -103q48 -92 48 -219q0 -191 -101.5 -303.5t-304.5 -146.5q67 -60 104 -125q72 -127 116 -258l92 -276h-180l-86 273q-49 157 -110 263q-39 69 -81.5 92t-137.5 23h-186l-112 -651h-161zM379 810h221q184 0 250 13.5t115.5 53
t78.5 100.5t29 135q0 67 -24.5 112.5t-61.5 63t-131 17.5h-393zM607 1562l154 275h187l-218 -275h-123z" />
    <glyph glyph-name="racute" unicode="&#x155;" horiz-adv-x="559" 
d="M56 0l182 1062h131l-37 -217q131 241 263 241q45 0 110 -39l-61 -168q-39 34 -82 34q-82 0 -163.5 -107.5t-127.5 -379.5l-74 -426h-141zM345 1191l154 275h187l-218 -275h-123z" />
    <glyph glyph-name="Rcaron" unicode="&#x158;" horiz-adv-x="1212" 
d="M79 0l251 1466h505q164 0 236.5 -35t107.5 -103q48 -92 48 -219q0 -191 -101.5 -303.5t-304.5 -146.5q67 -60 104 -125q72 -127 116 -258l92 -276h-180l-86 273q-49 157 -110 263q-39 69 -81.5 92t-137.5 23h-186l-112 -651h-161zM379 810h221q184 0 250 13.5t115.5 53
t78.5 100.5t29 135q0 67 -24.5 112.5t-61.5 63t-131 17.5h-393zM1035 1837l-217 -275h-164l-101 275h129l63 -178l136 178h154z" />
    <glyph glyph-name="rcaron" unicode="&#x159;" horiz-adv-x="559" 
d="M56 0l182 1062h131l-37 -217q131 241 263 241q45 0 110 -39l-61 -168q-39 34 -82 34q-82 0 -163.5 -107.5t-127.5 -379.5l-74 -426h-141zM759 1466l-217 -275h-164l-101 275h129l63 -178l136 178h154z" />
    <glyph glyph-name="Sacute" unicode="&#x15a;" horiz-adv-x="1120" 
d="M119 474l157 18l-1 -49q0 -98 40 -174q30 -58 101.5 -94.5t170.5 -36.5q137 0 217 72.5t80 180.5q0 76 -45 132q-46 55 -219 146q-134 71 -182 107q-87 65 -128.5 143.5t-41.5 179.5q0 176 112.5 284t308.5 108q135 0 231 -51t152.5 -149t56.5 -210l-1 -31l-156 -15l1 33
q0 71 -35.5 132t-101.5 94.5t-152 33.5q-123 0 -191.5 -60t-68.5 -158q0 -89 52 -137t256 -158q149 -81 202.5 -131.5t83 -121t29.5 -158.5q0 -184 -129 -306.5t-338 -122.5q-226 0 -343 120.5t-118 378.5zM649 1562l154 275h187l-218 -275h-123z" />
    <glyph glyph-name="sacute" unicode="&#x15b;" horiz-adv-x="840" 
d="M64 363l149 11q-1 -130 57 -194t158 -64q91 0 144 45.5t53 116.5q0 51 -33 92q-34 41 -147 100q-130 68 -171.5 104.5t-64.5 89t-23 117.5q0 133 86 219t226 86q155 0 245 -88.5t94 -247.5l-146 -12q-3 100 -57.5 154t-146.5 54q-72 0 -117 -40.5t-45 -93.5q0 -46 27 -79
q27 -34 137 -91q169 -89 215 -142q70 -83 70 -202q0 -132 -93.5 -227t-259.5 -95q-167 0 -262 96t-95 271v20zM405 1191l154 275h187l-218 -275h-123z" />
    <glyph glyph-name="Tcedilla" unicode="&#x162;" horiz-adv-x="1026" 
d="M381 0l223 1299h-395l29 167h946l-28 -167h-392l-222 -1299h-161zM377 -149l33 161h115l-20 -90q69 -12 108.5 -58.5t39.5 -111.5q0 -79 -67 -128t-213 -49q-80 0 -140 12l18 112q50 -3 119 -3q78 0 109 20t31 52q0 35 -32.5 58.5t-100.5 24.5z" />
    <glyph glyph-name="tcedilla" unicode="&#x163;" horiz-adv-x="467" 
d="M403 147l-26 -148q-53 -17 -103 -17q-83 0 -131.5 44t-48.5 118q0 35 22 161l105 617h-117l24 140h117l45 261l170 125l-66 -386h145l-24 -140h-145l-101 -587q-19 -113 -19 -133q0 -35 16 -51t49 -16q49 0 88 12zM167 -149l33 161h115l-20 -90q69 -12 108.5 -58.5
t39.5 -111.5q0 -79 -67 -128t-213 -49q-80 0 -140 12l18 112q50 -3 119 -3q78 0 109 20t31 52q0 35 -32.5 58.5t-100.5 24.5z" />
    <glyph glyph-name="Tcaron" unicode="&#x164;" horiz-adv-x="1026" 
d="M381 0l223 1299h-395l29 167h946l-28 -167h-392l-222 -1299h-161zM1008 1837l-217 -275h-164l-101 275h129l63 -178l136 178h154z" />
    <glyph glyph-name="tcaron" unicode="&#x165;" horiz-adv-x="594" 
d="M403 147l-26 -148q-53 -17 -103 -17q-83 0 -131.5 44t-48.5 118q0 35 22 161l105 617h-117l24 140h117l45 261l170 125l-66 -386h145l-24 -140h-145l-101 -587q-19 -113 -19 -133q0 -35 16 -51t49 -16q49 0 88 12zM617 1282l32 184h152l-27 -161q-18 -105 -72 -167
t-119 -69l12 71q82 27 105 142h-83z" />
    <glyph glyph-name="Uring" unicode="&#x16e;" horiz-adv-x="1212" 
d="M333 1466h161l-155 -901q-19 -112 -19 -167q0 -113 75 -187t193 -74q156 0 254 128q75 98 126 394l138 807h160l-147 -860q-42 -249 -114 -377t-176.5 -191.5t-234.5 -63.5q-200 0 -316 115.5t-116 310.5q0 78 34 266zM661 1757q0 78 45 130t104 52q60 0 105 -52t45 -130
q0 -79 -45.5 -130.5t-104.5 -51.5t-104 51.5t-45 130.5zM722 1757q0 -46 26.5 -77t61.5 -31t61.5 30.5t26.5 77.5q0 46 -26 76.5t-62 30.5q-35 0 -61.5 -30.5t-26.5 -76.5z" />
    <glyph glyph-name="uring" unicode="&#x16f;" 
d="M650 192q-157 -216 -321 -216q-95 0 -159.5 68t-64.5 175q0 68 28 230l105 613h148l-116 -679q-15 -85 -15 -131q0 -63 31 -95.5t87 -32.5q79 0 157.5 63.5t115 159t63.5 256.5l79 459h148l-182 -1062h-137zM445 1320q0 78 45 130t104 52q60 0 105 -52t45 -130
q0 -79 -45.5 -130.5t-104.5 -51.5t-104 51.5t-45 130.5zM506 1320q0 -46 26.5 -77t61.5 -31t61.5 30.5t26.5 77.5q0 46 -26 76.5t-62 30.5q-35 0 -61.5 -30.5t-26.5 -76.5z" />
    <glyph glyph-name="Udblacute" unicode="&#x170;" horiz-adv-x="1212" 
d="M333 1466h161l-155 -901q-19 -112 -19 -167q0 -113 75 -187t193 -74q156 0 254 128q75 98 126 394l138 807h160l-147 -860q-42 -249 -114 -377t-176.5 -191.5t-234.5 -63.5q-200 0 -316 115.5t-116 310.5q0 78 34 266zM536 1562l153 275h189l-220 -275h-122zM813 1562
l150 275h190l-223 -275h-117z" />
    <glyph glyph-name="udblacute" unicode="&#x171;" 
d="M650 192q-157 -216 -321 -216q-95 0 -159.5 68t-64.5 175q0 68 28 230l105 613h148l-116 -679q-15 -85 -15 -131q0 -63 31 -95.5t87 -32.5q79 0 157.5 63.5t115 159t63.5 256.5l79 459h148l-182 -1062h-137zM340 1191l153 275h189l-220 -275h-122zM617 1191l150 275h190
l-223 -275h-117z" />
    <glyph glyph-name="Zacute" unicode="&#x179;" horiz-adv-x="1026" 
d="M41 0l15 147l728 1063q38 56 72 101q-76 -12 -120 -12h-525l29 167h829l-14 -153l-645 -935l-151 -217q39 6 81 6h621l-29 -167h-891zM520 1562l154 275h187l-218 -275h-123z" />
    <glyph glyph-name="zacute" unicode="&#x17a;" horiz-adv-x="840" 
d="M33 0l24 140l468 643q50 68 112 141q-106 -13 -153 -13h-323l26 151h673l-19 -114l-473 -647q-40 -55 -119 -151q123 9 169 9h343l-27 -159h-701zM401 1191l154 275h187l-218 -275h-123z" />
    <glyph glyph-name="Zdot" unicode="&#x17b;" horiz-adv-x="1026" 
d="M41 0l15 147l728 1063q38 56 72 101q-76 -12 -120 -12h-525l29 167h829l-14 -153l-645 -935l-151 -217q39 6 81 6h621l-29 -167h-891zM543 1546l38 223h183l-39 -223h-182z" />
    <glyph glyph-name="zdot" unicode="&#x17c;" horiz-adv-x="840" 
d="M33 0l24 140l468 643q50 68 112 141q-106 -13 -153 -13h-323l26 151h673l-19 -114l-473 -647q-40 -55 -119 -151q123 9 169 9h343l-27 -159h-701zM424 1209l38 223h183l-39 -223h-182z" />
    <glyph glyph-name="Gamma" unicode="&#x393;" horiz-adv-x="958" 
d="M235 0h-162l252 1466h784l-28 -166h-625z" />
    <glyph glyph-name="Theta" unicode="&#x398;" horiz-adv-x="1307" 
d="M660 -25q-222 0 -364 181t-142 483q0 361 184 606.5t453 245.5q226 0 367 -179t141 -478q0 -362 -190 -610.5t-449 -248.5zM789 1329q-194 0 -336 -201.5t-142 -502.5q0 -224 102.5 -356t256.5 -132q189 0 330 208.5t141 500.5q0 217 -101 350t-251 133zM934 651h-446
l28 166h447z" />
    <glyph glyph-name="Phi" unicode="&#x3a6;" horiz-adv-x="1409" 
d="M793 1325l33 182h161l-32 -190q212 -24 326 -155.5t114 -336.5q0 -238 -155 -428t-486 -215l-43 -239h-162l43 250q-213 25 -325.5 153t-112.5 332q0 255 165.5 446t473.5 201zM621 354l143 799q-220 -24 -336 -151.5t-116 -321.5q0 -301 309 -326zM926 1151l-143 -797
q224 19 339 153.5t115 328.5q0 288 -311 315z" />
    <glyph glyph-name="alpha" unicode="&#x3b1;" horiz-adv-x="954" 
d="M671 0l-16 158q-123 -181 -277 -181q-137 0 -217 115t-80 318q0 285 130.5 480t299.5 195q174 0 260 -217l74 193h158l-195 -514v-215q0 -154 13 -332h-150zM530 938q-123 0 -212 -164.5t-89 -378.5q0 -127 48 -198.5t122 -71.5q124 0 215.5 162.5t91.5 369.5
q0 129 -49.5 205t-126.5 76z" />
    <glyph glyph-name="delta" unicode="&#x3b4;" horiz-adv-x="936" 
d="M311 1348l22 118h662l-27 -151h-487q70 -100 197 -238t176.5 -225.5t49.5 -228.5q0 -248 -122.5 -447t-345.5 -199q-163 0 -257 120t-94 323q0 244 122.5 433t318.5 202q-139 158 -215 293zM554 913q-127 0 -224 -142.5t-97 -356.5q0 -139 57.5 -218t153.5 -79
q126 0 219.5 154t93.5 354q0 134 -55 211t-148 77z" />
    <glyph glyph-name="epsilon" unicode="&#x3b5;" horiz-adv-x="737" 
d="M261 563q-86 94 -86 213q0 130 90 219.5t216 89.5q173 0 288 -151l-114 -92q-75 96 -168 96q-72 0 -118 -50t-46 -118q0 -142 194 -162l-22 -135l-37 2q-112 0 -179 -60.5t-67 -150.5q0 -68 37.5 -107.5t99.5 -39.5q129 0 240 129l90 -117q-139 -152 -323 -152
q-139 0 -220 79.5t-81 207.5q0 198 206 299z" />
    <glyph glyph-name="sigma" unicode="&#x3c3;" horiz-adv-x="1014" 
d="M669 1061h414l-27 -152h-217q63 -119 63 -264q0 -294 -130.5 -481t-335.5 -187q-160 0 -257.5 115.5t-97.5 306.5q0 303 133 494.5t334 191.5q40 0 82 -12zM552 946q-137 0 -230 -156.5t-93 -371.5q0 -141 57 -221t152 -80q132 0 224.5 159.5t92.5 364.5
q0 144 -54.5 224.5t-148.5 80.5z" />
    <glyph glyph-name="tau" unicode="&#x3c4;" horiz-adv-x="629" 
d="M145 909l26 152h527l-27 -152h-188l-158 -909h-148l156 909h-188z" />
    <glyph glyph-name="phi" unicode="&#x3c6;" horiz-adv-x="1096" 
d="M352 -408l65 383q-156 32 -240 164.5t-84 325.5q0 241 127 426t322 194l-59 -174q-112 -34 -177 -166t-65 -296q0 -252 205 -314l86 494q49 287 114 371.5t166 84.5q109 0 185.5 -116t76.5 -305q0 -280 -130.5 -473.5t-376.5 -219.5l-66 -379h-149zM681 637l-88 -502
q162 29 252 187t90 366q0 119 -31 184.5t-81 65.5q-59 0 -87 -73t-55 -228z" />
    <glyph glyph-name="underscoredbl" unicode="&#x2017;" horiz-adv-x="1024" 
d="M1042 -284h-1059v84h1059v-84zM1042 -442h-1059v84h1059v-84z" />
    <glyph glyph-name="exclamdbl" unicode="&#x203c;" 
d="M188 370l91 796l52 300h180l-56 -325l-174 -771h-93zM95 0l35 205h168l-36 -205h-167zM655 370l91 796l52 300h180l-56 -325l-174 -771h-93zM562 0l35 205h168l-36 -205h-167z" />
    <glyph glyph-name="nsuperior" unicode="&#x207f;" horiz-adv-x="612" 
d="M158 804l124 665h107l-16 -87q96 102 194 102q64 0 109 -43.5t45 -124.5q0 -38 -14 -114l-74 -398h-117l78 421q11 58 11 85q0 57 -65 57q-161 0 -208 -255l-57 -308h-117z" />
    <glyph glyph-name="peseta" unicode="&#x20a7;" horiz-adv-x="1861" 
d="M331 1466h262q125 0 205 -36.5t133 -125.5t62 -238h61l55 309h148l-55 -309h221q60 29 134 29q97 0 172.5 -54t102 -128t26.5 -187h-135q-2 230 -176 230q-66 0 -102 -40.5t-36 -99.5q0 -62 72 -111q213 -145 263 -223t50 -172q0 -137 -89 -236.5t-220 -99.5
q-171 0 -283 146l-25 -120q-61 -11 -107 -11q-86 0 -128.5 47t-42.5 108q0 39 16 131l113 649h-52q-31 -130 -96.5 -201.5t-136 -100.5t-258.5 -29h-147l-104 -593h-161zM463 1302l-95 -545h95q142 0 208.5 22.5t111.5 97.5t45 180q0 245 -235 245h-130zM1177 924l-113 -656
q-8 -46 -8 -68q0 -63 71 -63q25 0 60 8q-45 77 -45 184q0 35 4 72h142q-3 -39 -3 -57q0 -99 53.5 -161t137.5 -62q75 0 122.5 49.5t47.5 117.5q0 50 -32 89.5t-122 100.5q-115 78 -167 146.5t-52 167.5q0 67 26 132h-122z" />
    <glyph glyph-name="arrowleft" unicode="&#x2190;" horiz-adv-x="2048" 
d="M492 876h76q-59 -118 -88.5 -165.5t-106.5 -143.5h1595v-101h-1595q104 -108 198 -309h-78q-129 144 -222 218.5t-192 122.5v45q87 37 184 113t229 220z" />
    <glyph glyph-name="arrowup" unicode="&#x2191;" horiz-adv-x="1024" 
d="M153 926q145 133 220.5 230t112.5 183h46q47 -99 121.5 -192t218.5 -222v-77q-201 94 -309 197v-1474h-101v1474q-96 -76 -143.5 -106t-165.5 -89v76z" />
    <glyph glyph-name="arrowright" unicode="&#x2192;" horiz-adv-x="2048" 
d="M1555 876q133 -145 230 -220.5t183 -112.5v-45q-99 -48 -192 -122.5t-222 -218.5h-77q94 201 197 309h-1595v101h1595q-76 97 -106 144t-89 165h76z" />
    <glyph glyph-name="arrowdown" unicode="&#x2193;" horiz-adv-x="1024" 
d="M153 -16v76q119 -59 166 -89t143 -106v1474h101v-1474q108 103 309 197v-77q-144 -129 -218.5 -222t-121.5 -192h-46q-37 86 -112.5 183t-220.5 230z" />
    <glyph glyph-name="arrowboth" unicode="&#x2194;" horiz-adv-x="2048" 
d="M1968 540v-45q-94 -43 -185 -116t-221 -221h-80q69 172 194 311h-1305q125 -139 194 -311h-80q-130 148 -221 221t-185 116v45q94 44 185 116.5t221 221.5h80q-69 -172 -194 -311h1305q-125 139 -194 311h80q130 -149 221 -221.5t185 -116.5z" />
    <glyph glyph-name="arrowupdn" unicode="&#x2195;" horiz-adv-x="1024" 
d="M489 1463h45q44 -94 116.5 -185.5t220.5 -221.5v-80q-171 69 -311 195v-1306q140 126 311 194v-79q-148 -130 -220.5 -221.5t-116.5 -185.5h-45q-43 94 -116 185.5t-221 221.5v79q171 -68 311 -194v1306q-140 -126 -311 -195v80q148 130 221 221.5t116 185.5z" />
    <glyph glyph-name="arrowupdnbse" unicode="&#x21a8;" horiz-adv-x="1024" 
d="M489 1463h45q44 -94 116.5 -185.5t220.5 -221.5v-80q-171 69 -311 195v-1306q140 126 311 194v-79q-148 -130 -220.5 -221.5t-116.5 -185.5h-45q-43 94 -116 185.5t-221 221.5v79q171 -68 311 -194v1306q-140 -126 -311 -195v80q148 130 221 221.5t116 185.5zM154 -522
h717v-98h-717v98z" />
    <glyph glyph-name="orthogonal" unicode="&#x221f;" horiz-adv-x="2005" 
d="M362 1279h100v-1179h1181v-100h-1281v1279z" />
    <glyph glyph-name="intersection" unicode="&#x2229;" horiz-adv-x="1479" 
d="M302 0h-110v560q0 248 6 314q12 119 44 195t102 149.5t173.5 119.5t219.5 46q112 0 214 -44t177 -119.5t107 -160.5t42 -212q4 -50 4 -288v-560h-109v566q0 218 -6 281q-11 111 -36.5 176.5t-80 123t-139 94.5t-174.5 37q-74 0 -143.5 -25.5t-119 -63t-80 -77
t-44.5 -74.5q-25 -60 -36 -146.5t-11 -325.5v-566z" />
    <glyph glyph-name="equivalence" unicode="&#x2261;" horiz-adv-x="979" 
d="M887 1085h-794v167h794v-167zM887 639h-794v168h794v-168zM887 194h-794v168h794v-168z" />
    <glyph glyph-name="house" unicode="&#x2302;" horiz-adv-x="1229" 
d="M153 0v634l461 519l462 -519v-634h-923zM234 81h761v519l-381 427l-380 -427v-519z" />
    <glyph glyph-name="revlogicalnot" unicode="&#x2310;" horiz-adv-x="981" 
d="M94 424h140v438h654v168h-794v-606z" />
    <glyph glyph-name="integraltp" unicode="&#x2320;" horiz-adv-x="1237" 
d="M691 -515h-145v1811q0 219 89.5 330t202.5 111q67 0 102.5 -32.5t35.5 -76.5q0 -40 -25.5 -66t-62.5 -26q-30 0 -57 15q-18 10 -42 46q-23 37 -46 37q-17 0 -31 -12q-10 -8 -14 -27q-7 -33 -7 -139v-1971z" />
    <glyph glyph-name="integralbt" unicode="&#x2321;" horiz-adv-x="1237" 
d="M546 1737h145v-1811q0 -219 -89.5 -330t-202.5 -111q-67 0 -102.5 32.5t-35.5 76.5q0 40 25.5 66t61.5 26q31 0 59 -16q18 -10 41 -46t46 -36q17 0 31 11q10 8 14 29q7 32 7 138v1971z" />
    <glyph glyph-name="SF100000" unicode="&#x2500;" horiz-adv-x="1451" 
d="M1473 534h-1496v175h1496v-175z" />
    <glyph glyph-name="SF110000" unicode="&#x2502;" horiz-adv-x="1261" 
d="M448 -621v2485h175v-2485h-175z" />
    <glyph glyph-name="SF010000" unicode="&#x250c;" horiz-adv-x="1451" 
d="M1474 709v-175h-661v-1155h-175v1330h836z" />
    <glyph glyph-name="SF030000" unicode="&#x2510;" horiz-adv-x="1451" 
d="M637 534h-660v175h835v-1330h-175v1155z" />
    <glyph glyph-name="SF020000" unicode="&#x2514;" horiz-adv-x="1451" 
d="M638 534v1330h175v-1155h661v-175h-836z" />
    <glyph glyph-name="SF040000" unicode="&#x2518;" horiz-adv-x="1451" 
d="M812 534h-835v175h660v1155h175v-1330z" />
    <glyph glyph-name="SF080000" unicode="&#x251c;" horiz-adv-x="1451" 
d="M638 -621v2485h175v-1155h661v-175h-661v-1155h-175z" />
    <glyph glyph-name="SF090000" unicode="&#x2524;" horiz-adv-x="1451" 
d="M637 -621v1155h-660v175h660v1155h175v-2485h-175z" />
    <glyph glyph-name="SF060000" unicode="&#x252c;" horiz-adv-x="1451" 
d="M637 534h-660v175h1496v-175h-661v-1155h-175v1155z" />
    <glyph glyph-name="SF070000" unicode="&#x2534;" horiz-adv-x="1451" 
d="M1473 534h-1496v175h660v1155h175v-1155h661v-175z" />
    <glyph glyph-name="SF050000" unicode="&#x253c;" horiz-adv-x="1451" 
d="M637 534h-660v175h660v1155h175v-1155h661v-175h-661v-1155h-175v1155z" />
    <glyph glyph-name="SF430000" unicode="&#x2550;" horiz-adv-x="1451" 
d="M1496 724h-1496v175h1496v-175zM1496 344h-1496v175h1496v-175z" />
    <glyph glyph-name="SF240000" unicode="&#x2551;" horiz-adv-x="1451" 
d="M380 -621v2485h175v-2485h-175zM0 -621v2485h175v-2485h-175z" />
    <glyph glyph-name="SF510000" unicode="&#x2552;" horiz-adv-x="1451" 
d="M0 -621v1520h836v-175h-661v-205h661v-175h-661v-965h-175z" />
    <glyph glyph-name="SF520000" unicode="&#x2553;" horiz-adv-x="1451" 
d="M0 -621v1330h1026v-175h-471v-1155h-175v1140h-205v-1140h-175z" />
    <glyph glyph-name="SF390000" unicode="&#x2554;" horiz-adv-x="1451" 
d="M175 -621h-175v1520h1025v-175h-850v-1345zM555 344v-965h-175v1140h645v-175h-470z" />
    <glyph glyph-name="SF220000" unicode="&#x2555;" horiz-adv-x="1451" 
d="M660 344h-660v175h660v205h-660v175h835v-1520h-175v965z" />
    <glyph glyph-name="SF210000" unicode="&#x2556;" horiz-adv-x="1451" 
d="M470 -621l1 1155h-471v175h1025v-1330h-175v1155h-205v-1155h-175z" />
    <glyph glyph-name="SF250000" unicode="&#x2557;" horiz-adv-x="1451" 
d="M850 -621v1345h-850v175h1025v-1520h-175zM470 344h-470v175h645v-1140h-175v965z" />
    <glyph glyph-name="SF500000" unicode="&#x2558;" horiz-adv-x="1451" 
d="M0 344v1520h175v-965h661v-175h-661v-205h661v-175h-836z" />
    <glyph glyph-name="SF490000" unicode="&#x2559;" horiz-adv-x="1451" 
d="M1026 534h-1026v1330h175v-1155h205v1155h175v-1155h471v-175z" />
    <glyph glyph-name="SF380000" unicode="&#x255a;" horiz-adv-x="1451" 
d="M175 1864v-1345h850v-175h-1025v1520h175zM555 899h470v-175h-645v1140h175v-965z" />
    <glyph glyph-name="SF280000" unicode="&#x255b;" horiz-adv-x="1451" 
d="M835 344h-835v175h660v205h-660v175h660v965h175v-1520z" />
    <glyph glyph-name="SF270000" unicode="&#x255c;" horiz-adv-x="1451" 
d="M1025 534h-1025v175h470v1155h175v-1155h205v1155h175v-1330z" />
    <glyph glyph-name="SF260000" unicode="&#x255d;" horiz-adv-x="1451" 
d="M850 1864h175v-1520h-1025v175h850v1345zM470 899v965h175v-1140h-645v175h470z" />
    <glyph glyph-name="SF360000" unicode="&#x255e;" horiz-adv-x="1451" 
d="M0 -621v2485h175v-965h661v-175h-661v-205h661v-175h-661v-965h-175z" />
    <glyph glyph-name="SF370000" unicode="&#x255f;" horiz-adv-x="1451" 
d="M380 -621v2485h175v-1155h471v-175h-471v-1155h-175zM0 -621v2485h175v-2485h-175z" />
    <glyph glyph-name="SF420000" unicode="&#x2560;" horiz-adv-x="1451" 
d="M0 -621v2485h175v-2485h-175zM380 724v1140h175v-965h471v-175h-646zM380 -621v1140h646v-175h-471v-965h-175z" />
    <glyph glyph-name="SF190000" unicode="&#x2561;" horiz-adv-x="1451" 
d="M660 344h-660v175h661l-1 205h-660v175h660v965h175v-2485h-175v965z" />
    <glyph glyph-name="SF200000" unicode="&#x2562;" horiz-adv-x="1451" 
d="M470 -621l1 1155h-471v175h470v1155h175v-2485h-175zM850 -621v2485h175v-2485h-175z" />
    <glyph glyph-name="SF230000" unicode="&#x2563;" horiz-adv-x="1451" 
d="M850 -621v2485h175v-2485h-175zM645 1864v-1140h-645v175h470v965h175zM470 344h-470v175h645v-1140h-175v965z" />
    <glyph glyph-name="SF470000" unicode="&#x2564;" horiz-adv-x="1451" 
d="M1496 724h-1496v175h1496v-175zM660 344h-660v175h1496v-175h-661v-965h-175v965z" />
    <glyph glyph-name="SF480000" unicode="&#x2565;" horiz-adv-x="1451" 
d="M470 -621l1 1155h-471v175h1496v-175h-471v-1155h-175v1140h-205v-1140h-175z" />
    <glyph glyph-name="SF410000" unicode="&#x2566;" horiz-adv-x="1451" 
d="M1496 724h-1496v175h1496v-175zM470 344h-470v175h645v-1140h-175v965zM850 -621v1140h646v-175h-471v-965h-175z" />
    <glyph glyph-name="SF450000" unicode="&#x2567;" horiz-adv-x="1451" 
d="M1496 724h-1496v175h660v965h175v-965h661v-175zM1496 344h-1496v175h1496v-175z" />
    <glyph glyph-name="SF460000" unicode="&#x2568;" horiz-adv-x="1451" 
d="M1496 534h-1496v175h470v1155h175v-1155h205v1155h175v-1155h471v-175z" />
    <glyph glyph-name="SF400000" unicode="&#x2569;" horiz-adv-x="1451" 
d="M645 724h-645v175h470v965h175v-1140zM1496 724h-646v1140h175v-965h471v-175zM1496 344h-1496v175h1496v-175z" />
    <glyph glyph-name="SF540000" unicode="&#x256a;" horiz-adv-x="1451" 
d="M660 344h-660v175h660v205h-660v175h660v965h175v-965h661v-175h-661v-205h661v-175h-661v-965h-175v965z" />
    <glyph glyph-name="SF530000" unicode="&#x256b;" horiz-adv-x="1451" 
d="M470 -621l1 1155h-471v175h470v1155h175v-1155h205v1155h175v-1155h471v-175h-471v-1155h-175v1155h-205v-1155h-175z" />
    <glyph glyph-name="SF440000" unicode="&#x256c;" horiz-adv-x="1451" 
d="M1026 899h470v-175h-645v1140h175v-965zM470 899v965h175v-1140h-645v175h470zM470 344h-470v175h645v-1140h-175v965zM1026 344v-965h-175v1140h645v-175h-470z" />
    <glyph glyph-name="upblock" unicode="&#x2580;" horiz-adv-x="1451" 
d="M1496 621h-1496v1243h1496v-1243z" />
    <glyph glyph-name="dnblock" unicode="&#x2584;" horiz-adv-x="1451" 
d="M1496 -621h-1496v1242h1496v-1242z" />
    <glyph glyph-name="block" unicode="&#x2588;" horiz-adv-x="1451" 
d="M0 -621v2485h1496v-2485h-1496z" />
    <glyph glyph-name="lfblock" unicode="&#x258c;" horiz-adv-x="1451" 
d="M0 -621v2485h748v-2485h-748z" />
    <glyph glyph-name="rtblock" unicode="&#x2590;" horiz-adv-x="1451" 
d="M0 -621v2485h748v-2485h-748z" />
    <glyph glyph-name="ltshade" unicode="&#x2591;" horiz-adv-x="1451" 
d="M102 1864h125v-125h-125v125zM600 1864h125v-125h-125v125zM1099 1864h125v-125h-125v125zM351 1615h125v-125h-125v125zM850 1615h124v-125h-124v125zM1348 1615h125v-125h-125v125zM1099 1366h125v-125h-125v125zM600 1366h125v-125h-125v125zM102 1366h125v-125h-125
v125zM1348 1116h125v-124h-125v124zM850 1116h124v-124h-124v124zM351 1116h125v-124h-125v124zM102 867h125v-125h-125v125zM600 867h125v-125h-125v125zM1099 867h125v-125h-125v125zM1348 618h125v-125h-125v125zM850 618h124v-125h-124v125zM351 618h125v-125h-125v125z
M102 369h125v-125h-125v125zM600 369h125v-125h-125v125zM1099 369h125v-125h-125v125zM351 119h125v-124h-125v124zM850 119h124v-124h-124v124zM1348 119h125v-124h-125v124zM1099 -130h125v-125h-125v125zM600 -130h125v-125h-125v125zM102 -130h125v-125h-125v125z
M351 -379h125v-125h-125v125zM850 -379h124v-125h-124v125zM1348 -379h125v-125h-125v125z" />
    <glyph glyph-name="shade" unicode="&#x2592;" horiz-adv-x="1451" 
d="M103 1864h124v-125h-124v125zM352 1864h124v-125h-124v125zM601 1864h125v-125h-125v125zM850 1864h125v-125h-125v125zM1100 1864h124v-125h-124v125zM1349 1864h124v-125h-124v125zM-22 1615h125v-125h-125v125zM227 1615h125v-125h-125v125zM476 1615h125v-125h-125
v125zM726 1615h124v-125h-124v125zM975 1615h125v-125h-125v125zM1224 1615h125v-125h-125v125zM103 1366h124v-125h-124v125zM352 1366h124v-125h-124v125zM601 1366h125v-125h-125v125zM850 1366h125v-125h-125v125zM1100 1366h124v-125h-124v125zM1349 1366h124v-125
h-124v125zM227 1116h125v-124h-125v124zM476 1116h125v-124h-125v124zM726 1116h124v-124h-124v124zM975 1116h125v-124h-125v124zM1224 1116h125v-124h-125v124zM-22 1116h125v-124h-125v124zM103 867h124v-125h-124v125zM352 867h124v-125h-124v125zM601 867h125v-125
h-125v125zM850 867h125v-125h-125v125zM1100 867h124v-125h-124v125zM1349 867h124v-125h-124v125zM-22 618h125v-125h-125v125zM476 618h125v-125h-125v125zM726 618h124v-125h-124v125zM975 618h125v-125h-125v125zM1224 618h125v-125h-125v125zM227 618h125v-125h-125
v125zM1349 369h124v-125h-124v125zM1100 369h124v-125h-124v125zM850 369h125v-125h-125v125zM601 369h125v-125h-125v125zM352 369h124v-125h-124v125zM103 369h124v-125h-124v125zM-22 119h125v-124h-125v124zM227 119h125v-124h-125v124zM476 119h125v-124h-125v124z
M726 119h124v-124h-124v124zM975 119h125v-124h-125v124zM1224 119h125v-124h-125v124zM1349 -130h124v-125h-124v125zM1100 -130h124v-125h-124v125zM850 -130h125v-125h-125v125zM601 -130h125v-125h-125v125zM352 -130h124v-125h-124v125zM103 -130h124v-125h-124v125z
M-22 -379h125v-125h-125v125zM227 -379h125v-125h-125v125zM476 -379h125v-125h-125v125zM726 -379h124v-125h-124v125zM975 -379h125v-125h-125v125zM1224 -379h125v-125h-125v125z" />
    <glyph glyph-name="dkshade" unicode="&#x2593;" horiz-adv-x="1493" 
d="M1494 1490v-374h-124v-124h124v-374h-124v-125h124v-374h-124v-124h124v-374h-124v-125h124v-124h-1495v373h125v125h-125v374h125v125h-125v373h125v125h-125v374h125v125h-125v373h125v125h124v-125h125v125h124v-125h125v125h125v-125h124v125h125v-125h125v125h124
v-125h125v125h124v-249h-124v-125h124zM124 1615v-125h124v125h-124zM373 1615v-125h124v125h-124zM622 1615v-125h125v125h-125zM871 1615v-125h125v125h-125zM1121 1615v-125h124v125h-124zM1370 1366h-125v-125h125v125zM1121 1366h-125v-125h125v125zM871 1366h-124
v-125h124v125zM622 1366h-125v-125h125v125zM373 1366h-125v-125h125v125zM124 1116v-124h124v124h-124zM373 1116v-124h124v124h-124zM622 1116v-124h125v124h-125zM871 1116v-124h125v124h-125zM1121 1116v-124h124v124h-124zM373 867h-125v-125h125v125zM497 867v-125
h125v125h-125zM747 867v-125h124v125h-124zM996 867v-125h125v125h-125zM1245 867v-125h125v125h-125zM124 618v-125h124v125h-124zM622 618v-125h125v125h-125zM497 493v125h-124v-125h124zM871 618v-125h125v125h-125zM1121 618v-125h124v125h-124zM1370 244v125h-125
v-125h125zM1121 244v125h-125v-125h125zM871 244v125h-124v-125h124zM622 244v125h-125v-125h125zM373 244v125h-125v-125h125zM124 119v-124h124v124h-124zM373 119v-124h124v124h-124zM622 119v-124h125v124h-125zM871 119v-124h125v124h-125zM1121 119v-124h124v124h-124
zM1370 -255v125h-125v-125h125zM1121 -255v125h-125v-125h125zM871 -255v125h-124v-125h124zM622 -255v125h-125v-125h125zM373 -255v125h-125v-125h125zM124 -379v-125h124v125h-124zM373 -379v-125h124v125h-124zM622 -379v-125h125v125h-125zM871 -379v-125h125v125h-125
zM1121 -379v-125h124v125h-124z" />
    <glyph glyph-name="filledbox" unicode="&#x25a0;" horiz-adv-x="1237" 
d="M0 944h944v-944h-944v944z" />
    <glyph glyph-name="filledrect" unicode="&#x25ac;" horiz-adv-x="2048" 
d="M0 703h2047v-386h-2047v386z" />
    <glyph glyph-name="triagup" unicode="&#x25b2;" horiz-adv-x="2027" 
d="M0 0l710 1419l710 -1419h-1420z" />
    <glyph glyph-name="triagrt" unicode="&#x25ba;" horiz-adv-x="2027" 
d="M0 1417l1451 -724l-1451 -724v1448z" />
    <glyph glyph-name="triagdn" unicode="&#x25bc;" horiz-adv-x="2027" 
d="M1420 1388l-710 -1419l-710 1419h1420z" />
    <glyph glyph-name="triaglf" unicode="&#x25c4;" horiz-adv-x="2027" 
d="M1739 1417v-1448l-1451 724z" />
    <glyph glyph-name="circle" unicode="&#x25cb;" horiz-adv-x="1237" 
d="M441 1018q110 0 216 -57t165 -163t59 -220q0 -183 -129 -312t-311 -129q-183 0 -312 129t-129 312q0 115 59 220.5t165 162.5t217 57zM441 942q-93 0 -180 -47t-136 -135t-49 -182q0 -151 107 -258t258 -107t257.5 107t106.5 258q0 94 -49 182t-136 135t-179 47z" />
    <glyph glyph-name="invbullet" unicode="&#x25d8;" horiz-adv-x="1237" 
d="M0 0v980h980v-980h-980zM490 692q-84 0 -143 -59t-59 -143q0 -83 59.5 -142.5t142.5 -59.5q84 0 143 59.5t59 142.5q0 84 -59 143t-143 59z" />
    <glyph glyph-name="invcircle" unicode="&#x25d9;" horiz-adv-x="1237" 
d="M0 0v1155h1155v-1155h-1155zM577 1018q-111 0 -216.5 -57t-164.5 -163t-59 -221q0 -182 129 -311t311 -129q183 0 312 129t129 311q0 115 -59 221t-164.5 163t-217.5 57zM578 942q91 0 178.5 -47t136.5 -134.5t49 -183.5q0 -151 -106.5 -257.5t-257.5 -106.5
q-152 0 -258.5 106.5t-106.5 257.5q0 96 49 183.5t136.5 134.5t179.5 47z" />
    <glyph glyph-name="smileface" unicode="&#x263a;" horiz-adv-x="2091" 
d="M1046 1156q160 0 313 -82.5t239 -236t86 -319.5q0 -165 -84.5 -316.5t-236.5 -236t-317 -84.5q-166 0 -317.5 84.5t-236 236t-84.5 316.5q0 166 85.5 319.5t238.5 236t314 82.5zM1046 1063q-137 0 -267.5 -70.5t-204 -201.5t-73.5 -273q0 -141 72 -270.5t202 -201.5
t271 -72t271 72t202 201.5t72 270.5q0 142 -73.5 273t-204 201.5t-267.5 70.5zM801 731q34 0 57.5 -23.5t23.5 -57.5q0 -33 -23.5 -57t-57.5 -24q-33 0 -57 24t-24 57q0 34 24 57.5t57 23.5zM1290 731q34 0 57.5 -23.5t23.5 -57.5q0 -33 -23.5 -57t-57.5 -24q-33 0 -57 24
t-24 57q0 34 23.5 57.5t57.5 23.5zM752 313l62 36q79 -144 232 -144t231 144l63 -36q-50 -95 -123.5 -145t-170.5 -50q-98 0 -171 50t-123 145z" />
    <glyph glyph-name="invsmileface" unicode="&#x263b;" horiz-adv-x="2155" 
d="M1078 1156q160 0 313 -82.5t239 -236t86 -319.5q0 -165 -84.5 -316.5t-236.5 -236t-317 -84.5q-166 0 -317.5 84.5t-236 236t-84.5 316.5q0 166 85.5 319.5t238.5 236t314 82.5zM833 731q-33 0 -57 -23.5t-24 -57.5q0 -33 24 -57t57 -24q34 0 57.5 24t23.5 57
q0 34 -23.5 57.5t-57.5 23.5zM1322 731q-34 0 -57.5 -23.5t-23.5 -57.5q0 -33 24 -57t57 -24q34 0 57.5 24t23.5 57q0 34 -23.5 57.5t-57.5 23.5zM784 313q50 -95 123 -145t171 -50q97 0 170.5 50t123.5 145l-63 36q-78 -144 -231 -144t-232 144z" />
    <glyph glyph-name="sun" unicode="&#x263c;" horiz-adv-x="1877" 
d="M886 1621h76v-337q102 -7 181.5 -38.5t167.5 -102.5l290 284l52 -53l-286 -286q73 -95 103 -169q38 -96 40 -189h336v-69h-335q-19 -189 -143 -347l285 -291l-57 -50l-283 282q-98 -72 -171 -100.5t-180 -40.5v-337h-76v337q-112 15 -188.5 46t-156.5 92l-294 -278
l-51 51l285 286q-66 84 -100 166t-45 188h-336v69h336q9 106 42 185.5t102 163.5l-284 287l48 57l292 -282q101 70 179.5 100.5t170.5 38.5v337zM921 1211q-129 0 -252 -66t-191.5 -189.5t-68.5 -256.5t67.5 -255t189.5 -190t255 -68t255 68t190 190t68 255t-69 256.5
t-192 189.5t-252 66z" />
    <glyph glyph-name="female" unicode="&#x2640;" horiz-adv-x="1536" 
d="M796 461v-402h459v-59h-459v-439h-59v439h-460v59h460v402q-103 0 -225.5 65.5t-195 191t-72.5 265.5q0 136 69.5 261t193.5 194t261 69q136 0 260.5 -69.5t193.5 -194t69 -260.5q0 -209 -143.5 -360.5t-351.5 -161.5zM767 1451q-118 0 -230.5 -60.5t-175.5 -173.5
t-63 -235q0 -195 137.5 -332.5t331.5 -137.5q195 0 332.5 137.5t137.5 332.5q0 122 -63 235t-175.5 173.5t-231.5 60.5z" />
    <glyph glyph-name="male" unicode="&#x2642;" horiz-adv-x="1536" 
d="M1216 1620l36 -16l163 -666l-57 -15l-142 581l-358 -768q148 -75 224 -202t76 -272q0 -136 -69 -260.5t-193.5 -194t-261.5 -69.5q-136 0 -260.5 69.5t-193.5 194t-69 260.5q0 217 153.5 370t372.5 153q78 0 166 -27l360 771l-537 -265l-24 53zM634 731
q-118 0 -230.5 -60.5t-175.5 -173.5t-63 -235q0 -195 137.5 -332.5t331.5 -137.5q195 0 332.5 137.5t137.5 332.5q0 122 -63 235t-175.5 173.5t-231.5 60.5z" />
    <glyph glyph-name="spade" unicode="&#x2660;" horiz-adv-x="1088" 
d="M487 1231q26 -108 80 -193t192 -211q139 -125 176 -192.5t37 -136.5q0 -95 -64 -159t-154 -64q-156 0 -255 190q1 -147 38.5 -233.5t119.5 -136t219 -58.5l7 -37h-792l7 37q184 0 285.5 107.5t97.5 320.5q-45 -95 -111.5 -142.5t-149.5 -47.5q-90 0 -155 65t-65 154
q0 74 32 133q45 83 157 174q140 115 217 229q56 83 81 201z" />
    <glyph glyph-name="club" unicode="&#x2663;" horiz-adv-x="1344" 
d="M1098 0h-848l8 34q165 35 219 69q81 51 132.5 151t51.5 210l-1 47q-61 -124 -148.5 -181t-178.5 -57q-116 0 -197 81t-81 199q0 116 74 195.5t168 79.5q60 0 163 -51q-42 69 -54.5 105t-12.5 77q0 115 79 193.5t198 78.5q117 0 197.5 -78.5t80.5 -189.5q0 -88 -69 -186
q84 40 101 45q27 8 61 8q100 0 173.5 -78.5t73.5 -194.5q0 -120 -80.5 -201.5t-193.5 -81.5q-62 0 -128.5 30.5t-116.5 81.5q-35 37 -87 125q4 -159 48.5 -251.5t136.5 -153.5q62 -41 223 -72z" />
    <glyph glyph-name="heart" unicode="&#x2665;" horiz-adv-x="1216" 
d="M547 -24q-31 118 -88.5 221.5t-222.5 321.5q-121 160 -149 203q-46 70 -66.5 128.5t-20.5 118.5q0 111 74 186t184 75q109 0 190 -78q61 -58 99 -173q36 127 113 189.5t170 62.5q109 0 184.5 -74t75.5 -176q0 -91 -43.5 -188t-170.5 -257q-164 -207 -231 -326t-98 -234z
" />
    <glyph glyph-name="diamond" unicode="&#x2666;" horiz-adv-x="1045" 
d="M457 1231q89 -151 229 -337.5t232 -289.5q-74 -78 -242 -302q-136 -182 -218 -326q-43 81 -178 269q-93 129 -280 359q101 115 260 328q118 158 197 299z" />
    <glyph glyph-name="musicalnote" unicode="&#x266a;" horiz-adv-x="1024" 
d="M486 1363h38q172 0 227 -14q79 -20 139 -77q45 -42 71 -118.5t26 -178.5v-103h-99v43q0 68 -28.5 115.5t-84.5 72.5q-73 32 -162 32h-28v-835q0 -121 -32 -188.5t-110 -108t-170 -40.5q-109 0 -172.5 61.5t-63.5 161.5q0 105 76 176.5t199 71.5q78 0 174 -46v975z" />
    <glyph glyph-name="musicalnotedbl" unicode="&#x266b;" horiz-adv-x="1536" 
d="M534 1271l796 248v-1108q0 -124 -31.5 -187t-107 -104t-170.5 -41q-109 0 -174 62.5t-65 161.5q0 100 77 172.5t199 72.5q40 0 70.5 -7t99.5 -36v724l-595 -185v-836q0 -121 -32 -188.5t-110 -107.5t-170 -40q-109 0 -172.5 61.5t-63.5 160.5q0 105 76 176.5t199 71.5
q78 0 174 -46v975z" />
    <glyph glyph-name="IJ" unicode="&#x132;" horiz-adv-x="1307" 
d="M96 0l251 1466h161l-251 -1466h-161zM536 427l149 13q-14 -85 -14 -127q0 -83 43.5 -129.5t113.5 -46.5q49 0 88.5 26t64.5 79.5t47 184.5l178 1039h161l-183 -1071q-39 -229 -130 -324.5t-230 -95.5q-141 0 -221 80.5t-80 239.5q0 67 13 132z" />
    <glyph glyph-name="ij" unicode="&#x133;" horiz-adv-x="746" 
d="M266 1261l35 205h148l-35 -205h-148zM50 0l182 1062h148l-182 -1062h-148zM638 1261l35 205h147l-36 -205h-146zM168 -399l26 154q51 -17 91 -17q48 0 76 40t58 212l183 1072h149l-190 -1105q-36 -210 -83 -285q-61 -97 -169 -97q-58 0 -141 26z" />
    <glyph glyph-name="napostrophe" unicode="&#x149;" horiz-adv-x="1174" 
d="M302 0l182 1062h134l-31 -185q94 118 171 163.5t149 45.5q101 0 163.5 -68t62.5 -193q0 -56 -22 -182l-110 -643h-149l116 673q17 99 17 146q0 55 -31.5 86.5t-85.5 31.5q-112 0 -201.5 -99t-131.5 -344l-85 -494h-148zM201 1261l35 205h169l-31 -180q-50 -296 -224 -322
l14 79q96 33 129 218h-92z" />
    <glyph glyph-name="minute" unicode="&#x2032;" horiz-adv-x="322" 
d="M214 947l10 274l43 245h168l-43 -245l-86 -274h-92z" />
    <glyph glyph-name="second" unicode="&#x2033;" horiz-adv-x="596" 
d="M219 947l8 279l41 240h169l-42 -240l-86 -279h-90zM490 947l9 279l42 240h168l-42 -240l-88 -279h-89z" />
    <glyph glyph-name="afii61248" unicode="&#x2105;" horiz-adv-x="1580" 
d="M213 -61l1145 1552h143l-1155 -1552h-133zM525 997l118 -16q-75 -282 -264 -282q-96 0 -156 78t-60 221q0 196 79.5 338t226.5 142q100 0 153 -70.5t53 -184.5l-117 -10q0 149 -99 149q-78 0 -127 -110t-49 -266q0 -84 28.5 -130.5t69.5 -46.5q46 0 85.5 53t58.5 135z
M973 284q0 216 90.5 347t225.5 131q106 0 171 -84t65 -232q0 -200 -89.5 -331.5t-223.5 -131.5q-105 0 -172 82t-67 219zM1092 297q0 -103 36.5 -153.5t85.5 -50.5q79 0 136 111t57 245q0 91 -33.5 147.5t-87.5 56.5q-83 0 -138.5 -109t-55.5 -247z" />
    <glyph glyph-name="afii61289" unicode="&#x2113;" horiz-adv-x="814" 
d="M89 586l195 161l82 444q34 188 99.5 244t150.5 56q104 0 165 -68t61 -151q0 -84 -66.5 -201.5t-318.5 -349.5l-88 -470q-9 -49 -9 -73q0 -65 44 -65q63 0 215 111l-18 -169q-114 -79 -213 -79q-86 0 -142.5 54.5t-56.5 152.5q0 64 15 143l41 217l-82 -67zM500 952
q130 141 166 208t36 120q0 92 -67 92q-58 0 -87 -158z" />
    <glyph glyph-name="H22073" unicode="&#x25a1;" horiz-adv-x="1237" 
d="M146 944h944v-944h-944v944zM222 868v-792h792v792h-792z" />
    <glyph glyph-name="H18543" unicode="&#x25aa;" horiz-adv-x="726" 
d="M594 909v-464h-463v463z" />
    <glyph glyph-name="H18551" unicode="&#x25ab;" horiz-adv-x="726" 
d="M594 909v-464h-463v463zM518 833l-311 -1v-311h311v312z" />
    <glyph glyph-name="H18533" unicode="&#x25cf;" horiz-adv-x="1237" 
d="M619 1018q110 0 216 -57t165 -163t59 -220q0 -183 -129 -312t-311 -129q-183 0 -312 129t-129 312q0 115 59 220.5t165 162.5t217 57z" />
    <glyph glyph-name="openbullet" unicode="&#x25e6;" horiz-adv-x="726" 
d="M363 928q104 0 177.5 -73.5t73.5 -177.5t-73.5 -177.5t-177.5 -73.5t-177.5 73.5t-73.5 177.5t73 177.5t178 73.5zM363 852q-73 0 -124 -51.5t-51 -123.5q0 -73 51.5 -124t123.5 -51t123.5 51t51.5 124q0 72 -51 123.5t-124 51.5z" />
    <glyph glyph-name="Amacron" unicode="&#x100;" horiz-adv-x="1120" 
d="M-33 0l681 1466h190l198 -1466h-156l-58 422h-486l-193 -422h-176zM405 573h397l-46 368q-27 218 -34 365q-40 -126 -119 -299zM482 1565l24 139h509l-24 -139h-509z" />
    <glyph glyph-name="amacron" unicode="&#x101;" 
d="M643 132q-82 -86 -154 -121t-146 -35q-116 0 -192.5 83t-76.5 226q0 102 44 178t123.5 116.5t227.5 47.5q125 7 171.5 15t79.5 24q18 76 18 124q0 67 -48.5 107.5t-140.5 40.5q-185 0 -240 -194l-150 16q95 326 399 326q150 0 238 -78.5t88 -197.5q0 -84 -20 -197
l-48 -264q-23 -126 -23 -204q0 -55 17 -145h-149q-13 50 -18 132zM698 538q-55 -26 -186 -40q-134 -14 -184 -36t-78 -67t-28 -104q0 -81 45 -128t120 -47q71 0 137 44t107.5 127t66.5 251zM337 1190l24 139h509l-24 -139h-509z" />
    <glyph glyph-name="Ccircumflex" unicode="&#x108;" horiz-adv-x="1212" 
d="M1012 516l159 -27q-76 -258 -222.5 -386t-320.5 -128q-213 0 -344.5 159t-131.5 470q0 363 165 614q179 273 463 273q182 0 304.5 -121t141.5 -340l-150 -17q-47 316 -290 316q-212 0 -343 -216.5t-131 -512.5q0 -230 93 -346.5t235 -116.5q122 0 214 88q113 108 158 291
zM570 1564l217 275h164l102 -275h-130l-65 178l-136 -178h-152z" />
    <glyph glyph-name="ccircumflex" unicode="&#x109;" horiz-adv-x="840" 
d="M656 387l149 -19q-56 -199 -160 -295.5t-232 -96.5q-138 0 -228.5 109t-90.5 316q0 203 66.5 369t168 241t225.5 75q134 0 219 -94t84 -258l-146 -12q0 104 -48.5 159.5t-119.5 55.5q-79 0 -142.5 -52.5t-110 -194t-46.5 -313.5q0 -128 50.5 -194.5t120.5 -66.5
q72 0 138 67t103 204zM333 1191l217 275h164l102 -275h-130l-65 178l-136 -178h-152z" />
    <glyph glyph-name="Cdot" unicode="&#x10a;" horiz-adv-x="1212" 
d="M1012 516l159 -27q-76 -258 -222.5 -386t-320.5 -128q-213 0 -344.5 159t-131.5 470q0 363 165 614q179 273 463 273q182 0 304.5 -121t141.5 -340l-150 -17q-47 316 -290 316q-212 0 -343 -216.5t-131 -512.5q0 -230 93 -346.5t235 -116.5q122 0 214 88q113 108 158 291
zM668 1598l38 223h183l-39 -223h-182z" />
    <glyph glyph-name="cdot" unicode="&#x10b;" horiz-adv-x="840" 
d="M656 387l149 -19q-56 -199 -160 -295.5t-232 -96.5q-138 0 -228.5 109t-90.5 316q0 203 66.5 369t168 241t225.5 75q134 0 219 -94t84 -258l-146 -12q0 104 -48.5 159.5t-119.5 55.5q-79 0 -142.5 -52.5t-110 -194t-46.5 -313.5q0 -128 50.5 -194.5t120.5 -66.5
q72 0 138 67t103 204zM440 1227l38 223h183l-39 -223h-182z" />
    <glyph glyph-name="Emacron" unicode="&#x112;" horiz-adv-x="1120" 
d="M76 0l251 1466h868l-28 -167h-708l-78 -456h688l-28 -167h-688l-88 -510h757l-29 -166h-917zM525 1562l24 139h509l-24 -139h-509z" />
    <glyph glyph-name="emacron" unicode="&#x113;" 
d="M695 361l145 -18q-36 -155 -167 -270q-109 -97 -243 -97q-95 0 -173 51.5t-124 154t-46 244.5q0 187 70.5 349t172.5 236.5t221 74.5q151 0 246.5 -115t95.5 -325q0 -78 -11 -160h-642q-3 -32 -3 -57q0 -150 57 -227.5t137 -77.5q76 0 149.5 61t114.5 176zM264 624h489
v37q0 142 -56 213t-143 71q-94 0 -172.5 -80t-117.5 -241zM316 1190l24 139h509l-24 -139h-509z" />
    <glyph glyph-name="Ebreve" unicode="&#x114;" horiz-adv-x="1120" 
d="M76 0l251 1466h868l-28 -167h-708l-78 -456h688l-28 -167h-688l-88 -510h757l-29 -166h-917zM580 1823h97q16 -140 128 -140q57 0 101 36.5t67 103.5h98q-29 -122 -103 -191t-168 -69q-93 0 -154 68.5t-66 191.5z" />
    <glyph glyph-name="ebreve" unicode="&#x115;" 
d="M695 361l145 -18q-36 -155 -167 -270q-109 -97 -243 -97q-95 0 -173 51.5t-124 154t-46 244.5q0 187 70.5 349t172.5 236.5t221 74.5q151 0 246.5 -115t95.5 -325q0 -78 -11 -160h-642q-3 -32 -3 -57q0 -150 57 -227.5t137 -77.5q76 0 149.5 61t114.5 176zM264 624h489
v37q0 142 -56 213t-143 71q-94 0 -172.5 -80t-117.5 -241zM342 1450h97q16 -140 128 -140q57 0 101 36.5t67 103.5h98q-29 -122 -103 -191t-168 -69q-93 0 -154 68.5t-66 191.5z" />
    <glyph glyph-name="Edot" unicode="&#x116;" horiz-adv-x="1120" 
d="M76 0l251 1466h868l-28 -167h-708l-78 -456h688l-28 -167h-688l-88 -510h757l-29 -166h-917zM702 1598l38 223h183l-39 -223h-182z" />
    <glyph glyph-name="edot" unicode="&#x117;" 
d="M695 361l145 -18q-36 -155 -167 -270q-109 -97 -243 -97q-95 0 -173 51.5t-124 154t-46 244.5q0 187 70.5 349t172.5 236.5t221 74.5q151 0 246.5 -115t95.5 -325q0 -78 -11 -160h-642q-3 -32 -3 -57q0 -150 57 -227.5t137 -77.5q76 0 149.5 61t114.5 176zM264 624h489
v37q0 142 -56 213t-143 71q-94 0 -172.5 -80t-117.5 -241zM484 1229l38 223h183l-39 -223h-182z" />
    <glyph glyph-name="Gcircumflex" unicode="&#x11c;" horiz-adv-x="1307" 
d="M688 578l28 166h527l-102 -597q-104 -80 -231.5 -126t-245.5 -46q-255 0 -378 173.5t-123 438.5q0 267 97 483.5t242 318.5t321 102q209 0 339 -145q92 -103 125 -309l-158 -21q-26 156 -107.5 234t-204.5 78q-126 0 -237.5 -83t-182.5 -256t-71 -405q0 -228 92 -337.5
t245 -109.5q156 0 337 126l54 315h-366zM584 1564l217 275h164l102 -275h-130l-65 178l-136 -178h-152z" />
    <glyph glyph-name="gcircumflex" unicode="&#x11d;" 
d="M48 -96l150 -17v-24q0 -69 39 -104t122 -35q129 0 189 79q42 58 76 254l15 86q-116 -143 -246 -143q-129 0 -219.5 116.5t-90.5 337.5q0 174 69.5 327.5t168 229t198.5 75.5q171 0 264 -198l30 174h135l-175 -1025q-40 -232 -121 -334q-102 -128 -277 -128
q-166 0 -248.5 73.5t-82.5 201.5q0 24 4 54zM233 470q0 -119 25.5 -186t70 -101.5t94.5 -34.5q67 0 136 55.5t119 185t50 265.5q0 134 -60.5 210t-145.5 76q-69 0 -136.5 -61.5t-110 -188t-42.5 -220.5zM316 1191l217 275h164l102 -275h-130l-65 178l-136 -178h-152z" />
    <glyph glyph-name="Gdot" unicode="&#x120;" horiz-adv-x="1307" 
d="M688 578l28 166h527l-102 -597q-104 -80 -231.5 -126t-245.5 -46q-255 0 -378 173.5t-123 438.5q0 267 97 483.5t242 318.5t321 102q209 0 339 -145q92 -103 125 -309l-158 -21q-26 156 -107.5 234t-204.5 78q-126 0 -237.5 -83t-182.5 -256t-71 -405q0 -228 92 -337.5
t245 -109.5q156 0 337 126l54 315h-366zM744 1598l38 223h183l-39 -223h-182z" />
    <glyph glyph-name="gdot" unicode="&#x121;" 
d="M48 -96l150 -17v-24q0 -69 39 -104t122 -35q129 0 189 79q42 58 76 254l15 86q-116 -143 -246 -143q-129 0 -219.5 116.5t-90.5 337.5q0 174 69.5 327.5t168 229t198.5 75.5q171 0 264 -198l30 174h135l-175 -1025q-40 -232 -121 -334q-102 -128 -277 -128
q-166 0 -248.5 73.5t-82.5 201.5q0 24 4 54zM233 470q0 -119 25.5 -186t70 -101.5t94.5 -34.5q67 0 136 55.5t119 185t50 265.5q0 134 -60.5 210t-145.5 76q-69 0 -136.5 -61.5t-110 -188t-42.5 -220.5zM487 1229l38 223h183l-39 -223h-182z" />
    <glyph glyph-name="Gcedilla" unicode="&#x122;" horiz-adv-x="1307" 
d="M688 578l28 166h527l-102 -597q-104 -80 -231.5 -126t-245.5 -46q-255 0 -378 173.5t-123 438.5q0 267 97 483.5t242 318.5t321 102q209 0 339 -145q92 -103 125 -309l-158 -21q-26 156 -107.5 234t-204.5 78q-126 0 -237.5 -83t-182.5 -256t-71 -405q0 -228 92 -337.5
t245 -109.5q156 0 337 126l54 315h-366zM559 -149l33 161h115l-20 -90q69 -12 108.5 -58.5t39.5 -111.5q0 -79 -67 -128t-213 -49q-80 0 -140 12l18 112q50 -3 119 -3q78 0 109 20t31 52q0 35 -32.5 58.5t-100.5 24.5z" />
    <glyph glyph-name="gcedilla" unicode="&#x123;" 
d="M48 -96l150 -17v-24q0 -69 39 -104t122 -35q129 0 189 79q42 58 76 254l15 86q-116 -143 -246 -143q-129 0 -219.5 116.5t-90.5 337.5q0 174 69.5 327.5t168 229t198.5 75.5q171 0 264 -198l30 174h135l-175 -1025q-40 -232 -121 -334q-102 -128 -277 -128
q-166 0 -248.5 73.5t-82.5 201.5q0 24 4 54zM233 470q0 -119 25.5 -186t70 -101.5t94.5 -34.5q67 0 136 55.5t119 185t50 265.5q0 134 -60.5 210t-145.5 76q-69 0 -136.5 -61.5t-110 -188t-42.5 -220.5zM692 1335l-32 -184h-152l27 161q18 105 72 167t119 69l-12 -71
q-82 -27 -105 -142h83z" />
    <glyph glyph-name="Hcircumflex" unicode="&#x124;" horiz-adv-x="1212" 
d="M70 0l251 1466h161l-104 -609h623l104 609h161l-251 -1466h-161l118 691h-623l-118 -691h-161zM578 1564l217 275h164l102 -275h-130l-65 178l-136 -178h-152z" />
    <glyph glyph-name="hcircumflex" unicode="&#x125;" 
d="M56 0l251 1466h149l-97 -563q87 103 158.5 143t143.5 40q103 0 165 -67t62 -184q0 -58 -26 -208l-107 -627h-149l111 643q24 139 24 176q0 54 -31.5 86t-83.5 32q-77 0 -148 -47t-115 -136.5t-80 -297.5l-79 -456h-148zM445 1564l217 275h164l102 -275h-130l-65 178
l-136 -178h-152z" />
    <glyph glyph-name="Hbar" unicode="&#x126;" horiz-adv-x="1212" 
d="M1208 1114l-190 -1114h-160l119 692h-625l-116 -692h-162l190 1114h-110l24 139h111l37 213h159l-36 -213h622l37 213h162l-37 -213h121l-23 -139h-123zM424 1114l-43 -256h625l43 256h-625z" />
    <glyph glyph-name="hbar" unicode="&#x127;" 
d="M147 1352h111l21 114h147l-18 -114h307l-27 -152h-307l-51 -297q150 182 303 182q103 0 165 -68t62 -175q0 -62 -26 -215l-109 -627h-147l110 643q23 122 23 176q0 119 -115 119q-89 0 -165 -62t-112.5 -159t-64.5 -262l-78 -455h-149l206 1200h-114z" />
    <glyph glyph-name="Itilde" unicode="&#x128;" horiz-adv-x="467" 
d="M96 0l251 1466h161l-251 -1466h-161zM214 1563q27 132 66.5 178t99.5 46q27 0 52.5 -8t86.5 -40q68 -37 91 -37q43 0 59 79h99q-9 -105 -55.5 -162t-105.5 -57q-33 0 -83 26q-113 60 -140 60q-54 0 -67 -85h-103z" />
    <glyph glyph-name="itilde" unicode="&#x129;" horiz-adv-x="467" 
d="M103 0l182 1062h148l-182 -1062h-148zM125 1226q27 132 66.5 178t99.5 46q27 0 52.5 -8t86.5 -40q68 -37 91 -37q43 0 59 79h99q-9 -105 -55.5 -162t-105.5 -57q-33 0 -83 26q-113 60 -140 60q-54 0 -67 -85h-103z" />
    <glyph glyph-name="Imacron" unicode="&#x12a;" horiz-adv-x="467" 
d="M96 0l251 1466h161l-251 -1466h-161zM189 1598l24 139h509l-24 -139h-509z" />
    <glyph glyph-name="imacron" unicode="&#x12b;" horiz-adv-x="467" 
d="M103 0l182 1062h148l-182 -1062h-148zM126 1229l24 139h509l-24 -139h-509z" />
    <glyph glyph-name="Ibreve" unicode="&#x12c;" horiz-adv-x="467" 
d="M96 0l251 1466h161l-251 -1466h-161zM233 1823h97q16 -140 128 -140q57 0 101 36.5t67 103.5h98q-29 -122 -103 -191t-168 -69q-93 0 -154 68.5t-66 191.5z" />
    <glyph glyph-name="ibreve" unicode="&#x12d;" horiz-adv-x="467" 
d="M103 0l182 1062h148l-182 -1062h-148zM155 1450h97q16 -140 128 -140q57 0 101 36.5t67 103.5h98q-29 -122 -103 -191t-168 -69q-93 0 -154 68.5t-66 191.5z" />
    <glyph glyph-name="Iogonek" unicode="&#x12e;" horiz-adv-x="467" 
d="M96 0l251 1466h161l-251 -1466h-161zM121 27h92q-48 -130 -48 -202q0 -57 27 -87t68 -30q55 0 143 43l-20 -120q-93 -56 -175 -56q-68 0 -107.5 46t-39.5 137q0 116 60 269z" />
    <glyph glyph-name="iogonek" unicode="&#x12f;" horiz-adv-x="373" 
d="M266 1261l35 205h148l-35 -205h-148zM50 0l182 1062h148l-182 -1062h-148zM80 27h92q-48 -130 -48 -202q0 -57 27 -87t68 -30q55 0 143 43l-20 -120q-93 -56 -175 -56q-68 0 -107.5 46t-39.5 137q0 116 60 269z" />
    <glyph glyph-name="Jcircumflex" unicode="&#x134;" horiz-adv-x="840" 
d="M68 427l149 13q-14 -85 -14 -127q0 -83 43.5 -129.5t113.5 -46.5q49 0 88.5 26t64.5 79.5t47 184.5l178 1039h161l-183 -1071q-39 -229 -130 -324.5t-230 -95.5q-141 0 -221 80.5t-80 239.5q0 67 13 132zM578 1564l217 275h164l102 -275h-130l-65 178l-136 -178h-152z
" />
    <glyph glyph-name="jcircumflex" unicode="&#x135;" horiz-adv-x="373" 
d="M-204 -399l26 154q51 -17 91 -17q48 0 76 40t58 212l183 1072h149l-190 -1105q-36 -210 -83 -285q-61 -97 -169 -97q-58 0 -141 26zM74 1191l217 275h164l102 -275h-130l-65 178l-136 -178h-152z" />
    <glyph glyph-name="Kcedilla" unicode="&#x136;" horiz-adv-x="1120" 
d="M75 0l251 1466h161l-121 -706l653 706h226l-558 -597l409 -869h-179l-348 743l-252 -267l-81 -476h-161zM474 -149l16 87q59 0 123 -12q58 -16 97.5 -62.5t39.5 -111.5q0 -79 -67 -128t-213 -49q-80 0 -140 12l18 112q50 -3 119 -3q78 0 109 20t31 52q0 35 -32.5 58.5
t-100.5 24.5z" />
    <glyph glyph-name="kcedilla" unicode="&#x137;" horiz-adv-x="840" 
d="M57 0l251 1466h149l-156 -909l432 505h197l-372 -396l224 -666h-162l-173 545l-181 -190l-61 -355h-148zM321 -149l16 87q59 0 123 -12q58 -16 97.5 -62.5t39.5 -111.5q0 -79 -67 -128t-213 -49q-80 0 -140 12l18 112q50 -3 119 -3q78 0 109 20t31 52q0 35 -32.5 58.5
t-100.5 24.5z" />
    <glyph glyph-name="kgreenlandic" unicode="&#x138;" horiz-adv-x="840" 
d="M50 0l189 1061h147l-82 -467l424 467h197l-432 -440l297 -621h-170l-236 510l-116 -121l-68 -389h-150z" />
    <glyph glyph-name="Lcedilla" unicode="&#x13b;" 
d="M67 0l251 1466h161l-223 -1300h624l-28 -166h-785zM372 -149l16 87q59 0 123 -12q58 -16 97.5 -62.5t39.5 -111.5q0 -79 -67 -128t-213 -49q-80 0 -140 12l18 112q50 -3 119 -3q78 0 109 20t31 52q0 35 -32.5 58.5t-100.5 24.5z" />
    <glyph glyph-name="lcedilla" unicode="&#x13c;" horiz-adv-x="373" 
d="M44 0l251 1466h149l-251 -1466h-149zM15 -149l16 87q59 0 123 -12q58 -16 97.5 -62.5t39.5 -111.5q0 -79 -67 -128t-213 -49q-80 0 -140 12l18 112q50 -3 119 -3q78 0 109 20t31 52q0 35 -32.5 58.5t-100.5 24.5z" />
    <glyph glyph-name="Ncedilla" unicode="&#x145;" horiz-adv-x="1212" 
d="M81 0l251 1466h157l202 -550q90 -243 141 -407q36 -113 78 -287q23 189 56 382l148 862h156l-251 -1466h-159l-299 847q-79 226 -124 395q-11 -143 -47 -351l-153 -891h-156zM445 -149l16 87q59 0 123 -12q58 -16 97.5 -62.5t39.5 -111.5q0 -79 -67 -128t-213 -49
q-80 0 -140 12l18 112q50 -3 119 -3q78 0 109 20t31 52q0 35 -32.5 58.5t-100.5 24.5z" />
    <glyph glyph-name="ncedilla" unicode="&#x146;" 
d="M56 0l182 1062h134l-31 -185q94 118 171 163.5t149 45.5q101 0 163.5 -68t62.5 -193q0 -56 -22 -182l-110 -643h-149l116 673q17 99 17 146q0 55 -31.5 86.5t-85.5 31.5q-112 0 -201.5 -99t-131.5 -344l-85 -494h-148zM280 -149l16 87q59 0 123 -12q58 -16 97.5 -62.5
t39.5 -111.5q0 -79 -67 -128t-213 -49q-80 0 -140 12l18 112q50 -3 119 -3q78 0 109 20t31 52q0 35 -32.5 58.5t-100.5 24.5z" />
    <glyph glyph-name="Eng" unicode="&#x14a;" horiz-adv-x="1214" 
d="M328 1466h161l-30 -178q147 203 354 203q178 0 282.5 -151.5t104.5 -415.5q0 -316 -115 -633.5t-358 -317.5q-148 0 -231 74l77 137q64 -43 132 -43q159 0 242 248t83 547q0 195 -70 291t-182 96q-127 0 -239.5 -114.5t-155.5 -368.5l-141 -840h-162z" />
    <glyph glyph-name="eng" unicode="&#x14b;" 
d="M870 643l-118 -686q-34 -208 -88 -295.5t-160 -87.5q-63 0 -158 35l53 149q39 -20 78 -20q54 0 80 46t53 206l115 684q16 87 16 141q0 123 -116 123q-108 0 -199 -98.5t-133 -345.5l-84 -494h-148l181 1063h135l-33 -186q163 208 326 208q98 0 159.5 -69t61.5 -176
q0 -79 -21 -197z" />
    <glyph glyph-name="Omacron" unicode="&#x14c;" horiz-adv-x="1307" 
d="M154 614q0 403 201 654q179 223 436 223q216 0 361.5 -174t145.5 -484q0 -249 -95 -451.5t-240 -304.5t-305 -102q-139 0 -250.5 74t-182.5 224t-71 341zM312 604q0 -213 106 -340t251 -127q110 0 216.5 81t179.5 254.5t73 378.5q0 222 -103.5 349.5t-250.5 127.5
q-170 0 -306 -167q-166 -205 -166 -557zM523 1598l24 139h509l-24 -139h-509z" />
    <glyph glyph-name="omacron" unicode="&#x14d;" 
d="M82 403q0 287 129 485t346 198q152 0 251 -116.5t99 -331.5q0 -197 -67.5 -352t-175 -232.5t-225.5 -77.5q-155 0 -256 114.5t-101 312.5zM231 421q0 -151 60 -228t150 -77q71 0 142 57.5t124 190.5t53 273q0 152 -60 230.5t-148 78.5q-77 0 -149.5 -57t-122 -188.5
t-49.5 -279.5zM304 1229l24 139h509l-24 -139h-509z" />
    <glyph glyph-name="Obreve" unicode="&#x14e;" horiz-adv-x="1307" 
d="M154 614q0 403 201 654q179 223 436 223q216 0 361.5 -174t145.5 -484q0 -249 -95 -451.5t-240 -304.5t-305 -102q-139 0 -250.5 74t-182.5 224t-71 341zM312 604q0 -213 106 -340t251 -127q110 0 216.5 81t179.5 254.5t73 378.5q0 222 -103.5 349.5t-250.5 127.5
q-170 0 -306 -167q-166 -205 -166 -557zM595 1823h97q16 -140 128 -140q57 0 101 36.5t67 103.5h98q-29 -122 -103 -191t-168 -69q-93 0 -154 68.5t-66 191.5z" />
    <glyph glyph-name="obreve" unicode="&#x14f;" 
d="M82 403q0 287 129 485t346 198q152 0 251 -116.5t99 -331.5q0 -197 -67.5 -352t-175 -232.5t-225.5 -77.5q-155 0 -256 114.5t-101 312.5zM231 421q0 -151 60 -228t150 -77q71 0 142 57.5t124 190.5t53 273q0 152 -60 230.5t-148 78.5q-77 0 -149.5 -57t-122 -188.5
t-49.5 -279.5zM385 1450h97q16 -140 128 -140q57 0 101 36.5t67 103.5h98q-29 -122 -103 -191t-168 -69q-93 0 -154 68.5t-66 191.5z" />
    <glyph glyph-name="Rcedilla" unicode="&#x156;" horiz-adv-x="1212" 
d="M79 0l251 1466h505q164 0 236.5 -35t107.5 -103q48 -92 48 -219q0 -191 -101.5 -303.5t-304.5 -146.5q67 -60 104 -125q72 -127 116 -258l92 -276h-180l-86 273q-49 157 -110 263q-39 69 -81.5 92t-137.5 23h-186l-112 -651h-161zM379 810h221q184 0 250 13.5t115.5 53
t78.5 100.5t29 135q0 67 -24.5 112.5t-61.5 63t-131 17.5h-393zM492 -149l16 87q59 0 123 -12q58 -16 97.5 -62.5t39.5 -111.5q0 -79 -67 -128t-213 -49q-80 0 -140 12l18 112q50 -3 119 -3q78 0 109 20t31 52q0 35 -32.5 58.5t-100.5 24.5z" />
    <glyph glyph-name="rcedilla" unicode="&#x157;" horiz-adv-x="559" 
d="M56 0l182 1062h131l-37 -217q131 241 263 241q45 0 110 -39l-61 -168q-39 34 -82 34q-82 0 -163.5 -107.5t-127.5 -379.5l-74 -426h-141zM201 -149l16 87q59 0 123 -12q58 -16 97.5 -62.5t39.5 -111.5q0 -79 -67 -128t-213 -49q-80 0 -140 12l18 112q50 -3 119 -3
q78 0 109 20t31 52q0 35 -32.5 58.5t-100.5 24.5z" />
    <glyph glyph-name="Scircumflex" unicode="&#x15c;" horiz-adv-x="1120" 
d="M119 474l157 18l-1 -49q0 -98 40 -174q30 -58 101.5 -94.5t170.5 -36.5q137 0 217 72.5t80 180.5q0 76 -45 132q-46 55 -219 146q-134 71 -182 107q-87 65 -128.5 143.5t-41.5 179.5q0 176 112.5 284t308.5 108q135 0 231 -51t152.5 -149t56.5 -210l-1 -31l-156 -15l1 33
q0 71 -35.5 132t-101.5 94.5t-152 33.5q-123 0 -191.5 -60t-68.5 -158q0 -89 52 -137t256 -158q149 -81 202.5 -131.5t83 -121t29.5 -158.5q0 -184 -129 -306.5t-338 -122.5q-226 0 -343 120.5t-118 378.5zM506 1564l217 275h164l102 -275h-130l-65 178l-136 -178h-152z" />
    <glyph glyph-name="scircumflex" unicode="&#x15d;" horiz-adv-x="840" 
d="M64 363l149 11q-1 -130 57 -194t158 -64q91 0 144 45.5t53 116.5q0 51 -33 92q-34 41 -147 100q-130 68 -171.5 104.5t-64.5 89t-23 117.5q0 133 86 219t226 86q155 0 245 -88.5t94 -247.5l-146 -12q-3 100 -57.5 154t-146.5 54q-72 0 -117 -40.5t-45 -93.5q0 -46 27 -79
q27 -34 137 -91q169 -89 215 -142q70 -83 70 -202q0 -132 -93.5 -227t-259.5 -95q-167 0 -262 96t-95 271v20zM335 1191l217 275h164l102 -275h-130l-65 178l-136 -178h-152z" />
    <glyph glyph-name="Tbar" unicode="&#x166;" horiz-adv-x="1026" 
d="M678 825l-139 -825h-162l141 825h-172l25 140h172l57 335h-395l28 166h947l-29 -166h-391l-58 -335h177l-23 -140h-178z" />
    <glyph glyph-name="tbar" unicode="&#x167;" horiz-adv-x="467" 
d="M305 565l-39 -229q-20 -110 -20 -135q0 -66 65 -66q47 0 88 12l-26 -149q-51 -16 -105 -16q-80 0 -129 44t-49 119q0 30 23 160l45 260h-174l24 140h174l37 217h-119l23 139h119l45 262l170 125l-68 -387h146l-23 -139h-145l-37 -217h186l-22 -140h-189z" />
    <glyph glyph-name="Utilde" unicode="&#x168;" horiz-adv-x="1212" 
d="M333 1466h161l-155 -901q-19 -112 -19 -167q0 -113 75 -187t193 -74q156 0 254 128q75 98 126 394l138 807h160l-147 -860q-42 -249 -114 -377t-176.5 -191.5t-234.5 -63.5q-200 0 -316 115.5t-116 310.5q0 78 34 266zM570 1599q27 132 66.5 178t99.5 46q27 0 52.5 -8
t86.5 -40q68 -37 91 -37q43 0 59 79h99q-9 -105 -55.5 -162t-105.5 -57q-33 0 -83 26q-113 60 -140 60q-54 0 -67 -85h-103z" />
    <glyph glyph-name="utilde" unicode="&#x169;" 
d="M650 192q-157 -216 -321 -216q-95 0 -159.5 68t-64.5 175q0 68 28 230l105 613h148l-116 -679q-15 -85 -15 -131q0 -63 31 -95.5t87 -32.5q79 0 157.5 63.5t115 159t63.5 256.5l79 459h148l-182 -1062h-137zM362 1226q27 132 66.5 178t99.5 46q27 0 52.5 -8t86.5 -40
q68 -37 91 -37q43 0 59 79h99q-9 -105 -55.5 -162t-105.5 -57q-33 0 -83 26q-113 60 -140 60q-54 0 -67 -85h-103z" />
    <glyph glyph-name="Umacron" unicode="&#x16a;" horiz-adv-x="1212" 
d="M333 1466h161l-155 -901q-19 -112 -19 -167q0 -113 75 -187t193 -74q156 0 254 128q75 98 126 394l138 807h160l-147 -860q-42 -249 -114 -377t-176.5 -191.5t-234.5 -63.5q-200 0 -316 115.5t-116 310.5q0 78 34 266zM553 1598l24 139h509l-24 -139h-509z" />
    <glyph glyph-name="umacron" unicode="&#x16b;" 
d="M650 192q-157 -216 -321 -216q-95 0 -159.5 68t-64.5 175q0 68 28 230l105 613h148l-116 -679q-15 -85 -15 -131q0 -63 31 -95.5t87 -32.5q79 0 157.5 63.5t115 159t63.5 256.5l79 459h148l-182 -1062h-137zM348 1229l24 139h509l-24 -139h-509z" />
    <glyph glyph-name="Ubreve" unicode="&#x16c;" horiz-adv-x="1212" 
d="M333 1466h161l-155 -901q-19 -112 -19 -167q0 -113 75 -187t193 -74q156 0 254 128q75 98 126 394l138 807h160l-147 -860q-42 -249 -114 -377t-176.5 -191.5t-234.5 -63.5q-200 0 -316 115.5t-116 310.5q0 78 34 266zM574 1823h97q16 -140 128 -140q57 0 101 36.5
t67 103.5h98q-29 -122 -103 -191t-168 -69q-93 0 -154 68.5t-66 191.5z" />
    <glyph glyph-name="ubreve" unicode="&#x16d;" 
d="M650 192q-157 -216 -321 -216q-95 0 -159.5 68t-64.5 175q0 68 28 230l105 613h148l-116 -679q-15 -85 -15 -131q0 -63 31 -95.5t87 -32.5q79 0 157.5 63.5t115 159t63.5 256.5l79 459h148l-182 -1062h-137zM371 1422h97q16 -140 128 -140q57 0 101 36.5t67 103.5h98
q-29 -122 -103 -191t-168 -69q-93 0 -154 68.5t-66 191.5z" />
    <glyph glyph-name="Uogonek" unicode="&#x172;" horiz-adv-x="1212" 
d="M333 1466h161l-155 -901q-19 -112 -19 -167q0 -113 75 -187t193 -74q156 0 254 128q75 98 126 394l138 807h160l-147 -860q-42 -249 -114 -377t-176.5 -191.5t-234.5 -63.5q-200 0 -316 115.5t-116 310.5q0 78 34 266zM529 27h92q-48 -130 -48 -202q0 -57 27 -87t68 -30
q55 0 143 43l-20 -120q-93 -56 -175 -56q-68 0 -107.5 46t-39.5 137q0 116 60 269z" />
    <glyph glyph-name="uogonek" unicode="&#x173;" 
d="M650 192q-157 -216 -321 -216q-95 0 -159.5 68t-64.5 175q0 68 28 230l105 613h148l-116 -679q-15 -85 -15 -131q0 -63 31 -95.5t87 -32.5q79 0 157.5 63.5t115 159t63.5 256.5l79 459h148l-182 -1062h-137zM638 27h92q-48 -130 -48 -202q0 -57 27 -87t68 -30
q55 0 143 43l-20 -120q-93 -56 -175 -56q-68 0 -107.5 46t-39.5 137q0 116 60 269z" />
    <glyph glyph-name="Wcircumflex" unicode="&#x174;" horiz-adv-x="1585" 
d="M284 0l-74 1466h163l28 -725q10 -238 10 -375l-1 -96l144 352l366 844h166l40 -857q7 -157 9 -354q15 50 50 147q61 166 91 238l343 826h163l-611 -1466h-172l-41 888q-5 116 -9 280q-52 -144 -83 -216l-416 -952h-166zM747 1564l217 275h164l102 -275h-130l-65 178
l-136 -178h-152z" />
    <glyph glyph-name="wcircumflex" unicode="&#x175;" horiz-adv-x="1212" 
d="M221 0l-91 1062h142l40 -477q14 -173 20 -389q40 159 97 312l207 554h162l29 -531q6 -113 8 -323q41 135 133 372l187 482h149l-426 -1062h-154l-32 623q-4 65 -5 226q-34 -108 -80 -231l-230 -618h-156zM482 1191l217 275h164l102 -275h-130l-65 178l-136 -178h-152z
" />
    <glyph glyph-name="Ycircumflex" unicode="&#x176;" horiz-adv-x="1120" 
d="M470 0l97 567l-370 899h172l178 -428q56 -136 113 -300q60 136 165 297l282 431h192l-574 -914l-94 -552h-161zM534 1564l217 275h164l102 -275h-130l-65 178l-136 -178h-152z" />
    <glyph glyph-name="ycircumflex" unicode="&#x177;" horiz-adv-x="840" 
d="M0 -410l9 170q46 -16 89 -16q45 0 72 24q38 34 80 125l47 104l-145 1065h146l66 -537q20 -161 34 -318l389 855h155l-555 -1203q-83 -182 -146.5 -236t-139.5 -54q-52 0 -101 21zM345 1191l217 275h164l102 -275h-130l-65 178l-136 -178h-152z" />
    <glyph glyph-name="longs" unicode="&#x17f;" horiz-adv-x="373" 
d="M54 0l208 1213q19 110 40 162.5t70 84t116 31.5q69 0 175 -29l-27 -158q-74 24 -127 24q-50 0 -70 -33t-35 -119l-201 -1176h-149z" />
    <glyph glyph-name="Aringacute" unicode="&#x1fa;" horiz-adv-x="1120" 
d="M-33 0l681 1466h190l198 -1466h-156l-58 422h-486l-193 -422h-176zM405 573h397l-46 368q-27 218 -34 365q-40 -126 -119 -299zM625 1671q0 78 45 130t104 52q60 0 105 -52t45 -130q0 -79 -45.5 -130.5t-104.5 -51.5t-104 51.5t-45 130.5zM686 1671q0 -46 26.5 -77
t61.5 -31t61.5 30.5t26.5 77.5q0 46 -26 76.5t-62 30.5q-35 0 -61.5 -30.5t-26.5 -76.5zM715 1871l154 275h187l-218 -275h-123z" />
    <glyph glyph-name="aringacute" unicode="&#x1fb;" 
d="M643 132q-82 -86 -154 -121t-146 -35q-116 0 -192.5 83t-76.5 226q0 102 44 178t123.5 116.5t227.5 47.5q125 7 171.5 15t79.5 24q18 76 18 124q0 67 -48.5 107.5t-140.5 40.5q-185 0 -240 -194l-150 16q95 326 399 326q150 0 238 -78.5t88 -197.5q0 -84 -20 -197
l-48 -264q-23 -126 -23 -204q0 -55 17 -145h-149q-13 50 -18 132zM698 538q-55 -26 -186 -40q-134 -14 -184 -36t-78 -67t-28 -104q0 -81 45 -128t120 -47q71 0 137 44t107.5 127t66.5 251zM468 1320q0 78 45 130t104 52q60 0 105 -52t45 -130q0 -79 -45.5 -130.5
t-104.5 -51.5t-104 51.5t-45 130.5zM529 1320q0 -46 26.5 -77t61.5 -31t61.5 30.5t26.5 77.5q0 46 -26 76.5t-62 30.5q-35 0 -61.5 -30.5t-26.5 -76.5zM567 1525l154 275h187l-218 -275h-123z" />
    <glyph glyph-name="AEacute" unicode="&#x1fc;" horiz-adv-x="1679" 
d="M-68 0l740 1466h1080l-28 -167h-620l-78 -456h627l-28 -166h-628l-87 -511h692l-29 -166h-861l72 418h-464l-205 -418h-183zM403 584h409l123 715h-173zM1063 1564l154 275h187l-218 -275h-123z" />
    <glyph glyph-name="aeacute" unicode="&#x1fd;" horiz-adv-x="1493" 
d="M1254 359l150 -17q-76 -195 -181.5 -280.5t-229.5 -85.5q-98 0 -180 58.5t-134 177.5q-63 -120 -150.5 -178.5t-181.5 -58.5q-126 0 -201 82t-75 228q0 118 58 205q44 65 120.5 92t239.5 43q138 14 197 36q19 71 19 123q0 78 -41 120t-116 42q-181 0 -245 -200l-147 15
q44 160 146.5 243t249.5 83q89 0 157 -36.5t115 -109.5q114 145 286 145q157 0 249.5 -124t92.5 -318q0 -58 -12 -159h-633q-3 -31 -3 -60q0 -152 54.5 -226.5t136.5 -74.5q73 0 141.5 57.5t117.5 177.5zM835 624h478l1 44q0 87 -26.5 151t-72.5 95.5t-99 31.5
q-82 0 -164 -85t-117 -237zM663 525q-88 -25 -212 -39q-102 -11 -143 -32t-63.5 -60.5t-22.5 -101.5q0 -80 44 -127.5t116 -47.5q98 0 166 85q87 109 115 323zM717 1191l154 275h187l-218 -275h-123z" />
    <glyph glyph-name="Oslashacute" unicode="&#x1fe;" horiz-adv-x="1307" 
d="M280 175q-127 184 -127 463q0 247 93.5 450t235.5 303t305 100q184 0 313 -117l131 192l73 -79l-133 -195q127 -177 127 -465q0 -243 -95.5 -446t-240 -304.5t-305.5 -101.5q-174 0 -304 117l-132 -195l-78 79zM379 320l625 914q-94 94 -215 94q-115 0 -225 -82
t-181.5 -248.5t-71.5 -372.5q0 -182 68 -305zM1071 1145l-623 -914q100 -94 221 -94q110 0 216 81t179.5 254.5t73.5 378.5q0 167 -67 294zM698 1564l154 275h187l-218 -275h-123z" />
    <glyph glyph-name="oslashacute" unicode="&#x1ff;" horiz-adv-x="1026" 
d="M808 1018l93 141l74 -72l-96 -147q77 -119 77 -302q0 -198 -67.5 -353t-175 -232t-226.5 -77q-109 0 -200 63l-93 -141l-74 69l95 144q-84 117 -84 299q0 275 127.5 475.5t347.5 200.5q116 0 202 -68zM727 894q-53 52 -126 52q-77 0 -149.5 -57t-122 -189t-49.5 -282
q0 -100 27 -166zM368 162q54 -46 121 -46q73 0 144 57.5t123.5 191t52.5 280.5q0 83 -24 152zM514 1191l154 275h187l-218 -275h-123z" />
    <glyph glyph-name="anoteleia" unicode="&#x387;" horiz-adv-x="559" 
d="M284 857l35 205h168l-35 -205h-168z" />
    <glyph glyph-name="Wgrave" unicode="&#x1e80;" horiz-adv-x="1585" 
d="M284 0l-74 1466h163l28 -725q10 -238 10 -375l-1 -96l144 352l366 844h166l40 -857q7 -157 9 -354q15 50 50 147q61 166 91 238l343 826h163l-611 -1466h-172l-41 888q-5 116 -9 280q-52 -144 -83 -216l-416 -952h-166zM986 1564l-160 275h180l96 -275h-116z" />
    <glyph glyph-name="wgrave" unicode="&#x1e81;" horiz-adv-x="1212" 
d="M221 0l-91 1062h142l40 -477q14 -173 20 -389q40 159 97 312l207 554h162l29 -531q6 -113 8 -323q41 135 133 372l187 482h149l-426 -1062h-154l-32 623q-4 65 -5 226q-34 -108 -80 -231l-230 -618h-156zM704 1191l-160 275h180l96 -275h-116z" />
    <glyph glyph-name="Wacute" unicode="&#x1e82;" horiz-adv-x="1585" 
d="M284 0l-74 1466h163l28 -725q10 -238 10 -375l-1 -96l144 352l366 844h166l40 -857q7 -157 9 -354q15 50 50 147q61 166 91 238l343 826h163l-611 -1466h-172l-41 888q-5 116 -9 280q-52 -144 -83 -216l-416 -952h-166zM870 1564l154 275h187l-218 -275h-123z" />
    <glyph glyph-name="wacute" unicode="&#x1e83;" horiz-adv-x="1212" 
d="M221 0l-91 1062h142l40 -477q14 -173 20 -389q40 159 97 312l207 554h162l29 -531q6 -113 8 -323q41 135 133 372l187 482h149l-426 -1062h-154l-32 623q-4 65 -5 226q-34 -108 -80 -231l-230 -618h-156zM618 1191l154 275h187l-218 -275h-123z" />
    <glyph glyph-name="Wdieresis" unicode="&#x1e84;" horiz-adv-x="1585" 
d="M284 0l-74 1466h163l28 -725q10 -238 10 -375l-1 -96l144 352l366 844h166l40 -857q7 -157 9 -354q15 50 50 147q61 166 91 238l343 826h163l-611 -1466h-172l-41 888q-5 116 -9 280q-52 -144 -83 -216l-416 -952h-166zM787 1600l35 205h155l-35 -205h-155zM1089 1600
l36 205h154l-35 -205h-155z" />
    <glyph glyph-name="wdieresis" unicode="&#x1e85;" horiz-adv-x="1212" 
d="M221 0l-91 1062h142l40 -477q14 -173 20 -389q40 159 97 312l207 554h162l29 -531q6 -113 8 -323q41 135 133 372l187 482h149l-426 -1062h-154l-32 623q-4 65 -5 226q-34 -108 -80 -231l-230 -618h-156zM509 1227l35 205h155l-35 -205h-155zM811 1227l36 205h154
l-35 -205h-155z" />
    <glyph glyph-name="Ygrave" unicode="&#x1ef2;" horiz-adv-x="1120" 
d="M470 0l97 567l-370 899h172l178 -428q56 -136 113 -300q60 136 165 297l282 431h192l-574 -914l-94 -552h-161zM734 1564l-160 275h180l96 -275h-116z" />
    <glyph glyph-name="ygrave" unicode="&#x1ef3;" horiz-adv-x="840" 
d="M0 -410l9 170q46 -16 89 -16q45 0 72 24q38 34 80 125l47 104l-145 1065h146l66 -537q20 -161 34 -318l389 855h155l-555 -1203q-83 -182 -146.5 -236t-139.5 -54q-52 0 -101 21zM510 1191l-160 275h180l96 -275h-116z" />
    <glyph glyph-name="quotereversed" unicode="&#x201b;" horiz-adv-x="373" 
d="M381 965q-125 21 -125 190q0 47 14 131l31 180h170l-37 -204h-92q-8 -61 -8 -82q0 -113 63 -136z" />
    <glyph glyph-name="radicalex" unicode="&#x203e;" 
d="M75 1869h1018v-74h-1018v74z" />
    <glyph glyph-name="afii08941" unicode="&#x20a4;" 
d="M293 501h-198l26 150h185q0 25 -14 151h-144l25 151h104q-3 33 -3 63q0 217 118 346t277 129q143 0 238.5 -100.5t112.5 -288.5l-136 -17q-12 126 -69.5 193.5t-142.5 67.5q-99 0 -172.5 -90.5t-73.5 -246.5q0 -30 2 -56h278l-26 -151h-240q9 -80 9 -151h205l-26 -150
h-190q-34 -173 -163 -289q42 8 83 8q84 0 185 -42q72 -29 120 -29q90 0 178 63l45 -163q-126 -75 -223 -75q-58 0 -149 46q-106 54 -189 54q-129 0 -256 -99l-17 177q199 158 241 349z" />
    <glyph glyph-name="estimated" unicode="&#x212e;" horiz-adv-x="1229" 
d="M321 531v-371q120 -121 298 -121q254 0 395 246l72 -43q-117 -168 -231 -222t-236 -54q-232 0 -380.5 158.5t-148.5 406.5q0 249 148.5 407t380.5 158q214 0 366 -142.5t163 -422.5h-827zM917 605v297q-123 121 -300 121q-175 0 -296 -122v-296h596z" />
    <glyph glyph-name="oneeighth" unicode="&#x215b;" horiz-adv-x="1401" 
d="M343 733l91 532q-84 -72 -206 -102l22 127q66 24 150 86q62 46 103 108h91l-128 -751h-123zM101 -61l1145 1552h143l-1155 -1552h-133zM1028 367q-103 47 -103 155q0 85 62.5 139t163.5 54q106 0 164.5 -48.5t58.5 -134.5q0 -131 -142 -174q117 -36 117 -168
q0 -108 -69.5 -175.5t-190.5 -67.5q-120 0 -176.5 62.5t-56.5 148.5q0 71 43.5 133.5t128.5 75.5zM1159 606q-47 0 -82 -27t-35 -79q0 -34 22 -61t74 -27q50 0 82.5 26.5t32.5 75.5q0 45 -27.5 68.5t-66.5 23.5zM1122 309q-63 0 -103 -37.5t-40 -105.5q0 -111 106 -111
q60 0 101.5 36t41.5 106q0 112 -106 112z" />
    <glyph glyph-name="threeeighths" unicode="&#x215c;" horiz-adv-x="1401" 
d="M138 930l117 16q37 -111 134 -111q57 0 90.5 34.5t33.5 89.5q0 50 -28 76.5t-86 26.5h-34l19 107l27 -1q54 0 94.5 29t40.5 84q0 42 -27.5 68.5t-73.5 26.5q-90 0 -123 -102l-121 19q22 89 85.5 140t157.5 51q107 0 167 -54.5t60 -142.5q0 -136 -138 -176
q60 -29 84.5 -69.5t24.5 -99.5q0 -94 -70 -160.5t-179 -66.5q-96 0 -165 58.5t-90 156.5zM121 -61l1145 1552h143l-1155 -1552h-133zM1032 367q-103 47 -103 155q0 85 62.5 139t163.5 54q106 0 164.5 -48.5t58.5 -134.5q0 -131 -142 -174q117 -36 117 -168
q0 -108 -69.5 -175.5t-190.5 -67.5q-120 0 -176.5 62.5t-56.5 148.5q0 71 43.5 133.5t128.5 75.5zM1163 606q-47 0 -82 -27t-35 -79q0 -34 22 -61t74 -27q50 0 82.5 26.5t32.5 75.5q0 45 -27.5 68.5t-66.5 23.5zM1126 309q-63 0 -103 -37.5t-40 -105.5q0 -111 106 -111
q60 0 101.5 36t41.5 106q0 112 -106 112z" />
    <glyph glyph-name="fiveeighths" unicode="&#x215d;" horiz-adv-x="1401" 
d="M143 940l121 8q21 -112 117 -112q65 0 106 44t41 119q0 63 -31 97t-73 34q-71 0 -137 -57l-111 8l92 385h412l-21 -120h-315l-39 -160q80 55 150 55q88 0 146 -66.5t58 -154.5q0 -117 -79 -211t-205 -94q-104 0 -166.5 67.5t-65.5 157.5zM121 -61l1145 1552h143
l-1155 -1552h-133zM1032 367q-103 47 -103 155q0 85 62.5 139t163.5 54q106 0 164.5 -48.5t58.5 -134.5q0 -131 -142 -174q117 -36 117 -168q0 -108 -69.5 -175.5t-190.5 -67.5q-120 0 -176.5 62.5t-56.5 148.5q0 71 43.5 133.5t128.5 75.5zM1163 606q-47 0 -82 -27t-35 -79
q0 -34 22 -61t74 -27q50 0 82.5 26.5t32.5 75.5q0 45 -27.5 68.5t-66.5 23.5zM1126 309q-63 0 -103 -37.5t-40 -105.5q0 -111 106 -111q60 0 101.5 36t41.5 106q0 112 -106 112z" />
    <glyph glyph-name="seveneighths" unicode="&#x215e;" horiz-adv-x="1401" 
d="M240 733q71 352 301 613h-346l22 120h467l-20 -120q-99 -102 -184.5 -274.5t-110.5 -338.5h-129zM85 -61l1145 1552h143l-1155 -1552h-133zM1028 363q-103 47 -103 155q0 85 62.5 139t163.5 54q106 0 164.5 -48.5t58.5 -134.5q0 -131 -142 -174q117 -36 117 -168
q0 -108 -69.5 -175.5t-190.5 -67.5q-120 0 -176.5 62.5t-56.5 148.5q0 71 43.5 133.5t128.5 75.5zM1159 602q-47 0 -82 -27t-35 -79q0 -34 22 -61t74 -27q50 0 82.5 26.5t32.5 75.5q0 45 -27.5 68.5t-66.5 23.5zM1122 305q-63 0 -103 -37.5t-40 -105.5q0 -111 106 -111
q60 0 101.5 36t41.5 106q0 112 -106 112z" />
    <glyph glyph-name="commaaccent" horiz-adv-x="559" 
d="M94 -305l32 184h152l-27 -161q-18 -105 -72 -167t-119 -69l12 71q82 27 105 142h-83z" />
    <glyph glyph-name="undercommaaccent" horiz-adv-x="559" 
d="M207 -149l16 87q59 0 123 -12q58 -16 97.5 -62.5t39.5 -111.5q0 -79 -67 -128t-213 -49q-80 0 -140 12l18 112q50 -3 119 -3q78 0 109 20t31 52q0 35 -32.5 58.5t-100.5 24.5z" />
    <glyph glyph-name="tonos" unicode="&#x384;" horiz-adv-x="559" 
d="M316 1191l154 275h187l-218 -275h-123z" />
    <glyph glyph-name="dieresistonos" unicode="&#x385;" horiz-adv-x="559" 
d="M290 1190l146 276h149l-195 -276h-100zM81 1190l33 194h145l-32 -194h-146zM577 1190l35 194h143l-33 -194h-145z" />
    <glyph glyph-name="Alphatonos" unicode="&#x386;" horiz-adv-x="1120" 
d="M-33 0l681 1466h190l198 -1466h-156l-58 422h-486l-193 -422h-176zM405 573h397l-46 368q-27 218 -34 365q-40 -126 -119 -299zM232 1191l154 275h187l-218 -275h-123z" />
    <glyph glyph-name="Epsilontonos" unicode="&#x388;" horiz-adv-x="1325" 
d="M280 0l251 1466h868l-28 -167h-708l-78 -456h688l-28 -167h-688l-88 -510h757l-29 -166h-917zM116 1191l154 275h187l-218 -275h-123z" />
    <glyph glyph-name="Etatonos" unicode="&#x389;" horiz-adv-x="1421" 
d="M286 0l251 1466h161l-104 -609h623l104 609h161l-251 -1466h-161l118 691h-623l-118 -691h-161zM120 1191l154 275h187l-218 -275h-123z" />
    <glyph glyph-name="Iotatonos" unicode="&#x38a;" horiz-adv-x="655" 
d="M280 0l251 1466h161l-251 -1466h-161zM116 1191l154 275h187l-218 -275h-123z" />
    <glyph glyph-name="Omicrontonos" unicode="&#x38c;" horiz-adv-x="1333" 
d="M174 614q0 403 201 654q179 223 436 223q216 0 361.5 -174t145.5 -484q0 -249 -95 -451.5t-240 -304.5t-305 -102q-139 0 -250.5 74t-182.5 224t-71 341zM332 604q0 -213 106 -340t251 -127q110 0 216.5 81t179.5 254.5t73 378.5q0 222 -103.5 349.5t-250.5 127.5
q-170 0 -306 -167q-166 -205 -166 -557zM84 1191l154 275h187l-218 -275h-123z" />
    <glyph glyph-name="Upsilontonos" unicode="&#x38e;" horiz-adv-x="1454" 
d="M806 0l97 567l-370 899h172l178 -428q56 -136 113 -300q60 136 165 297l282 431h192l-574 -914l-94 -552h-161zM116 1191l154 275h187l-218 -275h-123z" />
    <glyph glyph-name="Omegatonos" unicode="&#x38f;" horiz-adv-x="1303" 
d="M529 0h-506l31 166h299q-176 207 -176 498q0 331 184 579t445 248q209 0 346 -181.5t137 -475.5q0 -427 -285 -668h262l-30 -166h-500l29 154q176 75 271 255.5t95 426.5q0 223 -97 358t-243 135q-182 0 -319 -203t-137 -491q0 -341 223 -481zM80 1191l154 275h187
l-218 -275h-123z" />
    <glyph glyph-name="iotadieresistonos" unicode="&#x390;" horiz-adv-x="467" 
d="M103 0l182 1062h148l-182 -1062h-148zM250 1190l146 276h149l-195 -276h-100zM41 1190l33 194h145l-32 -194h-146zM537 1190l35 194h143l-33 -194h-145z" />
    <glyph glyph-name="Alpha" unicode="&#x391;" horiz-adv-x="1120" 
d="M-33 0l681 1466h190l198 -1466h-156l-58 422h-486l-193 -422h-176zM405 573h397l-46 368q-27 218 -34 365q-40 -126 -119 -299z" />
    <glyph glyph-name="Beta" unicode="&#x392;" horiz-adv-x="1120" 
d="M73 0l251 1466h373q136 0 202 -24q96 -34 148.5 -117.5t52.5 -208.5q0 -123 -56 -213.5t-166 -137.5q95 -38 145 -115t50 -186q0 -126 -60.5 -238t-153.5 -169t-204 -57h-582zM378 840h244q176 0 244 61q83 78 83 206q0 65 -26 110.5t-66 63.5t-145 18h-256zM262 166h274
q108 0 144 8q65 14 114.5 47t81.5 98.5t32 142.5q0 110 -56 160.5t-197 50.5h-306z" />
    <glyph glyph-name="Delta" unicode="&#x394;" horiz-adv-x="1126" 
d="M1044 0h-1069l682 1466h188zM610 1008l-383 -842h639l-103 776q-24 192 -32 365q-35 -109 -121 -299z" />
    <glyph glyph-name="Epsilon" unicode="&#x395;" horiz-adv-x="1120" 
d="M76 0l251 1466h868l-28 -167h-708l-78 -456h688l-28 -167h-688l-88 -510h757l-29 -166h-917z" />
    <glyph glyph-name="Zeta" unicode="&#x396;" horiz-adv-x="1026" 
d="M41 0l15 147l728 1063q38 56 72 101q-76 -12 -120 -12h-525l29 167h829l-14 -153l-645 -935l-151 -217q39 6 81 6h621l-29 -167h-891z" />
    <glyph glyph-name="Eta" unicode="&#x397;" horiz-adv-x="1212" 
d="M70 0l251 1466h161l-104 -609h623l104 609h161l-251 -1466h-161l118 691h-623l-118 -691h-161z" />
    <glyph glyph-name="Iota" unicode="&#x399;" horiz-adv-x="467" 
d="M96 0l251 1466h161l-251 -1466h-161z" />
    <glyph glyph-name="Kappa" unicode="&#x39a;" horiz-adv-x="1120" 
d="M75 0l251 1466h161l-121 -706l653 706h226l-558 -597l409 -869h-179l-348 743l-252 -267l-81 -476h-161z" />
    <glyph glyph-name="Lambda" unicode="&#x39b;" horiz-adv-x="1120" 
d="M644 1466h172l232 -1466h-156l-139 872q-33 201 -49 385q-64 -159 -125 -296l-428 -961h-166z" />
    <glyph glyph-name="Mu" unicode="&#x39c;" horiz-adv-x="1399" 
d="M74 0l251 1466h197l122 -950q24 -189 31 -359q51 149 167 401l422 908h201l-251 -1466h-158l125 713q44 248 125 554q-52 -143 -129 -308l-447 -959h-155l-121 940q-16 124 -24 301q-19 -187 -39 -306l-161 -935h-156z" />
    <glyph glyph-name="Nu" unicode="&#x39d;" horiz-adv-x="1212" 
d="M81 0l251 1466h157l202 -550q90 -243 141 -407q36 -113 78 -287q23 189 56 382l148 862h156l-251 -1466h-159l-299 847q-79 226 -124 395q-11 -143 -47 -351l-153 -891h-156z" />
    <glyph glyph-name="Xi" unicode="&#x39e;" horiz-adv-x="1090" 
d="M288 1300l29 166h846l-29 -166h-846zM196 674l29 166h811l-29 -166h-811zM7 0l29 166h952l-28 -166h-953z" />
    <glyph glyph-name="Omicron" unicode="&#x39f;" horiz-adv-x="1307" 
d="M154 614q0 403 201 654q179 223 436 223q216 0 361.5 -174t145.5 -484q0 -249 -95 -451.5t-240 -304.5t-305 -102q-139 0 -250.5 74t-182.5 224t-71 341zM312 604q0 -213 106 -340t251 -127q110 0 216.5 81t179.5 254.5t73 378.5q0 222 -103.5 349.5t-250.5 127.5
q-170 0 -306 -167q-166 -205 -166 -557z" />
    <glyph glyph-name="Pi" unicode="&#x3a0;" horiz-adv-x="1212" 
d="M232 0h-162l252 1466h944l-252 -1466h-160l228 1300h-623z" />
    <glyph glyph-name="Rho" unicode="&#x3a1;" horiz-adv-x="1120" 
d="M73 0l251 1466h503q130 0 193.5 -35.5t108 -122.5t44.5 -202q0 -149 -71.5 -281.5t-187 -181t-278.5 -48.5h-300l-102 -595h-161zM364 761h265q144 0 216 35.5t120.5 119.5t48.5 184q0 77 -25 123t-68 65t-155 19h-308z" />
    <glyph glyph-name="Sigma" unicode="&#x3a3;" horiz-adv-x="1008" 
d="M257 1268l33 198h830l-29 -166h-660l367 -569l-518 -565h614l-28 -166h-828l31 184l522 570z" />
    <glyph glyph-name="Tau" unicode="&#x3a4;" horiz-adv-x="1026" 
d="M381 0l223 1299h-395l29 167h946l-28 -167h-392l-222 -1299h-161z" />
    <glyph glyph-name="Upsilon" unicode="&#x3a5;" horiz-adv-x="1120" 
d="M470 0l97 567l-370 899h172l178 -428q56 -136 113 -300q60 136 165 297l282 431h192l-574 -914l-94 -552h-161z" />
    <glyph glyph-name="Chi" unicode="&#x3a7;" horiz-adv-x="1120" 
d="M-53 0l574 741l-340 725h177l155 -332q80 -171 117 -270q62 101 188 263l264 339h209l-580 -757l329 -709h-175l-195 429q-27 59 -66 162q-44 -72 -108 -155l-336 -436h-213z" />
    <glyph glyph-name="Psi" unicode="&#x3a8;" horiz-adv-x="1395" 
d="M239 1178l51 288h160l-47 -278q-39 -217 -39 -311q0 -235 297 -261l147 850h160l-145 -850q195 11 293.5 105.5t154.5 417.5l57 327h160l-65 -376q-41 -231 -106 -362t-200 -201.5t-323 -75.5l-80 -451h-162l80 455q-426 50 -426 438q0 100 33 285z" />
    <glyph glyph-name="Ohm" unicode="&#x3a9;" horiz-adv-x="1278" 
d="M501 0h-506l31 166h299q-176 207 -176 498q0 331 184 579t445 248q209 0 346 -181.5t137 -475.5q0 -427 -285 -668h262l-30 -166h-500l29 154q176 75 271 255.5t95 426.5q0 223 -97 358t-243 135q-182 0 -319 -203t-137 -491q0 -341 223 -481z" />
    <glyph glyph-name="Iotadieresis" unicode="&#x3aa;" horiz-adv-x="467" 
d="M96 0l251 1466h161l-251 -1466h-161zM227 1599l35 205h155l-35 -205h-155zM529 1599l36 205h154l-35 -205h-155z" />
    <glyph glyph-name="Upsilondieresis" unicode="&#x3ab;" horiz-adv-x="1120" 
d="M470 0l97 567l-370 899h172l178 -428q56 -136 113 -300q60 136 165 297l282 431h192l-574 -914l-94 -552h-161zM516 1599l35 205h155l-35 -205h-155zM818 1599l36 205h154l-35 -205h-155z" />
    <glyph glyph-name="alphatonos" unicode="&#x3ac;" horiz-adv-x="954" 
d="M671 0l-16 158q-123 -181 -277 -181q-137 0 -217 115t-80 318q0 285 130.5 480t299.5 195q174 0 260 -217l74 193h158l-195 -514v-215q0 -154 13 -332h-150zM530 938q-123 0 -212 -164.5t-89 -378.5q0 -127 48 -198.5t122 -71.5q124 0 215.5 162.5t91.5 369.5
q0 129 -49.5 205t-126.5 76zM465 1191l154 275h187l-218 -275h-123z" />
    <glyph glyph-name="epsilontonos" unicode="&#x3ad;" horiz-adv-x="737" 
d="M261 563q-86 94 -86 213q0 130 90 219.5t216 89.5q173 0 288 -151l-114 -92q-75 96 -168 96q-72 0 -118 -50t-46 -118q0 -142 194 -162l-22 -135l-37 2q-112 0 -179 -60.5t-67 -150.5q0 -68 37.5 -107.5t99.5 -39.5q129 0 240 129l90 -117q-139 -152 -323 -152
q-139 0 -220 79.5t-81 207.5q0 198 206 299zM389 1191l154 275h187l-218 -275h-123z" />
    <glyph glyph-name="etatonos" unicode="&#x3ae;" 
d="M374 1061l-33 -184q164 208 324 208q99 0 161 -68.5t62 -185.5q0 -54 -22 -188l-177 -1051h-147l180 1082q19 120 19 135q0 129 -119 129q-99 0 -193 -90.5t-139 -353.5l-84 -494h-149l182 1061h135zM491 1191l154 275h187l-218 -275h-123z" />
    <glyph glyph-name="iotatonos" unicode="&#x3af;" horiz-adv-x="467" 
d="M103 0l182 1062h148l-182 -1062h-148zM262 1191l154 275h187l-218 -275h-123z" />
    <glyph glyph-name="upsilondieresistonos" unicode="&#x3b0;" horiz-adv-x="924" 
d="M163 662l68 399h149l-98 -569q-23 -136 -23 -185q0 -82 48 -132t122 -50q95 0 156 76.5t100 302.5l97 557h147l-84 -498q-56 -334 -153.5 -460t-259.5 -126q-141 0 -226.5 92t-85.5 248q0 90 43 345zM485 1190l146 276h149l-195 -276h-100zM276 1190l33 194h145l-32 -194
h-146zM772 1190l35 194h143l-33 -194h-145z" />
    <glyph glyph-name="beta" unicode="&#x3b2;" horiz-adv-x="958" 
d="M698 801q202 -112 202 -359q0 -190 -105.5 -327.5t-277.5 -137.5q-185 0 -286 181l-103 -566h-145l215 1246q42 245 85.5 368.5t141 204t213.5 80.5q124 0 211.5 -95t87.5 -243q0 -263 -239 -352zM358 893l-52 -299q-22 -131 -22 -205q0 -131 68.5 -211t158.5 -80
q102 0 176 101t74 250q0 282 -301 288l23 121q154 7 234.5 85t80.5 210q0 83 -46 136.5t-110 53.5q-207 0 -284 -450z" />
    <glyph glyph-name="gamma" unicode="&#x3b3;" horiz-adv-x="840" 
d="M928 1061l-506 -1061l-69 -408h-148l70 408l-152 1061h146l73 -584q15 -106 31 -313q46 122 109 260l291 637h155z" />
    <glyph glyph-name="zeta" unicode="&#x3b6;" horiz-adv-x="778" 
d="M360 1315l26 151h545l-22 -123q-337 -225 -515 -493t-178 -492q0 -127 49.5 -162t141.5 -41t133.5 -32t72.5 -92t31 -140q0 -310 -378 -315l63 148q176 14 176 153q0 50 -27 82.5t-132 40.5q-157 12 -217 117t-60 229q0 253 178 522t428 447h-315z" />
    <glyph glyph-name="eta" unicode="&#x3b7;" 
d="M374 1061l-33 -184q164 208 324 208q99 0 161 -68.5t62 -185.5q0 -54 -22 -188l-177 -1051h-147l180 1082q19 120 19 135q0 129 -119 129q-99 0 -193 -90.5t-139 -353.5l-84 -494h-149l182 1061h135z" />
    <glyph glyph-name="theta" unicode="&#x3b8;" horiz-adv-x="911" 
d="M424 -23q-144 0 -233.5 137t-89.5 375q0 348 141.5 675t366.5 327q143 0 233 -132t90 -364q0 -414 -148 -716t-360 -302zM287 801h484q22 162 22 239q0 141 -53 222t-131 81q-217 0 -322 -542zM746 649h-483q-15 -118 -15 -207q0 -147 51 -232t132 -85q213 0 315 524z
" />
    <glyph glyph-name="iota" unicode="&#x3b9;" horiz-adv-x="467" 
d="M103 0l182 1062h148l-182 -1062h-148z" />
    <glyph glyph-name="kappa" unicode="&#x3ba;" horiz-adv-x="840" 
d="M50 0l189 1061h147l-82 -467l424 467h197l-432 -440l297 -621h-170l-236 510l-116 -121l-68 -389h-150z" />
    <glyph glyph-name="lambda" unicode="&#x3bb;" horiz-adv-x="827" 
d="M419 1466h148l186 -1466h-148l-102 834l-393 -834h-150l512 1061z" />
    <glyph glyph-name="mu" unicode="&#x3bc;" horiz-adv-x="1180" 
d="M323 1062h179l-106 -499q-39 -182 -39 -255q0 -80 53 -130.5t145 -50.5q123 0 209 89q64 68 108 274l120 572h179l-226 -1062h-161l18 84q-136 -109 -266 -109q-74 0 -129.5 30t-108.5 95l-108 -510h-178z" />
    <glyph glyph-name="nu" unicode="&#x3bd;" horiz-adv-x="840" 
d="M275 0l-143 1062h144l75 -585q12 -100 30 -313q43 114 110 259l290 639h157l-498 -1062h-165z" />
    <glyph glyph-name="xi" unicode="&#x3be;" horiz-adv-x="750" 
d="M745 1493h104l-26 -152h-111q-135 0 -211 -59t-76 -149q0 -75 54 -113.5t270 -38.5l-25 -147h-30q-169 0 -305 -138t-136 -323q0 -170 155 -208q169 -42 214 -110.5t45 -158.5q0 -136 -93 -227t-302 -93l63 148q193 12 193 141q0 47 -27 80.5t-127.5 51.5t-155 63.5
t-88.5 129t-34 179.5q0 173 88.5 312t251.5 206q-158 71 -158 254q0 138 97.5 245t369.5 107z" />
    <glyph glyph-name="omicron" unicode="&#x3bf;" 
d="M82 403q0 287 129 485t346 198q152 0 251 -116.5t99 -331.5q0 -197 -67.5 -352t-175 -232.5t-225.5 -77.5q-155 0 -256 114.5t-101 312.5zM231 421q0 -151 60 -228t150 -77q71 0 142 57.5t124 190.5t53 273q0 152 -60 230.5t-148 78.5q-77 0 -149.5 -57t-122 -188.5
t-49.5 -279.5z" />
    <glyph glyph-name="rho" unicode="&#x3c1;" horiz-adv-x="961" 
d="M223 127l-95 -535h-149l147 832q67 384 188 522.5t283 138.5q149 0 246.5 -120.5t97.5 -315.5q0 -277 -135 -474.5t-317 -197.5q-173 0 -266 150zM593 938q-128 0 -219.5 -165.5t-91.5 -379.5q0 -126 54 -197t140 -71q126 0 222 159t96 363q0 132 -56 211.5t-145 79.5z
" />
    <glyph glyph-name="sigma1" unicode="&#x3c2;" horiz-adv-x="817" 
d="M171 -422l56 148l79 -2q209 0 209 131q0 33 -23 67t-161 126.5t-189 198t-51 220.5q0 241 169.5 429.5t412.5 188.5q122 0 227 -57l-53 -135q-83 45 -172 45q-177 0 -306.5 -147.5t-129.5 -325.5q0 -111 40.5 -168t154 -141t163 -140.5t49.5 -160.5q0 -102 -73 -190.5
t-273 -88.5q-90 0 -129 2z" />
    <glyph glyph-name="upsilon" unicode="&#x3c5;" horiz-adv-x="924" 
d="M163 662l68 399h149l-98 -569q-23 -136 -23 -185q0 -82 48 -132t122 -50q95 0 156 76.5t100 302.5l97 557h147l-84 -498q-56 -334 -153.5 -460t-259.5 -126q-141 0 -226.5 92t-85.5 248q0 90 43 345z" />
    <glyph glyph-name="chi" unicode="&#x3c7;" horiz-adv-x="918" 
d="M347 358l-176 703h154l135 -586l352 586h181l-453 -737l205 -732h-160l-149 621l-377 -621h-179z" />
    <glyph glyph-name="psi" unicode="&#x3c8;" horiz-adv-x="1223" 
d="M140 475l99 586h151l-82 -455q-30 -177 -30 -254q0 -227 221 -235l164 944h147l-164 -942q132 3 200 57.5t98.5 151.5t66.5 297l78 436h147l-88 -510q-63 -365 -182 -465t-342 -111l-68 -383h-149l67 388q-345 29 -345 362q0 62 11 133z" />
    <glyph glyph-name="omega" unicode="&#x3c9;" horiz-adv-x="1309" 
d="M640 207q-110 -230 -293 -230q-117 0 -190.5 103.5t-73.5 284.5q0 329 236 696h147q-235 -423 -235 -715q0 -109 35.5 -169t95.5 -60q63 0 122.5 71.5t90.5 180.5t69 331l17 95h149l-35 -193q-32 -175 -32 -268q0 -102 36.5 -159.5t96.5 -57.5q98 0 178 170.5t80 443.5
q0 154 -41 330h149q39 -188 39 -354q0 -312 -122 -521t-289 -209q-174 0 -230 230z" />
    <glyph glyph-name="iotadieresis" unicode="&#x3ca;" horiz-adv-x="467" 
d="M103 0l182 1062h148l-182 -1062h-148zM149 1227l35 205h155l-35 -205h-155zM451 1227l36 205h154l-35 -205h-155z" />
    <glyph glyph-name="upsilondieresis" unicode="&#x3cb;" horiz-adv-x="924" 
d="M163 662l68 399h149l-98 -569q-23 -136 -23 -185q0 -82 48 -132t122 -50q95 0 156 76.5t100 302.5l97 557h147l-84 -498q-56 -334 -153.5 -460t-259.5 -126q-141 0 -226.5 92t-85.5 248q0 90 43 345zM360 1227l35 205h155l-35 -205h-155zM662 1227l36 205h154l-35 -205
h-155z" />
    <glyph glyph-name="omicrontonos" unicode="&#x3cc;" 
d="M82 403q0 287 129 485t346 198q152 0 251 -116.5t99 -331.5q0 -197 -67.5 -352t-175 -232.5t-225.5 -77.5q-155 0 -256 114.5t-101 312.5zM231 421q0 -151 60 -228t150 -77q71 0 142 57.5t124 190.5t53 273q0 152 -60 230.5t-148 78.5q-77 0 -149.5 -57t-122 -188.5
t-49.5 -279.5zM454 1191l154 275h187l-218 -275h-123z" />
    <glyph glyph-name="upsilontonos" unicode="&#x3cd;" horiz-adv-x="924" 
d="M163 662l68 399h149l-98 -569q-23 -136 -23 -185q0 -82 48 -132t122 -50q95 0 156 76.5t100 302.5l97 557h147l-84 -498q-56 -334 -153.5 -460t-259.5 -126q-141 0 -226.5 92t-85.5 248q0 90 43 345zM473 1191l154 275h187l-218 -275h-123z" />
    <glyph glyph-name="omegatonos" unicode="&#x3ce;" horiz-adv-x="1309" 
d="M640 207q-110 -230 -293 -230q-117 0 -190.5 103.5t-73.5 284.5q0 329 236 696h147q-235 -423 -235 -715q0 -109 35.5 -169t95.5 -60q63 0 122.5 71.5t90.5 180.5t69 331l17 95h149l-35 -193q-32 -175 -32 -268q0 -102 36.5 -159.5t96.5 -57.5q98 0 178 170.5t80 443.5
q0 154 -41 330h149q39 -188 39 -354q0 -312 -122 -521t-289 -209q-174 0 -230 230zM673 1191l154 275h187l-218 -275h-123z" />
    <glyph glyph-name="afii10023" unicode="&#x401;" horiz-adv-x="1120" 
d="M76 0l251 1466h868l-28 -167h-708l-78 -456h688l-28 -167h-688l-88 -510h757l-29 -166h-917zM599 1599l35 205h155l-35 -205h-155zM901 1599l36 205h154l-35 -205h-155z" />
    <glyph glyph-name="afii10051" unicode="&#x402;" horiz-adv-x="1415" 
d="M731 195q103 -58 174 -58q119 0 203 113t84 274q0 118 -65.5 189t-178.5 71q-147 0 -342 -98l-125 -686h-157l229 1300h-393l30 166h947l-31 -166h-391l-80 -452q184 90 332 90q208 0 296.5 -124.5t88.5 -295.5q0 -227 -125 -385t-324 -158q-99 0 -203 45z" />
    <glyph glyph-name="afii10052" unicode="&#x403;" horiz-adv-x="958" 
d="M235 0h-162l252 1466h784l-28 -166h-625zM637 1564l154 275h187l-218 -275h-123z" />
    <glyph glyph-name="afii10053" unicode="&#x404;" horiz-adv-x="1188" 
d="M967 508l155 -27q-67 -242 -211 -373t-327 -131q-216 0 -345.5 162.5t-129.5 452.5q0 390 180 644.5t450 254.5q180 0 300.5 -122t144.5 -343l-154 -18q-51 321 -287 321q-158 0 -274 -125.5t-174 -365.5h440l-33 -174h-432q-2 -32 -2 -89q0 -201 92 -322.5t238 -121.5
q258 0 369 377z" />
    <glyph glyph-name="afii10054" unicode="&#x405;" horiz-adv-x="1120" 
d="M119 474l157 18l-1 -49q0 -98 40 -174q30 -58 101.5 -94.5t170.5 -36.5q137 0 217 72.5t80 180.5q0 76 -45 132q-46 55 -219 146q-134 71 -182 107q-87 65 -128.5 143.5t-41.5 179.5q0 176 112.5 284t308.5 108q135 0 231 -51t152.5 -149t56.5 -210l-1 -31l-156 -15l1 33
q0 71 -35.5 132t-101.5 94.5t-152 33.5q-123 0 -191.5 -60t-68.5 -158q0 -89 52 -137t256 -158q149 -81 202.5 -131.5t83 -121t29.5 -158.5q0 -184 -129 -306.5t-338 -122.5q-226 0 -343 120.5t-118 378.5z" />
    <glyph glyph-name="afii10055" unicode="&#x406;" horiz-adv-x="467" 
d="M96 0l251 1466h161l-251 -1466h-161z" />
    <glyph glyph-name="afii10056" unicode="&#x407;" horiz-adv-x="467" 
d="M96 0l251 1466h161l-251 -1466h-161zM235 1599l35 205h155l-35 -205h-155zM537 1599l36 205h154l-35 -205h-155z" />
    <glyph glyph-name="afii10057" unicode="&#x408;" horiz-adv-x="840" 
d="M68 427l149 13q-14 -85 -14 -127q0 -83 43.5 -129.5t113.5 -46.5q49 0 88.5 26t64.5 79.5t47 184.5l178 1039h161l-183 -1071q-39 -229 -130 -324.5t-230 -95.5q-141 0 -221 80.5t-80 239.5q0 67 13 132z" />
    <glyph glyph-name="afii10058" unicode="&#x409;" horiz-adv-x="1790" 
d="M524 1300l-141 -804q-60 -342 -131 -431.5t-180 -89.5q-51 0 -119 25l29 160q53 -23 77 -23q57 0 92.5 69t71.5 275l172 985h760l-108 -624h262q181 0 255.5 -40t115 -123t40.5 -190q0 -153 -75.5 -278.5t-187.5 -168t-288 -42.5h-434l230 1300h-441zM1018 676l-88 -510
h160q321 0 396 102.5t75 212.5q0 98 -56 146.5t-217 48.5h-270z" />
    <glyph glyph-name="afii10059" unicode="&#x40a;" horiz-adv-x="1651" 
d="M852 1466h160l-105 -624h262q184 0 257.5 -42t114 -124t40.5 -187q0 -151 -74.5 -277t-186.5 -169t-290 -43h-430l119 676h-397l-117 -676h-162l252 1466h160l-105 -624h398zM877 676l-86 -510h159q322 0 396.5 102.5t74.5 212.5q0 99 -56.5 147t-215.5 48h-272z" />
    <glyph glyph-name="afii10060" unicode="&#x40b;" horiz-adv-x="1417" 
d="M160 1300l30 166h945l-31 -166h-391l-80 -446q185 92 350 92q168 0 258 -92.5t90 -265.5q0 -69 -24 -207l-68 -381h-160l80 442q12 68 12 140q0 202 -227 202q-161 0 -340 -96l-123 -688h-159l231 1300h-393z" />
    <glyph glyph-name="afii10061" unicode="&#x40c;" horiz-adv-x="989" 
d="M461 1466l-113 -647q123 -1 196 91.5t228 418.5q31 67 97 107.5t145 40.5q16 0 90 -9l-29 -161q-60 8 -78 8q-35 0 -70 -36t-116 -209t-145 -238.5t-127 -81.5q122 -59 215 -338l137 -412h-176l-115 342q-63 190 -115.5 266.5t-158.5 81.5l-121 -690h-162l258 1466h160z
M586 1563l154 275h187l-218 -275h-123z" />
    <glyph glyph-name="afii10062" unicode="&#x40e;" horiz-adv-x="1073" 
d="M498 348l-336 1118h162l278 -927l461 927h170l-635 -1243q-61 -120 -118.5 -181t-141.5 -61q-37 0 -170 19l27 168q112 -23 137 -23q68 0 141 152zM464 1822h97q16 -140 128 -140q57 0 101 36.5t67 103.5h98q-29 -122 -103 -191t-168 -69q-93 0 -154 68.5t-66 191.5z" />
    <glyph glyph-name="afii10145" unicode="&#x40f;" horiz-adv-x="1214" 
d="M991 0h-405l-70 -408h-137l72 408h-408l260 1466h158l-228 -1300h627l227 1300h162z" />
    <glyph glyph-name="afii10017" unicode="&#x410;" horiz-adv-x="1120" 
d="M-33 0l681 1466h190l198 -1466h-156l-58 422h-486l-193 -422h-176zM405 573h397l-46 368q-27 218 -34 365q-40 -126 -119 -299z" />
    <glyph glyph-name="afii10018" unicode="&#x411;" horiz-adv-x="1094" 
d="M43 0l256 1466h776l-28 -166h-619l-78 -458h262q184 0 257.5 -42t114 -124t40.5 -187q0 -151 -74.5 -277t-186.5 -169t-290 -43h-430zM319 676l-88 -510h162q324 0 397.5 104t73.5 211q0 98 -57 146.5t-217 48.5h-271z" />
    <glyph glyph-name="afii10019" unicode="&#x412;" horiz-adv-x="1120" 
d="M73 0l251 1466h373q136 0 202 -24q96 -34 148.5 -117.5t52.5 -208.5q0 -123 -56 -213.5t-166 -137.5q95 -38 145 -115t50 -186q0 -126 -60.5 -238t-153.5 -169t-204 -57h-582zM378 840h244q176 0 244 61q83 78 83 206q0 65 -26 110.5t-66 63.5t-145 18h-256zM262 166h274
q108 0 144 8q65 14 114.5 47t81.5 98.5t32 142.5q0 110 -56 160.5t-197 50.5h-306z" />
    <glyph glyph-name="afii10020" unicode="&#x413;" horiz-adv-x="958" 
d="M235 0h-162l252 1466h784l-28 -166h-625z" />
    <glyph glyph-name="afii10021" unicode="&#x414;" horiz-adv-x="1182" 
d="M-53 166h98q217 288 365 1300h792l-229 -1300h110l-82 -459h-141l53 293h-854l-55 -293h-139zM1012 1300h-469q-144 -832 -324 -1134h596z" />
    <glyph glyph-name="afii10022" unicode="&#x415;" horiz-adv-x="1120" 
d="M76 0l251 1466h868l-28 -167h-708l-78 -456h688l-28 -167h-688l-88 -510h757l-29 -166h-917z" />
    <glyph glyph-name="afii10024" unicode="&#x416;" horiz-adv-x="1540" 
d="M375 1069l-15 119q-15 127 -106 127q-15 0 -70 -8l29 161q47 9 86 9q62 0 104 -23.5t59 -58t29 -126.5q38 -289 77 -371.5t173 -78.5l113 647h158l-113 -647q123 -1 196 91.5t228 418.5q32 68 98 108t148 40q39 0 86 -9l-29 -161q-50 8 -70 8q-79 0 -137 -125l-55 -119
q-85 -176 -146 -239.5t-128 -81.5q125 -65 208 -318l144 -432h-176l-115 342q-63 190 -115.5 266.5t-158.5 81.5l-119 -690h-160l121 690q-80 -4 -141 -45.5t-123 -126.5l-125 -176l-234 -342h-184l281 412q118 174 173.5 234.5t161.5 103.5q-118 25 -153 319z" />
    <glyph glyph-name="afii10025" unicode="&#x417;" horiz-adv-x="1030" 
d="M739 760q181 -96 181 -328q0 -198 -128 -326.5t-325 -128.5q-354 0 -426 439l139 49q33 -326 285 -326q131 0 213 86.5t82 212.5q0 89 -54.5 164.5t-234.5 75.5l-78 -2l41 176l64 -2q160 0 246.5 68.5t86.5 189.5q0 94 -56 157.5t-138 63.5q-224 0 -305 -307l-156 39
q118 430 461 430q155 0 254.5 -106.5t99.5 -274.5q0 -131 -67 -226.5t-185 -123.5z" />
    <glyph glyph-name="afii10026" unicode="&#x418;" horiz-adv-x="1202" 
d="M43 0l258 1466h154l-197 -1126l825 1126h150l-256 -1466h-154l197 1118l-821 -1118h-156z" />
    <glyph glyph-name="afii10027" unicode="&#x419;" horiz-adv-x="1202" 
d="M43 0l258 1466h154l-197 -1126l825 1126h150l-256 -1466h-154l197 1118l-821 -1118h-156zM552 1822h97q16 -140 128 -140q57 0 101 36.5t67 103.5h98q-29 -122 -103 -191t-168 -69q-93 0 -154 68.5t-66 191.5z" />
    <glyph glyph-name="afii10028" unicode="&#x41a;" horiz-adv-x="989" 
d="M461 1466l-113 -647q123 -1 196 91.5t228 418.5q31 67 97 107.5t145 40.5q16 0 90 -9l-29 -161q-60 8 -78 8q-35 0 -70 -36t-116 -209t-145 -238.5t-127 -81.5q122 -59 215 -338l137 -412h-176l-115 342q-63 190 -115.5 266.5t-158.5 81.5l-121 -690h-162l258 1466h160z
" />
    <glyph glyph-name="afii10029" unicode="&#x41b;" horiz-adv-x="1151" 
d="M223 481l172 985h789l-258 -1466h-162l229 1300h-469l-141 -804q-5 -31 -46.5 -212t-105.5 -240.5t-172 -59.5q-31 0 -106 16l29 166q64 -14 84 -14q55 0 91 77.5t66 251.5z" />
    <glyph glyph-name="afii10030" unicode="&#x41c;" horiz-adv-x="1399" 
d="M74 0l251 1466h197l122 -950q24 -189 31 -359q51 149 167 401l422 908h201l-251 -1466h-158l125 713q44 248 125 554q-52 -143 -129 -308l-447 -959h-155l-121 940q-16 124 -24 301q-19 -187 -39 -306l-161 -935h-156z" />
    <glyph glyph-name="afii10031" unicode="&#x41d;" horiz-adv-x="1212" 
d="M70 0l251 1466h161l-104 -609h623l104 609h161l-251 -1466h-161l118 691h-623l-118 -691h-161z" />
    <glyph glyph-name="afii10032" unicode="&#x41e;" horiz-adv-x="1307" 
d="M154 614q0 403 201 654q179 223 436 223q216 0 361.5 -174t145.5 -484q0 -249 -95 -451.5t-240 -304.5t-305 -102q-139 0 -250.5 74t-182.5 224t-71 341zM312 604q0 -213 106 -340t251 -127q110 0 216.5 81t179.5 254.5t73 378.5q0 222 -103.5 349.5t-250.5 127.5
q-170 0 -306 -167q-166 -205 -166 -557z" />
    <glyph glyph-name="afii10033" unicode="&#x41f;" horiz-adv-x="1212" 
d="M232 0h-162l252 1466h944l-252 -1466h-160l228 1300h-623z" />
    <glyph glyph-name="afii10034" unicode="&#x420;" horiz-adv-x="1120" 
d="M73 0l251 1466h503q130 0 193.5 -35.5t108 -122.5t44.5 -202q0 -149 -71.5 -281.5t-187 -181t-278.5 -48.5h-300l-102 -595h-161zM364 761h265q144 0 216 35.5t120.5 119.5t48.5 184q0 77 -25 123t-68 65t-155 19h-308z" />
    <glyph glyph-name="afii10035" unicode="&#x421;" horiz-adv-x="1212" 
d="M1012 516l159 -27q-76 -258 -222.5 -386t-320.5 -128q-213 0 -344.5 159t-131.5 470q0 363 165 614q179 273 463 273q182 0 304.5 -121t141.5 -340l-150 -17q-47 316 -290 316q-212 0 -343 -216.5t-131 -512.5q0 -230 93 -346.5t235 -116.5q122 0 214 88q113 108 158 291
z" />
    <glyph glyph-name="afii10036" unicode="&#x422;" horiz-adv-x="1026" 
d="M381 0l223 1299h-395l29 167h946l-28 -167h-392l-222 -1299h-161z" />
    <glyph glyph-name="afii10037" unicode="&#x423;" horiz-adv-x="1073" 
d="M498 348l-336 1118h162l278 -927l461 927h170l-635 -1243q-61 -120 -118.5 -181t-141.5 -61q-37 0 -170 19l27 168q112 -23 137 -23q68 0 141 152z" />
    <glyph glyph-name="afii10038" unicode="&#x424;" horiz-adv-x="1335" 
d="M727 1339l18 127h154l-20 -137q198 -5 312 -132t114 -341q0 -260 -155.5 -472.5t-477.5 -221.5l-27 -162h-160l33 170q-194 15 -301.5 140t-107.5 333q0 277 159 480.5t459 215.5zM547 334l149 837q-201 -12 -314.5 -171t-113.5 -379q0 -134 75 -210.5t204 -76.5z
M850 1165l-148 -837q209 8 326 166.5t117 384.5q0 278 -295 286z" />
    <glyph glyph-name="afii10039" unicode="&#x425;" horiz-adv-x="1120" 
d="M-53 0l574 741l-340 725h177l155 -332q80 -171 117 -270q62 101 188 263l264 339h209l-580 -757l329 -709h-175l-195 429q-27 59 -66 162q-44 -72 -108 -155l-336 -436h-213z" />
    <glyph glyph-name="afii10040" unicode="&#x426;" horiz-adv-x="1221" 
d="M1247 1466l-227 -1300h113l-80 -459h-138l54 293h-926l256 1466h162l-230 -1300h629l225 1300h162z" />
    <glyph glyph-name="afii10041" unicode="&#x427;" horiz-adv-x="1130" 
d="M178 1061l72 405h160l-84 -460q-17 -89 -17 -156q0 -88 61 -142.5t169 -54.5q160 0 340 95l125 718h159l-256 -1466h-159l102 582q-178 -90 -361 -90q-153 0 -246 92.5t-93 246.5q0 68 28 230z" />
    <glyph glyph-name="afii10042" unicode="&#x428;" horiz-adv-x="1546" 
d="M43 0l260 1466h162l-234 -1300h402l227 1300h160l-227 -1300h397l229 1300h158l-256 -1466h-1278z" />
    <glyph glyph-name="afii10043" unicode="&#x429;" horiz-adv-x="1550" 
d="M1577 1466l-227 -1300h112l-82 -459h-141l53 293h-1249l260 1466h162l-234 -1300h402l227 1300h160l-227 -1300h397l229 1300h158z" />
    <glyph glyph-name="afii10044" unicode="&#x42a;" horiz-adv-x="1352" 
d="M188 1466h529l-109 -624h262q266 0 339 -112t73 -241q0 -154 -76 -279.5t-187 -167.5t-286 -42h-432l227 1300h-368zM580 676l-88 -510h159q322 0 396.5 102.5t74.5 212.5q0 98 -55.5 146.5t-216.5 48.5h-270z" />
    <glyph glyph-name="afii10045" unicode="&#x42b;" horiz-adv-x="1561" 
d="M43 0l256 1466h160l-109 -624h262q184 0 257.5 -42t114 -124t40.5 -187q0 -151 -74.5 -277t-186.5 -169t-290 -43h-430zM319 676l-88 -510h162q324 0 397.5 104t73.5 211q0 98 -57 146.5t-217 48.5h-271zM1190 0l251 1466h161l-251 -1466h-161z" />
    <glyph glyph-name="afii10046" unicode="&#x42c;" horiz-adv-x="1094" 
d="M43 0l256 1466h160l-109 -624h262q184 0 257.5 -42t114 -124t40.5 -187q0 -151 -74.5 -277t-186.5 -169t-290 -43h-430zM319 676l-88 -510h162q324 0 397.5 104t73.5 211q0 98 -57 146.5t-217 48.5h-271z" />
    <glyph glyph-name="afii10047" unicode="&#x42d;" horiz-adv-x="1165" 
d="M950 670h-446l33 174h430v35q0 210 -91.5 330t-234.5 120q-242 0 -354 -309l-144 45q78 205 212.5 315.5t297.5 110.5q216 0 344.5 -165.5t128.5 -459.5q0 -385 -179 -637t-451 -252q-190 0 -312 131.5t-139 352.5l152 51q14 -186 92.5 -283.5t208.5 -97.5
q151 0 274 133.5t178 405.5z" />
    <glyph glyph-name="afii10048" unicode="&#x42e;" horiz-adv-x="1718" 
d="M565 608v39h-252l-112 -647h-158l256 1466h158l-113 -653h238q53 321 222 499.5t394 178.5q215 0 344 -176.5t129 -478.5q0 -351 -171.5 -607t-448.5 -256q-220 0 -353 178t-133 457zM1511 850q0 224 -91 351.5t-234 127.5q-180 0 -320.5 -211.5t-140.5 -517.5
q0 -214 98.5 -339.5t245.5 -125.5q183 0 312.5 205.5t129.5 509.5z" />
    <glyph glyph-name="afii10049" unicode="&#x42f;" horiz-adv-x="1145" 
d="M764 0l115 657h-174q-48 0 -98 -32t-161 -189l-307 -436h-213l303 436q130 187 226 228q-285 55 -285 352q0 140 62.5 253.5t160 155t312.5 41.5h475l-260 -1466h-156zM905 809l88 491h-221q-213 0 -286.5 -26.5t-114.5 -94.5t-41 -153q0 -77 42.5 -139.5t146.5 -70
t138 -7.5h248z" />
    <glyph glyph-name="afii10065" unicode="&#x430;" 
d="M643 132q-82 -86 -154 -121t-146 -35q-116 0 -192.5 83t-76.5 226q0 102 44 178t123.5 116.5t227.5 47.5q125 7 171.5 15t79.5 24q18 76 18 124q0 67 -48.5 107.5t-140.5 40.5q-185 0 -240 -194l-150 16q95 326 399 326q150 0 238 -78.5t88 -197.5q0 -84 -20 -197
l-48 -264q-23 -126 -23 -204q0 -55 17 -145h-149q-13 50 -18 132zM698 538q-55 -26 -186 -40q-134 -14 -184 -36t-78 -67t-28 -104q0 -81 45 -128t120 -47q71 0 137 44t107.5 127t66.5 251z" />
    <glyph glyph-name="afii10066" unicode="&#x431;" horiz-adv-x="944" 
d="M971 1491q-18 -128 -76.5 -175.5t-189.5 -47.5l-130 4q-95 0 -150.5 -41.5t-143.5 -300.5q114 131 268 131q143 0 241.5 -121.5t98.5 -318.5q0 -271 -135.5 -458.5t-335.5 -187.5q-161 0 -255.5 120.5t-94.5 326.5q0 201 82 508.5t185.5 412.5t289.5 105l120 -2
q69 0 80 45h146zM420 123q133 0 226 157.5t93 348.5q0 134 -54.5 213.5t-145.5 79.5q-137 0 -229.5 -149.5t-92.5 -364.5q0 -123 56.5 -204t146.5 -81z" />
    <glyph glyph-name="afii10067" unicode="&#x432;" horiz-adv-x="877" 
d="M602 557q164 -70 164 -248q0 -138 -97 -237t-255 -99q-183 0 -274 128t-91 300q0 294 136 489t356 195q128 0 203 -73.5t75 -190.5q0 -196 -217 -264zM227 631q84 -6 105 -6q338 0 338 182q0 59 -38 99t-95 40q-100 0 -186 -83t-124 -232zM283 492h-78q-6 -41 -6 -86
q0 -134 62 -209.5t167 -75.5q84 0 136 53.5t52 134.5q0 88 -56 135.5t-277 47.5z" />
    <glyph glyph-name="afii10068" unicode="&#x433;" horiz-adv-x="829" 
d="M618 330l127 -11q-79 -342 -383 -342q-153 0 -244 78.5t-91 208.5q0 100 56 183.5t136 111.5l253 81q75 23 113 65.5t38 95.5q0 61 -46.5 99t-127.5 38q-76 0 -117 -28t-80 -113l-135 12q91 276 336 276q146 0 232.5 -80t86.5 -210q0 -100 -59 -175.5t-237.5 -130
t-215.5 -76t-60.5 -58.5t-23.5 -81q0 -68 58 -112.5t147 -44.5q94 0 147 44.5t90 168.5z" />
    <glyph glyph-name="afii10069" unicode="&#x434;" horiz-adv-x="928" 
d="M760 903v60q0 196 -70.5 285t-253.5 89l-90 -4l27 158h108q210 0 310 -132t100 -411q0 -466 -128 -719.5t-355 -253.5q-161 0 -258 118.5t-97 324.5q0 284 139.5 475.5t327.5 191.5q163 0 240 -182zM522 938q-137 0 -228 -153.5t-91 -372.5q0 -132 56.5 -210.5
t152.5 -78.5q134 0 226.5 157.5t92.5 370.5q0 131 -57.5 209t-151.5 78z" />
    <glyph glyph-name="afii10070" unicode="&#x435;" 
d="M695 361l145 -18q-36 -155 -167 -270q-109 -97 -243 -97q-95 0 -173 51.5t-124 154t-46 244.5q0 187 70.5 349t172.5 236.5t221 74.5q151 0 246.5 -115t95.5 -325q0 -78 -11 -160h-642q-3 -32 -3 -57q0 -150 57 -227.5t137 -77.5q76 0 149.5 61t114.5 176zM264 624h489
v37q0 142 -56 213t-143 71q-94 0 -172.5 -80t-117.5 -241z" />
    <glyph glyph-name="afii10072" unicode="&#x436;" horiz-adv-x="1155" 
d="M745 1061l-79 -453h12q79 0 161 162t136.5 226.5t148.5 64.5q46 0 90 -17l-32 -108q-30 12 -49 12q-33 0 -56.5 -21.5t-71.5 -122.5t-90 -160.5t-120 -96.5q58 -29 87 -74t58 -135l111 -338h-154l-86 270q-35 113 -68 164t-98 64l-88 -498h-145l88 498
q-48 -2 -89.5 -39.5t-127.5 -173.5l-181 -285h-180l232 354q101 155 215 193q-49 39 -75 93t-40 160.5t-30 128t-40 21.5q-12 0 -65 -14l10 115q35 10 78 10q88 0 119 -62.5t67 -251.5q18 -97 52.5 -118t74.5 -21l82 453h143z" />
    <glyph glyph-name="afii10073" unicode="&#x437;" horiz-adv-x="780" 
d="M311 618l37 -2q232 0 232 189q0 141 -150 141q-65 0 -106.5 -31.5t-73.5 -128.5l-137 19q50 151 127.5 215.5t205.5 64.5q132 0 207.5 -73t75.5 -193q0 -183 -162 -274q107 -80 107 -221q0 -151 -94 -250t-252 -99q-287 0 -340 322l141 14q34 -196 207 -196
q85 0 136.5 55.5t51.5 140.5q0 87 -48 126.5t-159 39.5q-10 0 -30 -2z" />
    <glyph glyph-name="afii10074" unicode="&#x438;" 
d="M650 192q-157 -216 -321 -216q-95 0 -159.5 68t-64.5 175q0 68 28 230l105 613h148l-116 -679q-15 -85 -15 -131q0 -63 31 -95.5t87 -32.5q79 0 157.5 63.5t115 159t63.5 256.5l79 459h148l-182 -1062h-137z" />
    <glyph glyph-name="afii10075" unicode="&#x439;" 
d="M650 192q-157 -216 -321 -216q-95 0 -159.5 68t-64.5 175q0 68 28 230l105 613h148l-116 -679q-15 -85 -15 -131q0 -63 31 -95.5t87 -32.5q79 0 157.5 63.5t115 159t63.5 256.5l79 459h148l-182 -1062h-137zM380 1422h97q16 -140 128 -140q57 0 101 36.5t67 103.5h98
q-29 -122 -103 -191t-168 -69q-93 0 -154 68.5t-66 191.5z" />
    <glyph glyph-name="afii10076" unicode="&#x43a;" horiz-adv-x="793" 
d="M23 0l190 1061h145l-82 -453q72 -2 111.5 23.5t96.5 139.5q88 176 139 233t153 57h68l-27 -146h-35q-61 0 -82.5 -23t-88 -161t-173.5 -184q96 -40 154 -223l102 -324h-153l-82 266q-42 134 -80 183t-121 49l-88 -498h-147z" />
    <glyph glyph-name="afii10077" unicode="&#x43b;" horiz-adv-x="948" 
d="M391 915l-110 -636q-29 -162 -77 -227.5t-134 -65.5q-40 0 -131 14l26 150q16 -3 62 -3q61 0 79.5 41.5t47.5 202.5l118 670h656l-185 -1061h-147l162 915h-367z" />
    <glyph glyph-name="afii10078" unicode="&#x43c;" horiz-adv-x="1151" 
d="M23 0l188 1061h219l82 -846l403 846h218l-187 -1061h-145l151 856l-409 -856h-131l-86 889l-156 -889h-147z" />
    <glyph glyph-name="afii10079" unicode="&#x43d;" horiz-adv-x="924" 
d="M23 0l186 1061h147l-80 -440h406l76 440h145l-184 -1061h-148l84 475h-403l-82 -475h-147z" />
    <glyph glyph-name="afii10080" unicode="&#x43e;" 
d="M82 403q0 287 129 485t346 198q152 0 251 -116.5t99 -331.5q0 -197 -67.5 -352t-175 -232.5t-225.5 -77.5q-155 0 -256 114.5t-101 312.5zM231 421q0 -151 60 -228t150 -77q71 0 142 57.5t124 190.5t53 273q0 152 -60 230.5t-148 78.5q-77 0 -149.5 -57t-122 -188.5
t-49.5 -279.5z" />
    <glyph glyph-name="afii10081" unicode="&#x43f;" 
d="M56 0l182 1062h134l-31 -185q94 118 171 163.5t149 45.5q101 0 163.5 -68t62.5 -193q0 -56 -22 -182l-110 -643h-149l116 673q17 99 17 146q0 55 -31.5 86.5t-85.5 31.5q-112 0 -201.5 -99t-131.5 -344l-85 -494h-148z" />
    <glyph glyph-name="afii10082" unicode="&#x440;" 
d="M-17 -407l252 1469h137l-26 -148q79 100 139 136t126 36q121 0 204.5 -109t83.5 -319q0 -198 -67.5 -361t-178.5 -252q-86 -69 -180 -69q-157 0 -243 194l-99 -577h-148zM275 399q0 -134 54.5 -204.5t136.5 -70.5q65 0 114 43q70 62 121 204.5t51 287.5
q0 136 -54.5 208.5t-132.5 72.5q-62 0 -126 -55.5t-114 -195.5t-50 -290z" />
    <glyph glyph-name="afii10083" unicode="&#x441;" horiz-adv-x="840" 
d="M656 387l149 -19q-56 -199 -160 -295.5t-232 -96.5q-138 0 -228.5 109t-90.5 316q0 203 66.5 369t168 241t225.5 75q134 0 219 -94t84 -258l-146 -12q0 104 -48.5 159.5t-119.5 55.5q-79 0 -142.5 -52.5t-110 -194t-46.5 -313.5q0 -128 50.5 -194.5t120.5 -66.5
q72 0 138 67t103 204z" />
    <glyph glyph-name="afii10084" unicode="&#x442;" horiz-adv-x="1399" 
d="M54 0l182 1062h148l-30 -175q86 118 151 158.5t138 40.5q80 0 135 -51t73 -148q66 100 140 149.5t155 49.5q103 0 160.5 -61t57.5 -177q0 -51 -20 -164l-117 -684h-148l120 702q15 86 15 124q0 54 -28 82.5t-75 28.5q-62 0 -130 -45.5t-108.5 -125t-70.5 -251.5l-88 -515
h-149l123 717q13 73 13 105q0 53 -27.5 84t-68.5 31q-99 0 -187.5 -100.5t-128.5 -334.5l-87 -502h-148z" />
    <glyph glyph-name="afii10085" unicode="&#x443;" horiz-adv-x="840" 
d="M0 -410l9 170q46 -16 89 -16q45 0 72 24q38 34 80 125l47 104l-145 1065h146l66 -537q20 -161 34 -318l389 855h155l-555 -1203q-83 -182 -146.5 -236t-139.5 -54q-52 0 -101 21z" />
    <glyph glyph-name="afii10086" unicode="&#x444;" horiz-adv-x="1403" 
d="M934 1466l-88 -522q97 141 229 141q121 0 200 -112.5t79 -302.5q0 -283 -127 -488t-289 -205q-73 0 -137.5 47t-91.5 130l-99 -562h-147l92 521q-97 -136 -227 -136q-121 0 -200 113t-79 303q0 282 127.5 487t290.5 205q72 0 134.5 -46t90.5 -126l96 553h146zM1038 938
q-117 0 -199.5 -177t-82.5 -394q0 -112 50.5 -181t121.5 -69q110 0 193 167t83 400q0 118 -45.5 186t-120.5 68zM365 117q129 0 205.5 191t76.5 380q0 111 -50.5 180.5t-121.5 69.5q-110 0 -193 -167t-83 -400q0 -119 45.5 -186.5t120.5 -67.5z" />
    <glyph glyph-name="afii10087" unicode="&#x445;" horiz-adv-x="840" 
d="M-3 0l379 539l-217 523h164l73 -189q42 -107 74 -203l251 392h182l-366 -537l219 -525h-164l-86 216q-29 73 -64 171l-259 -387h-186z" />
    <glyph glyph-name="afii10088" unicode="&#x446;" horiz-adv-x="961" 
d="M610 176q-164 -199 -319 -199q-98 0 -157.5 67.5t-59.5 182.5q0 61 18 166l117 668h145l-116 -658q-15 -86 -15 -157q0 -121 117 -121q87 0 168 70.5t110.5 166.5t53.5 230l84 469h149l-135 -752q-20 -118 -20 -133q0 -49 55 -49h100l-80 -436h-125l56 291l-8 -2
q-59 0 -99.5 42t-40.5 115z" />
    <glyph glyph-name="afii10089" unicode="&#x447;" horiz-adv-x="868" 
d="M133 922l25 139h145l-31 -176q-28 -166 -28 -238q0 -139 182 -139q94 0 186 43l88 510h150l-186 -1061h-150l72 408q-115 -48 -207 -48q-136 0 -210.5 71.5t-74.5 203.5q0 66 39 287z" />
    <glyph glyph-name="afii10090" unicode="&#x448;" horiz-adv-x="1395" 
d="M1038 0l31 178q-123 -203 -285 -203q-81 0 -140 56.5t-66 146.5q-137 -201 -297 -201q-92 0 -151.5 63t-59.5 163q0 72 28 231l113 627h147l-122 -678q-17 -94 -17 -133q0 -119 98 -119q97 0 182.5 91.5t123.5 299.5l96 539h147l-125 -692q-14 -82 -14 -129
q0 -50 26 -80.5t68 -30.5q75 0 149 63.5t108.5 151t60.5 225.5l90 492h145l-190 -1061h-146z" />
    <glyph glyph-name="afii10091" unicode="&#x449;" horiz-adv-x="1430" 
d="M866 1061l-125 -692q-14 -72 -14 -129q0 -50 26 -80.5t68 -30.5q75 0 149 63.5t108.5 151t60.5 225.5l90 492h145l-145 -805q-8 -37 -8 -80q0 -49 55 -49h98l-78 -436h-125l58 291l-8 -2q-142 0 -142 155v35q-73 -123 -137.5 -159t-161.5 -36q-76 0 -135.5 56.5
t-66.5 146.5q-137 -201 -297 -201q-92 0 -151.5 63t-59.5 163q0 72 28 231l113 627h147l-122 -678q-17 -94 -17 -133q0 -119 98 -119q97 0 182.5 91.5t123.5 299.5l96 539h147z" />
    <glyph glyph-name="afii10092" unicode="&#x44a;" horiz-adv-x="1042" 
d="M70 915l26 146h422l-74 -410h179q118 0 186 -23.5t107.5 -94.5t39.5 -166q0 -108 -49.5 -205t-127 -129.5t-208.5 -32.5h-389l164 915h-276zM418 506l-64 -361h207q246 0 246 199q0 81 -41 121.5t-148 40.5h-200z" />
    <glyph glyph-name="afii10093" unicode="&#x44b;" horiz-adv-x="1256" 
d="M23 0l188 1061h147l-73 -410h178q118 0 185 -22.5t109 -96t42 -165.5q0 -107 -51 -204t-129 -130t-207 -33h-389zM258 506l-63 -361h206q248 0 248 199q0 81 -41 121.5t-149 40.5h-201zM986 0l182 1062h148l-182 -1062h-148z" />
    <glyph glyph-name="afii10094" unicode="&#x44c;" horiz-adv-x="883" 
d="M23 0l188 1061h147l-73 -410h178q118 0 185 -22.5t109 -96t42 -165.5q0 -107 -51 -204t-129 -130t-207 -33h-389zM258 506l-63 -361h206q248 0 248 199q0 81 -41 121.5t-149 40.5h-201z" />
    <glyph glyph-name="afii10095" unicode="&#x44d;" horiz-adv-x="825" 
d="M606 475h-268l24 146h265v77q0 107 -48.5 177.5t-123.5 70.5q-149 0 -228 -225l-147 20q122 344 377 344q148 0 233.5 -111.5t85.5 -311.5q0 -302 -127 -495.5t-327 -193.5q-131 0 -216.5 88t-91.5 242l146 12q6 -93 54 -143.5t122 -50.5q190 0 270 354z" />
    <glyph glyph-name="afii10096" unicode="&#x44e;" horiz-adv-x="1264" 
d="M432 455h-180l-80 -455h-149l188 1061h147l-79 -461h167q39 223 160 354t277 131q150 0 239.5 -112t89.5 -309q0 -291 -130.5 -491t-323.5 -200q-142 0 -236 117t-94 295q0 19 4 70zM877 946q-123 0 -211 -163.5t-88 -395.5q0 -124 51.5 -195t136.5 -71q147 0 222 190.5
t75 382.5q0 116 -52.5 184t-133.5 68z" />
    <glyph glyph-name="afii10097" unicode="&#x44f;" horiz-adv-x="897" 
d="M502 1061h381l-189 -1061h-147l78 440h-50q-85 0 -118 -6.5t-73.5 -40t-84.5 -108.5l-166 -285h-180l166 270q82 134 180 187q-186 60 -186 270q0 97 47.5 182.5t120.5 118.5t221 33zM651 586l60 329h-205q-150 0 -197 -44.5t-47 -131.5q0 -101 47.5 -127t141.5 -26h200z
" />
    <glyph glyph-name="afii10071" unicode="&#x451;" 
d="M695 361l145 -18q-36 -155 -167 -270q-109 -97 -243 -97q-95 0 -173 51.5t-124 154t-46 244.5q0 187 70.5 349t172.5 236.5t221 74.5q151 0 246.5 -115t95.5 -325q0 -78 -11 -160h-642q-3 -32 -3 -57q0 -150 57 -227.5t137 -77.5q76 0 149.5 61t114.5 176zM264 624h489
v37q0 142 -56 213t-143 71q-94 0 -172.5 -80t-117.5 -241zM315 1227l35 205h155l-35 -205h-155zM617 1227l36 205h154l-35 -205h-155z" />
    <glyph glyph-name="afii10099" unicode="&#x452;" 
d="M27 0l206 1200h-114l28 152h111l21 114h147l-18 -114h307l-27 -152h-307l-51 -297q150 182 303 182q102 0 164.5 -69t62.5 -176q0 -75 -63 -439.5t-93.5 -524.5t-85 -230t-147.5 -70q-71 0 -145 25l26 153q45 -16 88 -16q53 0 80.5 41t54.5 205l113 659q23 122 23 176
q0 119 -115 119q-89 0 -165 -62t-112.5 -159t-64.5 -262l-78 -455h-149z" />
    <glyph glyph-name="afii10100" unicode="&#x453;" horiz-adv-x="635" 
d="M446 1190h-122l155 276h187zM209 1061h510l-27 -146h-362l-162 -915h-145z" />
    <glyph glyph-name="afii10101" unicode="&#x454;" horiz-adv-x="831" 
d="M227 618h267l-27 -145h-262q-4 -37 -4 -104q0 -115 46 -180.5t126 -65.5q162 0 239 262l148 -20q-57 -191 -160 -290.5t-231 -99.5q-141 0 -229.5 113.5t-88.5 314.5q0 298 126 490t329 192q142 0 224.5 -92.5t82.5 -259.5l-145 -10q-4 106 -51.5 160.5t-122.5 54.5
q-91 0 -164 -84.5t-103 -235.5z" />
    <glyph glyph-name="afii10102" unicode="&#x455;" horiz-adv-x="840" 
d="M64 363l149 11q-1 -130 57 -194t158 -64q91 0 144 45.5t53 116.5q0 51 -33 92q-34 41 -147 100q-130 68 -171.5 104.5t-64.5 89t-23 117.5q0 133 86 219t226 86q155 0 245 -88.5t94 -247.5l-146 -12q-3 100 -57.5 154t-146.5 54q-72 0 -117 -40.5t-45 -93.5q0 -46 27 -79
q27 -34 137 -91q169 -89 215 -142q70 -83 70 -202q0 -132 -93.5 -227t-259.5 -95q-167 0 -262 96t-95 271v20z" />
    <glyph glyph-name="afii10103" unicode="&#x456;" horiz-adv-x="373" 
d="M266 1261l35 205h148l-35 -205h-148zM50 0l182 1062h148l-182 -1062h-148z" />
    <glyph glyph-name="afii10104" unicode="&#x457;" horiz-adv-x="467" 
d="M103 0l182 1062h148l-182 -1062h-148zM141 1227l35 205h155l-35 -205h-155zM443 1227l36 205h154l-35 -205h-155z" />
    <glyph glyph-name="afii10105" unicode="&#x458;" horiz-adv-x="373" 
d="M266 1261l35 205h147l-36 -205h-146zM-204 -399l26 154q51 -17 91 -17q48 0 76 40t58 212l183 1072h149l-190 -1105q-36 -210 -83 -285q-61 -97 -169 -97q-58 0 -141 26z" />
    <glyph glyph-name="afii10106" unicode="&#x459;" horiz-adv-x="1528" 
d="M424 915l-111 -636q-54 -302 -229 -302q-66 0 -145 27l28 156q45 -21 82 -21q60 0 85.5 53t51.5 199l119 670h694l-69 -410h178q118 0 186 -23.5t109 -95.5t41 -165q0 -107 -51.5 -204.5t-128.5 -130t-207 -32.5h-387l159 915h-405zM903 506l-63 -361h207q247 0 247 197
q0 82 -42 123t-146 41h-203z" />
    <glyph glyph-name="afii10107" unicode="&#x45a;" horiz-adv-x="1391" 
d="M862 1061l-69 -410h176q120 0 189 -24t108 -96t39 -164q0 -108 -50 -204.5t-129 -129.5t-208 -33h-388l91 506h-369l-82 -506h-147l186 1061h147l-71 -410h362l70 410h145zM766 506l-66 -361h209q246 0 246 199q0 81 -40.5 121.5t-147.5 40.5h-201z" />
    <glyph glyph-name="afii10108" unicode="&#x45b;" 
d="M147 1352h111l21 114h147l-18 -114h307l-27 -152h-307l-51 -297q150 182 303 182q103 0 165 -68t62 -175q0 -62 -26 -215l-109 -627h-147l110 643q23 122 23 176q0 119 -115 119q-89 0 -165 -62t-112.5 -159t-64.5 -262l-78 -455h-149l206 1200h-114z" />
    <glyph glyph-name="afii10109" unicode="&#x45c;" horiz-adv-x="793" 
d="M23 0l190 1061h145l-82 -453q72 -2 111.5 23.5t96.5 139.5q88 176 139 233t153 57h68l-27 -146h-35q-61 0 -82.5 -23t-88 -161t-173.5 -184q96 -40 154 -223l102 -324h-153l-82 266q-42 134 -80 183t-121 49l-88 -498h-147zM421 1191l154 275h187l-218 -275h-123z" />
    <glyph glyph-name="afii10110" unicode="&#x45e;" horiz-adv-x="909" 
d="M0 -410l9 170q46 -16 89 -16q45 0 72 24q38 34 80 125l47 104l-145 1065h146l66 -537q20 -161 34 -318l389 855h155l-555 -1203q-83 -182 -146.5 -236t-139.5 -54q-52 0 -101 21zM352 1422h97q16 -140 128 -140q57 0 101 36.5t67 103.5h98q-29 -122 -103 -191t-168 -69
q-93 0 -154 68.5t-66 191.5z" />
    <glyph glyph-name="afii10193" unicode="&#x45f;" 
d="M586 0l32 193q-130 -181 -262 -209l-71 -392h-119l74 392q-166 53 -166 231q0 65 28 234l105 612h149l-116 -678q-17 -109 -17 -135q0 -123 117 -123q83 0 159 62t113.5 156.5t65.5 260.5l78 457h149l-182 -1061h-137z" />
    <glyph glyph-name="afii10050" unicode="&#x490;" horiz-adv-x="827" 
d="M295 1466h553l51 291h141l-82 -457h-532l-221 -1300h-162z" />
    <glyph glyph-name="afii10098" unicode="&#x491;" horiz-adv-x="569" 
d="M705 1315l-74 -400h-301l-162 -915h-145l186 1061h326l45 254h125z" />
    <glyph glyph-name="afii00208" unicode="&#x2015;" horiz-adv-x="1679" 
d="M1466 459h-1257v145h1257v-145z" />
    <glyph glyph-name="afii61352" unicode="&#x2116;" horiz-adv-x="1819" 
d="M47 0l260 1466h156l381 -1165l205 1165h153l-260 -1466h-149l-385 1163l-205 -1163h-156zM1448 371q-118 0 -191 86t-73 229q0 202 97 342.5t249 140.5q117 0 188.5 -89t71.5 -228q0 -197 -97 -339t-245 -142zM1528 1036q-87 0 -145 -106.5t-58 -257.5q0 -77 34.5 -122.5
t86.5 -45.5q86 0 144.5 108.5t58.5 259.5q0 73 -34 118.5t-87 45.5zM1090 115l26 145h557l-24 -145h-559z" />
    <glyph glyph-name="pi" unicode="&#x3c0;" horiz-adv-x="1124" 
d="M140 909l26 152h1030l-26 -152h-191l-155 -909h-150l158 909h-354l-156 -909h-147l155 909h-190z" />
    <glyph glyph-name="foursuperior" horiz-adv-x="559" 
d="M404 733l26 153h-317l21 120l419 478h96l-81 -484h82l-21 -114h-82l-26 -153h-117zM451 1000l52 265l-234 -265h182z" />
    <glyph glyph-name="fivesuperior" horiz-adv-x="559" 
d="M143 940l121 8q21 -112 117 -112q65 0 106 44t41 119q0 63 -31 97t-73 34q-71 0 -137 -57l-111 8l92 385h412l-21 -120h-315l-39 -160q80 55 150 55q88 0 146 -66.5t58 -154.5q0 -117 -79 -211t-205 -94q-104 0 -166.5 67.5t-65.5 157.5z" />
    <glyph glyph-name="sevensuperior" horiz-adv-x="559" 
d="M240 733q71 352 301 613h-346l22 120h467l-20 -120q-99 -102 -184.5 -274.5t-110.5 -338.5h-129z" />
    <glyph glyph-name="eightsuperior" horiz-adv-x="559" 
d="M328 1135q-103 47 -103 155q0 85 62.5 139t163.5 54q106 0 164.5 -48.5t58.5 -134.5q0 -131 -142 -174q117 -36 117 -168q0 -108 -69.5 -175.5t-190.5 -67.5q-120 0 -176.5 62.5t-56.5 148.5q0 71 43.5 133.5t128.5 75.5zM459 1374q-47 0 -82 -27t-35 -79q0 -34 22 -61
t74 -27q50 0 82.5 26.5t32.5 75.5q0 45 -27.5 68.5t-66.5 23.5zM422 1077q-63 0 -103 -37.5t-40 -105.5q0 -111 106 -111q60 0 101.5 36t41.5 106q0 112 -106 112z" />
    <glyph glyph-name="currency" unicode="&#xa4;" 
d="M172 961l-114 136l94 119l114 -139q43 36 91.5 54t103.5 18t103.5 -18t90.5 -54l114 139l95 -119l-114 -136q58 -110 58 -235t-58 -236l114 -136l-95 -119l-114 140q-42 -36 -90.5 -54.5t-103.5 -18.5t-103.5 18.5t-91.5 54.5l-114 -140l-94 119l114 136q-58 111 -58 236
t58 235zM247 726q0 -112 64 -186t149 -74t149 74t64 186q0 111 -64 185t-149 74t-149 -74t-64 -185z" />
    <glyph glyph-name="uni0218" unicode="&#x218;" horiz-adv-x="1120" 
d="M119 474l157 18l-1 -49q0 -98 40 -174q30 -58 101.5 -94.5t170.5 -36.5q137 0 217 72.5t80 180.5q0 76 -45 132q-46 55 -219 146q-134 71 -182 107q-87 65 -128.5 143.5t-41.5 179.5q0 176 112.5 284t308.5 108q135 0 231 -51t152.5 -149t56.5 -210l-1 -31l-156 -15l1 33
q0 71 -35.5 132t-101.5 94.5t-152 33.5q-123 0 -191.5 -60t-68.5 -158q0 -89 52 -137t256 -158q149 -81 202.5 -131.5t83 -121t29.5 -158.5q0 -184 -129 -306.5t-338 -122.5q-226 0 -343 120.5t-118 378.5zM454 -305l32 184h152l-27 -161q-18 -105 -72 -167t-119 -69l12 71
q82 27 105 142h-83z" />
    <glyph glyph-name="uni0219" unicode="&#x219;" horiz-adv-x="840" 
d="M64 363l149 11q-1 -130 57 -194t158 -64q91 0 144 45.5t53 116.5q0 51 -33 92q-34 41 -147 100q-130 68 -171.5 104.5t-64.5 89t-23 117.5q0 133 86 219t226 86q155 0 245 -88.5t94 -247.5l-146 -12q-3 100 -57.5 154t-146.5 54q-72 0 -117 -40.5t-45 -93.5q0 -46 27 -79
q27 -34 137 -91q169 -89 215 -142q70 -83 70 -202q0 -132 -93.5 -227t-259.5 -95q-167 0 -262 96t-95 271v20zM294 -305l32 184h152l-27 -161q-18 -105 -72 -167t-119 -69l12 71q82 27 105 142h-83z" />
    <glyph glyph-name="uni021A" unicode="&#x21a;" horiz-adv-x="1026" 
d="M381 0l223 1299h-395l29 167h946l-28 -167h-392l-222 -1299h-161zM335 -305l32 184h152l-27 -161q-18 -105 -72 -167t-119 -69l12 71q82 27 105 142h-83z" />
    <glyph glyph-name="uni021B" unicode="&#x21b;" horiz-adv-x="467" 
d="M403 147l-26 -148q-53 -17 -103 -17q-83 0 -131.5 44t-48.5 118q0 35 22 161l105 617h-117l24 140h117l45 261l170 125l-66 -386h145l-24 -140h-145l-101 -587q-19 -113 -19 -133q0 -35 16 -51t49 -16q49 0 88 12zM75 -305l32 184h152l-27 -161q-18 -105 -72 -167
t-119 -69l12 71q82 27 105 142h-83z" />
    <glyph glyph-name="glyph662" horiz-adv-x="373" 
d="M266 1261l35 205h148l-35 -205h-148zM50 0l182 1062h148l-182 -1062h-148zM323 1562l154 275h187l-218 -275h-123z" />
    </font>
</defs>
</svg>
